<svg width="48" height="48" viewBox="0 0 48 48" fill="none" xmlns="http://www.w3.org/2000/svg">
<circle cx="24" cy="24" r="23.5" stroke="white"/>
<path d="M14.0002 23.9985C14.0002 22.3445 15.3462 20.9985 17.0002 20.9985H21.7642C20.7402 19.8555 20.7852 17.9735 21.8792 16.8775C22.442 16.3156 23.2049 16 24.0002 16C24.7955 16 25.5583 16.3156 26.1212 16.8775L33.2422 23.9985L26.1212 31.1195C25.5583 31.6815 24.7955 31.9971 24.0002 31.9971C23.2049 31.9971 22.442 31.6815 21.8792 31.1195C20.7842 30.0255 20.7392 28.1405 21.7642 26.9985H17.0002C15.3462 26.9985 14.0002 25.6525 14.0002 23.9985ZM26.5862 22.9985H17.0002C16.7427 23.01 16.4996 23.1204 16.3215 23.3067C16.1433 23.493 16.0439 23.7408 16.0439 23.9985C16.0439 24.2563 16.1433 24.5041 16.3215 24.6904C16.4996 24.8766 16.7427 24.987 17.0002 24.9985H26.5862L23.2932 28.2915C23.1112 28.4819 23.0096 28.7351 23.0096 28.9985C23.0096 29.2619 23.1112 29.5152 23.2932 29.7055C23.386 29.7985 23.4962 29.8722 23.6175 29.9225C23.7388 29.9728 23.8689 29.9987 24.0002 29.9987C24.1315 29.9987 24.2616 29.9728 24.3829 29.9225C24.5042 29.8722 24.6144 29.7985 24.7072 29.7055L30.4142 23.9985L24.7072 18.2915C24.6144 18.1986 24.5042 18.1248 24.3829 18.0745C24.2616 18.0242 24.1315 17.9983 24.0002 17.9983C23.8689 17.9983 23.7388 18.0242 23.6175 18.0745C23.4962 18.1248 23.386 18.1986 23.2932 18.2915C23.1112 18.4819 23.0096 18.7351 23.0096 18.9985C23.0096 19.2619 23.1112 19.5152 23.2932 19.7055L26.5862 22.9985Z" fill="white"/>
</svg>
