<svg width="160" height="160" viewBox="0 0 160 160" fill="none" xmlns="http://www.w3.org/2000/svg">
<path d="M7.65552 77.3498V70.5031C7.65552 68.0246 9.44693 66.0123 11.6801 65.9878H25.8396C28.0727 66.0123 29.8641 68.0246 29.8641 70.5031V75.5583H11.8273V72.2945H26.9439V70.5031C26.9439 70.1841 26.8457 69.8651 26.6248 69.6197C26.404 69.3743 26.134 69.2516 25.8396 69.2516H11.6801C11.3856 69.2516 11.0911 69.3743 10.8948 69.6197C10.6739 69.8651 10.5758 70.1596 10.5758 70.5031V77.3498C10.5758 77.6688 10.6739 77.9878 10.8948 78.2332C11.1156 78.4786 11.3856 78.6013 11.6801 78.6013H29.8641V81.8651H11.6801C9.44693 81.8406 7.63098 79.8283 7.65552 77.3498Z" fill="#ED1C24"/>
<path d="M51.6809 70.503C51.6809 70.184 51.5828 69.865 51.3619 69.6196C51.141 69.3742 50.8711 69.2515 50.5766 69.2515H35.3128V81.8404H32.3926V65.9631H50.5766C52.8098 65.9877 54.6012 68 54.6012 70.4785V81.8404H51.6809V70.503Z" fill="#ED1C24"/>
<path d="M57.1533 77.3498V70.5031C57.1533 68.0246 58.9447 66.0123 61.1779 65.9878H75.3374C77.5705 66.0123 79.3619 68.0246 79.3619 70.5031V75.5583H61.3251V72.2945H76.4417V70.5031C76.4417 70.1841 76.3435 69.8651 76.1227 69.6197C75.9018 69.3743 75.6318 69.2516 75.3374 69.2516H61.1779C60.8834 69.2516 60.5889 69.3743 60.3926 69.6197C60.1963 69.8651 60.0736 70.1596 60.0736 70.5031V77.3498C60.0736 77.6688 60.1717 77.9878 60.3926 78.2332C60.6134 78.4786 60.8834 78.6013 61.1779 78.6013H79.3619V81.8651H61.1779C58.9447 81.8406 57.1533 79.8283 57.1533 77.3498Z" fill="#ED1C24"/>
<path d="M83.8027 70.5031C83.8027 68.0246 85.5205 66.0123 87.68 65.9878H97.7659V69.2516H87.68C87.3856 69.2516 87.1156 69.3743 86.9193 69.6197C86.723 69.8651 86.6003 70.1841 86.6248 70.5031V81.8651H83.8273L83.8027 70.5031Z" fill="#ED1C24"/>
<path d="M100.318 86.1594H118.502C118.797 86.1594 119.091 86.0122 119.288 85.7668C119.484 85.5214 119.607 85.2024 119.607 84.8588V69.3005H104.343C104.048 69.3005 103.754 69.4232 103.558 69.6686C103.337 69.914 103.239 70.2331 103.239 70.5766V77.5459C103.239 77.8895 103.337 78.2085 103.558 78.4539C103.778 78.6993 104.048 78.822 104.343 78.822H118.331V82.1594H104.343C102.11 82.1349 100.318 80.0981 100.318 77.5705V70.6012C100.318 68.0736 102.11 66.0367 104.343 66.0122H122.527V84.9079C122.527 87.4355 120.736 89.4723 118.502 89.4969H100.318V86.1594Z" fill="#ED1C24"/>
<path d="M125.055 60.908H127.607V64.2454H125.079V60.908H125.055ZM125.055 66.2577H127.607V82.4785H125.079V66.2577H125.055Z" fill="#ED1C24"/>
<path d="M131.41 77.3498V70.5031C131.41 68.0246 133.202 66.0123 135.435 65.9878H149.594C151.827 66.0123 153.619 68.0246 153.619 70.5031V75.5583H135.582V72.2945H150.698V70.5031C150.698 70.1841 150.6 69.8651 150.379 69.6197C150.159 69.3743 149.889 69.2516 149.594 69.2516H135.435C135.14 69.2516 134.846 69.3743 134.649 69.6197C134.429 69.8651 134.33 70.1596 134.33 70.5031V77.3498C134.33 77.6688 134.429 77.9878 134.649 78.2332C134.87 78.4786 135.14 78.6013 135.435 78.6013H153.619V81.8651H135.435C133.202 81.8406 131.41 79.8283 131.41 77.3498Z" fill="#ED1C24"/>
<path d="M6.67436 92.8343H15.5087C15.8277 92.8343 16.1222 92.5643 16.1958 92.1962L16.2449 91.9017C16.294 91.7545 16.2449 91.5827 16.1713 91.46C16.0731 91.3373 15.9504 91.2637 15.8032 91.2637H8.68663C7.58234 91.2637 6.84614 90.2085 7.09154 88.9079L7.14062 88.6134C7.38602 87.3128 8.49031 86.2576 9.61915 86.2576H18.4535L18.1345 87.9508H9.30013C8.98111 87.9508 8.68663 88.2208 8.61301 88.5889L8.56393 88.8588C8.51485 89.006 8.56393 89.1778 8.63755 89.3251C8.73571 89.4478 8.85841 89.5214 9.00565 89.5214H16.1468C17.2756 89.5214 17.9627 90.5766 17.7418 91.8772L17.6928 92.1717C17.4719 93.4723 16.3676 94.5275 15.2388 94.5275H6.37988L6.67436 92.8343Z" fill="#00AEEF"/>
<path d="M21.2024 86.3066H30.1349C31.2146 86.3066 31.9263 87.3618 31.7054 88.6625L31.0674 92.2453C30.822 93.5459 29.7422 94.6011 28.6625 94.6011H21.7913L22.0858 92.8833H28.9815C29.3005 92.8833 29.5705 92.6134 29.6441 92.2453L30.2821 88.6625C30.3312 88.5152 30.3066 88.3434 30.2085 88.1962C30.1349 88.0735 29.9876 87.9999 29.8649 87.9999H22.3557L20.5152 98.3312H19.0674L21.2024 86.3066Z" fill="#00AEEF"/>
<path d="M31.8028 92.1963L32.4654 88.6381C32.7108 87.3374 33.8151 86.2822 34.9439 86.2822H42.1587C43.2875 86.2822 44.0237 87.3374 43.7783 88.6381L43.2875 91.2638H34.1096L34.4286 89.5706H42.1096L42.2814 88.6381C42.3304 88.4908 42.3059 88.319 42.2077 88.1963C42.1096 88.0736 41.9869 88 41.8396 88H34.6249C34.2814 88 34.0114 88.27 33.9378 88.6381L33.2752 92.1963C33.2261 92.3436 33.2507 92.5154 33.3488 92.6381C33.447 92.7608 33.5697 92.8344 33.7169 92.8344H42.9685L42.674 94.5276H33.4225C32.2936 94.5276 31.582 93.4724 31.8028 92.1963Z" fill="#00AEEF"/>
<path d="M52.7603 91.043L55.6805 95.1902H53.5947L51.4842 92.1718C51.4106 92.0982 51.3124 92.0245 51.2388 91.9755C51.1407 91.9264 51.0425 91.9019 50.9198 91.9019H46.5026L45.9137 95.1902H44.4658L46.6253 83.1411H48.0732L46.8217 90.2086H51.2388C51.3615 90.2086 51.4597 90.1841 51.5824 90.135H51.6069C51.7051 90.0859 51.8032 90.0123 51.9014 89.9387L55.0916 86.9203H57.1775L52.7603 91.043Z" fill="#00AEEF"/>
<path d="M56.5638 92.8344L58.0362 85.0308H59.5576L59.2141 86.9203H62.8705L62.5515 88.6381H58.8951L58.0853 92.859C58.0362 93.0062 58.0607 93.178 58.1589 93.3007C58.257 93.4234 58.3797 93.497 58.527 93.497H62.2816L61.9626 95.2148H58.208C57.0546 95.1657 56.3184 94.1105 56.5638 92.8344Z" fill="#00AEEF"/>
<path d="M64.5885 88.6381C64.8339 87.3374 65.9382 86.2822 67.0671 86.2822H72.3922L72.0732 87.9755H66.7481C66.4045 87.9755 66.1346 88.2454 66.0609 88.6135L64.9812 94.5276H63.5088L64.5885 88.6381Z" fill="#00AEEF"/>
<path d="M72.4172 92.1963L73.4724 86.2822H74.9202L73.865 92.1963C73.8159 92.3436 73.8405 92.5154 73.9386 92.6381C74.0368 92.7608 74.1595 92.8344 74.3067 92.8344H81.2761C81.5951 92.8098 81.865 92.5644 81.9386 92.1963L82.9939 86.2822H84.4417L83.362 92.1963C83.1411 93.497 82.0613 94.5522 80.9571 94.5522H73.9877C72.908 94.5276 72.1963 93.4724 72.4172 92.1963Z" fill="#00AEEF"/>
<path d="M100.049 88.6379C100.098 88.4907 100.049 88.3189 99.9751 88.1717C99.877 88.049 99.7543 87.9754 99.607 87.9754H94.969C94.6255 87.9999 94.3555 88.2453 94.2574 88.6134L93.1531 94.5275H91.6807L92.785 88.6134C92.834 88.4662 92.785 88.2944 92.7113 88.1471C92.6132 88.0244 92.4905 87.9508 92.3432 87.9508H87.1653L85.9383 94.503H84.4414L85.9874 86.2576H92.6623C92.9813 86.2576 93.2758 86.3557 93.5457 86.5275C93.6684 86.6011 93.7911 86.6993 93.8893 86.822C94.012 86.7238 94.1592 86.6257 94.3064 86.5275C94.6255 86.3557 94.969 86.2576 95.3126 86.2576H99.9261C101.055 86.2576 101.791 87.3128 101.546 88.6134L100.441 94.5275H98.969L100.049 88.6379Z" fill="#00AEEF"/>
</svg>
