<svg width="160" height="160" viewBox="0 0 160 160" fill="none" xmlns="http://www.w3.org/2000/svg">
<g clip-path="url(#clip0_462_3012)">
<path fill-rule="evenodd" clip-rule="evenodd" d="M15.9505 75.681H25.3247L26.0118 75.2884C26.2327 74.9693 26.3063 74.4786 26.3063 74.1105C26.3063 73.7424 26.2818 73.3743 26.0118 72.9325C25.7419 72.4663 25.2266 72.4908 25.2266 72.4908H15.9505M4.46582 92.4417V65.4233H30.4536C33.791 65.5706 35.2143 66.4786 36.3431 67.5092C37.472 68.5154 38.5272 70.8712 38.429 73.227C38.3309 75.5828 37.7664 77.6442 36.1713 79.2638C34.5763 80.8835 32.0977 81.1779 32.0977 81.1779L38.9689 92.4663H26.3063L20.1223 82.2086H15.9505V92.4663H4.46582V92.4417Z" fill="#DA3232"/>
<path d="M43.6807 65.4232H55.288V81.8649C55.288 81.8649 55.288 83.3619 56.0978 83.9754C56.8831 84.5889 57.6929 85.1533 60.1469 85.1533C62.5764 85.1533 63.6807 84.2208 63.8279 83.9999C63.9751 83.779 64.5396 83.5091 64.6132 82.1594C64.6868 80.8343 64.6132 65.3987 64.6132 65.3987H75.5334V82.6993C75.5334 82.6993 75.5334 86.6257 73.0794 88.8833C73.0794 88.8833 71.2635 90.7729 68.0733 91.6564C68.0733 91.6564 64.0978 92.8833 59.9015 92.8097C56.3923 92.7606 53.9383 92.5398 50.2574 91.2637C47.3371 90.2576 46.0856 88.9079 45.8893 88.7116C45.6929 88.5152 43.6561 86.7975 43.7052 82.184" fill="#DA3232"/>
<path d="M82.748 92.4908H93.6192V84.6626L97.3002 81.7424L104.368 92.4908H118.036L106.11 75.043L116.908 65.4233H102.282L93.6192 74.1841V65.4233H82.748" fill="#DA3232"/>
<path d="M121.423 92.4172V65.4233H152.883V72.4908H132.957V75.4111H148.196V82.0368H132.957V84.9816H152.883V92.4172" fill="#DA3232"/>
<path fill-rule="evenodd" clip-rule="evenodd" d="M170.7 75.681H180.074L180.761 75.2884C180.982 74.9693 181.055 74.5031 181.055 74.135C181.055 73.7669 181.031 73.4233 180.761 72.9816C180.491 72.5399 179.976 72.5399 179.976 72.5399H170.7M159.215 92.4417V65.4233H185.203C188.54 65.5706 189.963 66.4786 191.092 67.5092C192.221 68.5154 193.276 70.8712 193.178 73.227C193.08 75.5828 192.515 77.6442 190.92 79.2638C189.35 80.8835 186.847 81.1779 186.847 81.1779L193.718 92.4663H181.055L174.871 82.2086H170.65V92.4663H159.215V92.4417Z" fill="#DA3232"/>
<path d="M35.0674 24.6381C35.0674 20.7854 38.1839 17.6934 42.0122 17.6934C45.8649 17.6934 48.9815 20.8099 48.9815 24.6381C48.9815 28.4909 45.8649 31.5829 42.0122 31.5829C38.1839 31.6075 35.0674 28.4909 35.0674 24.6381Z" fill="white"/>
<path d="M12.2948 63.5337C12.2948 63.5337 -8.1224 36.0245 3.36226 24.4908C12.5156 15.4847 37.8653 18.9939 61.7426 30.4785C92.5647 45.6933 104.197 57.6442 113.203 63.5337H107.534C76.1721 37.9141 22.896 10.9693 6.08619 27.4356C-3.23897 36.908 18.5034 61.1288 19.4113 63.5337" fill="white"/>
<path d="M47.2148 63.5338C92.3928 26.135 119.239 20.6626 140.049 20.6626C159.681 20.6626 160.319 33.8896 160.393 36.0246C160.736 45.5706 153.939 56.0982 149.055 63.5338H144.54C148.344 58.6503 162.945 39.4847 154.552 29.9387C147.411 21.7914 122.969 25.9878 104.81 33.8896C87.2639 40.2454 64.8345 56.1718 57.2517 63.5338" fill="white"/>
<path d="M35.0674 133.423C35.0674 129.571 38.1839 126.479 42.0122 126.479C45.8649 126.479 48.9815 129.595 48.9815 133.423C48.9815 137.276 45.8649 140.368 42.0122 140.368C38.1839 140.393 35.0674 137.276 35.0674 133.423Z" fill="white"/>
<path d="M12.2948 94.5276C12.2948 94.5276 -8.1224 122.037 3.36226 133.571C12.5156 142.577 37.8653 139.067 61.7426 127.607C92.5647 112.393 104.197 100.442 113.203 94.5521H107.534C76.1721 120.147 22.896 147.117 6.08619 130.626C-3.23897 121.153 18.5034 96.9325 19.4113 94.5276" fill="white"/>
<path d="M47.2148 94.5276C92.3928 131.951 119.239 137.423 140.049 137.423C159.681 137.423 160.319 124.196 160.393 122.061C160.736 112.515 153.939 101.988 149.055 94.5521H144.54C148.344 99.4356 162.945 118.601 154.552 128.172C147.411 136.319 122.969 132.123 104.81 124.221C87.2639 117.865 64.8345 101.939 57.2517 94.5767" fill="white"/>
</g>
<defs>
<clipPath id="clip0_462_3012">
<rect width="160" height="160" fill="white"/>
</clipPath>
</defs>
</svg>
