<svg width="112" height="134" viewBox="0 0 112 134" fill="none" xmlns="http://www.w3.org/2000/svg">
<path d="M66.4159 133.88C54.8959 133.88 44.0959 131.56 34.0159 126.92C24.0959 122.12 16.0959 114.92 10.0159 105.32C3.93594 95.56 0.895938 83.24 0.895938 68.36C0.895938 53.8 4.09594 41.48 10.4959 31.4C16.8959 21.32 25.2959 13.64 35.6959 8.35999C46.0959 3.07999 57.1359 0.439993 68.8159 0.439993C77.2959 0.439993 85.2159 2.12 92.5759 5.48C100.096 8.83999 106.336 12.92 111.296 17.72L89.2159 42.2C85.8559 39.48 82.6559 37.48 79.6159 36.2C76.7359 34.76 73.2959 34.04 69.2959 34.04C62.4159 34.04 56.2559 36.92 50.8159 42.68C45.3759 48.44 42.6559 56.52 42.6559 66.92C42.6559 78.12 44.9759 86.52 49.6159 92.12C54.4159 97.56 60.6559 100.28 68.3359 100.28C73.1359 100.28 77.2959 99.4 80.8159 97.64C84.4959 95.72 87.6159 93.56 90.1759 91.16L112.256 115.16C106.336 121.56 99.3759 126.28 91.3759 129.32C83.3759 132.36 75.0559 133.88 66.4159 133.88Z" fill="white"/>
</svg>
