<svg width="24" height="25" viewBox="0 0 24 25" fill="none" xmlns="http://www.w3.org/2000/svg">
<path d="M2.99707 5.14404V4.39404C2.79816 4.39404 2.60739 4.47306 2.46674 4.61371C2.32609 4.75437 2.24707 4.94513 2.24707 5.14404H2.99707ZM20.9971 5.14404H21.7471C21.7471 4.94513 21.6681 4.75437 21.5274 4.61371C21.3867 4.47306 21.196 4.39404 20.9971 4.39404V5.14404ZM2.99707 5.89404H20.9971V4.39404H2.99707V5.89404ZM20.2471 5.14404V17.144H21.7471V5.14404H20.2471ZM18.9971 18.394H4.99707V19.894H18.9971V18.394ZM3.74707 17.144V5.14404H2.24707V17.144H3.74707ZM4.99707 18.394C4.30707 18.394 3.74707 17.834 3.74707 17.144H2.24707C2.24707 17.8734 2.5368 18.5729 3.05253 19.0886C3.56825 19.6043 4.26772 19.894 4.99707 19.894V18.394ZM20.2471 17.144C20.2471 17.834 19.6871 18.394 18.9971 18.394V19.894C19.7264 19.894 20.4259 19.6043 20.9416 19.0886C21.4573 18.5729 21.7471 17.8734 21.7471 17.144H20.2471Z" fill="white"/>
<path d="M2.99707 5.14404L11.9971 14.144L20.9971 5.14404" stroke="white" stroke-width="1.5" stroke-linecap="round" stroke-linejoin="round"/>
</svg>
