<svg width="24" height="25" viewBox="0 0 24 25" fill="none" xmlns="http://www.w3.org/2000/svg">
<path fill-rule="evenodd" clip-rule="evenodd" d="M11.9971 2.14404C9.28107 2.14404 8.94107 2.15604 7.87407 2.20404C6.81007 2.25304 6.08307 2.42204 5.44707 2.66904C4.77956 2.91989 4.17482 3.31337 3.67507 3.82204C3.16643 4.32182 2.77294 4.92654 2.52207 5.59404C2.27507 6.23004 2.10607 6.95704 2.05707 8.02104C2.00807 9.08804 1.99707 9.42804 1.99707 12.144C1.99707 14.86 2.00807 15.2 2.05707 16.267C2.10607 17.331 2.27507 18.058 2.52207 18.694C2.77297 19.3615 3.16645 19.9662 3.67507 20.466C4.17486 20.9747 4.77959 21.3681 5.44707 21.619C6.08307 21.866 6.81007 22.035 7.87407 22.084C8.94107 22.132 9.28107 22.144 11.9971 22.144C14.7131 22.144 15.0531 22.132 16.1201 22.084C17.1841 22.035 17.9111 21.866 18.5471 21.619C19.2146 21.3682 19.8193 20.9747 20.3191 20.466C20.8277 19.9663 21.2212 19.3615 21.4721 18.694C21.7191 18.058 21.8881 17.331 21.9371 16.267C21.9851 15.2 21.9971 14.86 21.9971 12.144C21.9971 9.42804 21.9851 9.08804 21.9371 8.02104C21.8881 6.95704 21.7191 6.23004 21.4721 5.59404C21.2212 4.92654 20.8277 4.32182 20.3191 3.82204C19.8193 3.31337 19.2146 2.91989 18.5471 2.66904C17.9111 2.42204 17.1841 2.25304 16.1201 2.20404C15.0531 2.15604 14.7131 2.14404 11.9971 2.14404ZM11.9971 3.94604C14.6671 3.94604 14.9831 3.95604 16.0371 4.00404C17.0131 4.04904 17.5421 4.21104 17.8951 4.34804C18.3611 4.53004 18.6951 4.74704 19.0451 5.09604C19.3951 5.44604 19.6111 5.78004 19.7931 6.24604C19.9291 6.59904 20.0931 7.12804 20.1371 8.10304C20.1851 9.15804 20.1951 9.47304 20.1951 12.144C20.1951 14.814 20.1851 15.13 20.1371 16.184C20.0921 17.16 19.9291 17.689 19.7931 18.042C19.6327 18.4764 19.3772 18.8694 19.0451 19.192C18.6951 19.542 18.3611 19.758 17.8951 19.94C17.5421 20.076 17.0131 20.24 16.0381 20.284C14.9841 20.332 14.6681 20.342 11.9971 20.342C9.32707 20.342 9.01007 20.332 7.95707 20.284C6.98107 20.239 6.45207 20.076 6.09907 19.94C5.66466 19.7798 5.27169 19.5242 4.94907 19.192C4.61693 18.8694 4.36133 18.4765 4.20107 18.042C4.06407 17.689 3.90107 17.16 3.85707 16.185C3.80907 15.13 3.79907 14.815 3.79907 12.144C3.79907 9.47404 3.80907 9.15804 3.85707 8.10404C3.90207 7.12804 4.06407 6.59904 4.20107 6.24604C4.38307 5.78004 4.60007 5.44604 4.94907 5.09604C5.29907 4.74604 5.63307 4.53004 6.09907 4.34804C6.45207 4.21104 6.98107 4.04804 7.95607 4.00404C9.01107 3.95604 9.32607 3.94604 11.9971 3.94604ZM11.9971 15.477C11.1131 15.477 10.2653 15.1259 9.64028 14.5008C9.01522 13.8758 8.66407 13.028 8.66407 12.144C8.66407 11.2601 9.01522 10.4123 9.64028 9.78726C10.2653 9.1622 11.1131 8.81104 11.9971 8.81104C12.881 8.81104 13.7288 9.1622 14.3539 9.78726C14.9789 10.4123 15.3301 11.2601 15.3301 12.144C15.3301 13.028 14.9789 13.8758 14.3539 14.5008C13.7288 15.1259 12.881 15.477 11.9971 15.477ZM11.9971 7.00904C11.3227 7.00904 10.655 7.14186 10.032 7.39992C9.40898 7.65798 8.84291 8.03622 8.36608 8.51305C7.88925 8.98988 7.51101 9.55596 7.25295 10.179C6.99489 10.802 6.86207 11.4697 6.86207 12.144C6.86207 12.8184 6.99489 13.4861 7.25295 14.1091C7.51101 14.7321 7.88925 15.2982 8.36608 15.775C8.84291 16.2519 9.40898 16.6301 10.032 16.8882C10.655 17.1462 11.3227 17.279 11.9971 17.279C13.359 17.279 14.6651 16.738 15.6281 15.775C16.5911 14.812 17.1321 13.5059 17.1321 12.144C17.1321 10.7822 16.5911 9.47605 15.6281 8.51305C14.6651 7.55005 13.359 7.00904 11.9971 7.00904ZM18.5351 6.80604C18.5351 6.96363 18.504 7.11967 18.4437 7.26526C18.3834 7.41085 18.295 7.54314 18.1836 7.65457C18.0722 7.766 17.9399 7.85439 17.7943 7.9147C17.6487 7.975 17.4927 8.00604 17.3351 8.00604C17.1775 8.00604 17.0214 7.975 16.8759 7.9147C16.7303 7.85439 16.598 7.766 16.4865 7.65457C16.3751 7.54314 16.2867 7.41085 16.2264 7.26526C16.1661 7.11967 16.1351 6.96363 16.1351 6.80604C16.1351 6.48778 16.2615 6.18256 16.4865 5.95751C16.7116 5.73247 17.0168 5.60604 17.3351 5.60604C17.6533 5.60604 17.9586 5.73247 18.1836 5.95751C18.4086 6.18256 18.5351 6.48778 18.5351 6.80604Z" fill="white"/>
</svg>
