<svg width="16" height="17" viewBox="0 0 16 17" fill="none" xmlns="http://www.w3.org/2000/svg">
<g clip-path="url(#clip0_1_12135)">
<path fill-rule="evenodd" clip-rule="evenodd" d="M4.83008 6.81071C4.83008 5.97086 5.16371 5.1654 5.75757 4.57154C6.35144 3.97767 7.15689 3.64404 7.99674 3.64404C8.8366 3.64404 9.64205 3.97767 10.2359 4.57154C10.8298 5.1654 11.1634 5.97086 11.1634 6.81071C11.1634 7.65056 10.8298 8.45602 10.2359 9.04988C9.64205 9.64375 8.8366 9.97738 7.99674 9.97738C7.15689 9.97738 6.35144 9.64375 5.75757 9.04988C5.16371 8.45602 4.83008 7.65056 4.83008 6.81071ZM7.99674 4.64404C7.42211 4.64404 6.87101 4.87232 6.46468 5.27864C6.05835 5.68497 5.83008 6.23607 5.83008 6.81071C5.83008 7.38535 6.05835 7.93645 6.46468 8.34277C6.87101 8.7491 7.42211 8.97738 7.99674 8.97738C8.57138 8.97738 9.12248 8.7491 9.52881 8.34277C9.93514 7.93645 10.1634 7.38535 10.1634 6.81071C10.1634 6.23607 9.93514 5.68497 9.52881 5.27864C9.12248 4.87232 8.57138 4.64404 7.99674 4.64404Z" fill="white"/>
<path fill-rule="evenodd" clip-rule="evenodd" d="M2.34633 6.04887C2.46028 4.66674 3.08981 3.378 4.10994 2.43852C5.13006 1.49904 6.46618 0.977535 7.853 0.977539H8.141C9.52782 0.977535 10.8639 1.49904 11.8841 2.43852C12.9042 3.378 13.5337 4.66674 13.6477 6.04887C13.7745 7.58839 13.2989 9.11705 12.321 10.3129L9.12566 14.2202C8.98892 14.3874 8.81672 14.5222 8.62152 14.6147C8.42633 14.7072 8.21301 14.7552 7.997 14.7552C7.78098 14.7552 7.56766 14.7072 7.37247 14.6147C7.17727 14.5222 7.00508 14.3874 6.86833 14.2202L3.673 10.3129C2.69507 9.11708 2.21945 7.5884 2.34633 6.04887ZM7.853 1.97754C6.71732 1.97771 5.62322 2.40489 4.78788 3.17429C3.95253 3.94368 3.43702 4.99904 3.34366 6.13087C3.23806 7.41211 3.63385 8.68433 4.44766 9.67954L7.643 13.5875C7.68595 13.6401 7.74006 13.6825 7.80139 13.7116C7.86273 13.7407 7.92977 13.7558 7.99766 13.7558C8.06555 13.7558 8.13259 13.7407 8.19393 13.7116C8.25527 13.6825 8.30937 13.6401 8.35233 13.5875L11.5477 9.67954C12.361 8.68413 12.7563 7.41193 12.6503 6.13087C12.557 4.99892 12.0414 3.94347 11.2059 3.17406C10.3704 2.40465 9.27612 1.97754 8.14033 1.97754H7.85233H7.853Z" fill="white"/>
</g>
<defs>
<clipPath id="clip0_1_12135">
<rect width="16" height="16" fill="white" transform="translate(-0.00292969 0.144043)"/>
</clipPath>
</defs>
</svg>
