<svg width="80" height="80" viewBox="0 0 80 80" fill="none" xmlns="http://www.w3.org/2000/svg">
<path d="M51.8534 48.4903L50.0401 46.7703L51.8534 48.4936V48.4903ZM63.3401 67.5136L61.5234 65.7903L63.3367 67.5136H63.3401ZM58.9201 69.8803L59.1667 72.3636L58.9201 69.8769V69.8803ZM12.5067 23.0836C12.489 22.7557 12.4069 22.4346 12.265 22.1384C12.1232 21.8423 11.9244 21.577 11.68 21.3577C11.4357 21.1384 11.1505 20.9694 10.8408 20.8603C10.5311 20.7512 10.2029 20.7042 9.87508 20.7219C9.54721 20.7396 9.22605 20.8218 8.92992 20.9636C8.6338 21.1055 8.36851 21.3043 8.14921 21.5486C7.92991 21.793 7.76089 22.0782 7.6518 22.3879C7.54271 22.6976 7.49568 23.0257 7.51341 23.3536L12.5067 23.0836ZM15.7267 10.3069C15.289 10.7907 15.0577 11.4265 15.0822 12.0785C15.1068 12.7305 15.3853 13.3471 15.8583 13.7965C16.3313 14.246 16.9612 14.4928 17.6136 14.4841C18.266 14.4755 18.8892 14.2121 19.3501 13.7503L15.7267 10.3069ZM35.5467 66.0403C35.8247 66.2194 36.1355 66.3416 36.4611 66.3998C36.7866 66.458 37.1205 66.4511 37.4433 66.3793C37.7662 66.3076 38.0716 66.1725 38.3418 65.9819C38.6121 65.7913 38.8419 65.549 39.0178 65.2689C39.1938 64.9889 39.3124 64.6768 39.3669 64.3505C39.4214 64.0243 39.4106 63.6906 39.3351 63.3686C39.2597 63.0466 39.1211 62.7427 38.9274 62.4747C38.7337 62.2066 38.4888 61.9796 38.2067 61.8069L35.5467 66.0403ZM50.3767 66.8603C49.7274 66.7246 49.0508 66.8524 48.4956 67.2155C47.9405 67.5787 47.5524 68.1476 47.4167 68.7969C47.281 69.4463 47.4088 70.1229 47.772 70.678C48.1352 71.2331 48.7041 71.6212 49.3534 71.7569L50.3767 66.8603ZM52.1501 51.8136L53.6667 50.2136L50.0401 46.7703L48.5234 48.3703L52.1501 51.8136ZM58.6634 49.5403L65.0301 53.2069L67.5234 48.8736L61.1567 45.2069L58.6634 49.5403ZM66.2601 60.8069L61.5234 65.7903L65.1501 69.2369L69.8834 64.2503L66.2601 60.8069ZM27.8634 53.1969C14.9434 39.5936 12.7767 28.1169 12.5067 23.0836L7.51341 23.3536C7.84675 29.5203 10.4601 42.1336 24.2401 56.6403L27.8634 53.1969ZM32.4501 31.0736L33.4034 30.0669L29.7801 26.6236L28.8234 27.6303L32.4501 31.0736ZM34.1567 17.5336L29.9534 11.5903L25.8701 14.4769L30.0701 20.4203L34.1567 17.5336ZM30.6334 29.3503C30.0335 28.7721 29.4279 28.1999 28.8167 27.6336L28.8101 27.6403L28.8001 27.6503C28.7409 27.7115 28.6853 27.776 28.6334 27.8436C28.3067 28.2761 28.0481 28.7561 27.8667 29.2669C27.5401 30.1836 27.3667 31.3969 27.5867 32.9103C28.0201 35.8836 29.9701 39.8803 35.0601 45.2436L38.6867 41.7969C33.9267 36.7869 32.7534 33.7036 32.5334 32.1836C32.4267 31.4503 32.5334 31.0669 32.5767 30.9436L32.6034 30.8803C32.5761 30.9241 32.5449 30.9654 32.5101 31.0036C32.4905 31.0262 32.4705 31.0518 32.4501 31.0736L30.6334 29.3503ZM35.0601 45.2403C40.1367 50.5869 43.9701 52.6869 46.8934 53.1636C48.3967 53.4069 49.6134 53.2103 50.5334 52.8469C51.0431 52.6468 51.5171 52.3654 51.9367 52.0136L52.0567 51.9003L52.1034 51.8536C52.1113 51.847 52.119 51.8404 52.1267 51.8336L52.1367 51.8236L52.1401 51.8169C52.1401 51.8169 52.1467 51.8136 50.3334 50.0903C48.5201 48.3703 48.5234 48.3669 48.5234 48.3636L48.5301 48.3603L48.5367 48.3503L48.5567 48.3336C48.6071 48.2849 48.6594 48.2382 48.7134 48.1936C48.7434 48.1736 48.7401 48.1803 48.6967 48.1969C48.6301 48.2236 48.3301 48.3303 47.6967 48.2269C46.3567 48.0069 43.4634 46.8269 38.6867 41.7969L35.0601 45.2403ZM29.9534 11.5903C26.5734 6.81025 19.8134 6.00025 15.7267 10.3069L19.3501 13.7503C21.0934 11.9169 24.1634 12.0603 25.8701 14.4769L29.9534 11.5903ZM61.5234 65.7903C60.5934 66.7703 59.6234 67.2969 58.6767 67.3903L59.1667 72.3636C61.6567 72.1203 63.6734 70.7936 65.1501 69.2369L61.5234 65.7936V65.7903ZM33.4034 30.0669C36.6301 26.6703 36.8567 21.3569 34.1567 17.5336L30.0734 20.4203C31.4801 22.4103 31.2634 25.0636 29.7801 26.6236L33.4034 30.0669ZM65.0301 53.2069C67.7667 54.7836 68.3034 58.6569 66.2601 60.8069L69.8834 64.2503C74.2334 59.6703 72.9634 52.0069 67.5234 48.8736L65.0301 53.2069ZM53.6667 50.2136C54.9501 48.8603 56.9534 48.5569 58.6634 49.5403L61.1567 45.2069C57.4934 43.1003 52.9567 43.7036 50.0401 46.7703L53.6667 50.2136ZM38.2067 61.8069C34.9301 59.7469 31.4401 56.9603 27.8634 53.1969L24.2401 56.6403C28.0867 60.6903 31.8967 63.7469 35.5467 66.0403L38.2067 61.8069ZM58.6734 67.3903C55.897 67.6341 53.0996 67.4554 50.3767 66.8603L49.3534 71.7569C52.575 72.4547 55.8838 72.6593 59.1667 72.3636L58.6767 67.3903H58.6734Z" fill="white"/>
</svg>
