<svg width="80" height="80" viewBox="0 0 80 80" fill="none" xmlns="http://www.w3.org/2000/svg">
<path fill-rule="evenodd" clip-rule="evenodd" d="M38.4416 8.79736C19.8526 8.79736 4.78516 25.1164 4.78516 29.19C4.78516 33.2636 19.8526 49.5826 38.4416 49.5826C57.0306 49.5826 72.098 33.2636 72.098 29.19C72.098 25.1164 57.0306 8.79736 38.4416 8.79736ZM38.4416 12.8833C47.0428 12.8833 54.3189 16.8096 58.9201 20.098C64.3557 23.9998 67.1655 27.7667 67.8895 29.2023C67.1655 30.6379 64.368 34.4047 58.9201 38.3066C54.3312 41.5949 47.0428 45.5213 38.4416 45.5213C29.8404 45.5213 22.5643 41.5949 17.9631 38.3066C12.5152 34.4047 9.71767 30.6379 8.99375 29.2023C9.71767 27.7667 12.5152 23.9998 17.9631 20.098C22.5643 16.7974 29.8404 12.8833 38.4416 12.8833Z" fill="#D4DFFF"/>
<path fill-rule="evenodd" clip-rule="evenodd" d="M27.1412 35.2762C26.135 33.4112 25.6074 31.313 25.6074 29.1903C25.6074 22.221 31.1534 16.5523 38.0614 16.356V23.5339C35.1044 23.7302 32.7731 26.1842 32.7731 29.1903C32.7731 29.8529 32.8835 30.5032 33.1166 31.129C33.1902 31.3253 33.2639 31.5093 33.3498 31.6811L27.1412 35.2762Z" fill="#D4DFFF"/>
<path fill-rule="evenodd" clip-rule="evenodd" d="M38.834 16.356C41.5825 16.4418 44.245 17.4112 46.4045 19.1167L41.791 24.6136C40.9321 23.9879 39.9015 23.6075 38.834 23.5339V16.356Z" fill="#D4DFFF"/>
<path fill-rule="evenodd" clip-rule="evenodd" d="M46.9934 19.6074C49.6314 21.951 51.1774 25.2884 51.2879 28.8099H44.1099C44.0118 27.3988 43.3983 26.0859 42.3799 25.1044L46.9934 19.6074Z" fill="#D4DFFF"/>
<path fill-rule="evenodd" clip-rule="evenodd" d="M51.2884 29.583C51.1534 33.8898 48.8712 37.8529 45.2025 40.1229L41.6074 33.902C43.0675 32.9204 43.9878 31.3253 44.0982 29.583H51.2884Z" fill="#D4DFFF"/>
<path fill-rule="evenodd" clip-rule="evenodd" d="M44.5403 40.5032C42.6753 41.5093 40.5771 42.0369 38.4544 42.0369C34.0004 42.0369 29.8655 39.7302 27.5342 35.951L33.755 32.356C34.798 33.902 36.5403 34.859 38.4667 34.859C39.3379 34.859 40.1845 34.6627 40.9575 34.2823L44.5403 40.5032Z" fill="#D4DFFF"/>
<path d="M71.7423 61.7793H73.9632L71.3865 65.767L74.1841 70.0492H71.9387L70.1718 67.3253L68.4172 70.0492H66.1963L68.9816 65.8161L66.3804 61.7793H68.589L70.1595 64.2333L71.7423 61.7793ZM63.2147 61.7793H65.0675V70.0492H63.2147V61.7793ZM57.8037 65.8161C58.4295 65.8161 58.8712 65.7179 59.092 65.5093C59.3252 65.3007 59.4356 64.9817 59.4356 64.5277C59.4356 64.086 59.3129 63.7793 59.0798 63.6075C58.8466 63.4357 58.4295 63.3621 57.8405 63.3621H56.454V65.8161H57.8037ZM61.3129 64.5277C61.3129 65.8529 60.7853 66.7118 59.7423 67.0921L61.8405 70.0492H59.5706L57.7301 67.4112H56.454V70.0492H54.6012V61.7793H57.7423C59.0307 61.7793 59.9509 62.0001 60.4908 62.4296C61.0429 62.8713 61.3129 63.5584 61.3129 64.5277ZM50.908 63.3744V70.0492H49.0552V63.3744H46.7117V61.7793H53.2515V63.3744H50.908ZM45.6319 61.7793V63.4234H41.5092V65.129H45.2147V66.6995H41.5092V68.4173H45.7669V70.0492H39.6687V61.7793H45.6319ZM35.7791 64.8467L33.546 69.3744H32.4417L30.2209 64.8467V70.0492H28.3681V61.7793H30.8712L33.0061 66.3191L35.1534 61.7793H37.6442V70.0492H35.8037V64.8467H35.7791ZM26.6012 61.7793V63.4234H22.4785V65.129H26.1841V66.6995H22.4785V68.4173H26.7239V70.0492H20.6258V61.7793H26.6012ZM18.8589 61.7793V63.4234H14.7362V65.129H18.4417V66.6995H14.7362V68.4173H18.9816V70.0492H12.8834V61.7793H18.8589ZM8.00001 63.2148C7.69326 63.2148 7.44786 63.2885 7.27608 63.4357C7.1043 63.5829 7.00614 63.7793 7.00614 64.0124C7.00614 64.2578 7.11657 64.4418 7.33743 64.5891C7.55829 64.7363 8.06136 64.8958 8.84663 65.0921C9.63191 65.2885 10.2454 65.5707 10.6749 65.9633C11.1043 66.3559 11.3252 66.9204 11.3252 67.6566C11.3252 68.3928 11.043 69.0063 10.4908 69.4602C9.93866 69.9265 9.20246 70.1474 8.29448 70.1474C6.9816 70.1474 5.80369 69.6566 4.76074 68.6872L5.86504 67.3375C6.76074 68.1228 7.58283 68.5155 8.34356 68.5155C8.68712 68.5155 8.94479 68.4418 9.14111 68.2946C9.33743 68.1474 9.43559 67.951 9.43559 67.7056C9.43559 67.4602 9.33743 67.2639 9.12884 67.1167C8.92025 66.9694 8.51534 66.8222 7.91412 66.675C6.95706 66.4418 6.2454 66.1474 5.80369 65.7793C5.36197 65.4112 5.12884 64.8345 5.12884 64.0492C5.12884 63.2639 5.41105 62.6627 5.97547 62.2333C6.53988 61.8038 7.23927 61.5952 8.0859 61.5952C8.63804 61.5952 9.19019 61.6934 9.74234 61.8774C10.2945 62.0615 10.773 62.3314 11.1902 62.6872L10.2577 64.0369C9.50921 63.4848 8.77301 63.2148 8.00001 63.2148Z" fill="#D4DFFF"/>
</svg>
