<svg width="80" height="80" viewBox="0 0 80 80" fill="none" xmlns="http://www.w3.org/2000/svg">
<path d="M30.6989 36.6996H32.1468C32.8216 36.6996 33.2756 36.81 33.5824 37.0554C33.9014 37.3131 34.11 37.767 34.11 38.2456C34.11 38.8223 33.9382 39.1658 33.4719 39.4358C34.2572 39.6075 34.6498 40.1106 34.6498 40.8959C34.6498 41.9266 33.9014 42.5523 32.6744 42.5523H30.6989V36.6996ZM32.159 39.1413C32.748 39.1413 33.0425 38.8836 33.0425 38.3805C33.0425 37.8897 32.748 37.6198 32.1713 37.6198H31.8278V39.1413H32.159ZM32.3308 41.6321C33.0916 41.6321 33.4719 41.3621 33.4719 40.8468C33.4719 40.2578 33.1161 40.0124 32.2695 40.0124H31.84V41.6321H32.3308ZM35.5455 38.7609V42.5646H36.613V40.7364C36.613 39.9634 36.9075 39.5953 37.5333 39.5953C37.7296 39.5953 37.8523 39.6321 38.0363 39.7302L38.1836 38.7364C37.9873 38.6628 37.8891 38.6382 37.7173 38.6382C37.2388 38.6382 36.883 38.8591 36.613 39.3376V38.7609H35.5455ZM39.8646 37.1535C39.8646 37.5094 39.5701 37.7916 39.2265 37.7916C38.8707 37.7916 38.5885 37.4971 38.5885 37.1535C38.5885 36.7977 38.883 36.5155 39.2265 36.5155C39.5824 36.5032 39.8646 36.7855 39.8646 37.1535ZM39.7541 42.5523H38.6866V38.7486H39.7541V42.5523ZM44.6621 35.9879V42.5646H43.5946V42.0738C43.2511 42.491 42.8707 42.6873 42.3554 42.6873C41.2756 42.6873 40.4781 41.8161 40.4781 40.6505C40.4781 39.5094 41.2879 38.6382 42.3431 38.6382C42.8462 38.6382 43.2265 38.8223 43.5946 39.2517V35.9879H44.6621ZM41.5824 40.6505C41.5824 41.2394 42.0609 41.718 42.6498 41.718C43.2388 41.718 43.7173 41.2394 43.7173 40.6505C43.7173 40.0493 43.2388 39.583 42.6498 39.583C42.0609 39.5953 41.5824 40.0615 41.5824 40.6505ZM49.6069 42.4174C49.6069 43.2026 49.5087 43.5462 49.1774 43.9266C48.8093 44.3683 48.2449 44.5891 47.5701 44.5891C46.4781 44.5891 45.6437 43.9266 45.5455 42.994H46.6989C46.8093 43.4358 47.1161 43.6812 47.5946 43.6812C48.2081 43.6812 48.5394 43.3008 48.5394 42.6137V42.0493C48.159 42.491 47.7909 42.6873 47.2756 42.6873C46.1836 42.6873 45.4474 41.8652 45.4474 40.6873C45.4474 39.5339 46.2449 38.6382 47.2756 38.6382C47.8278 38.6382 48.1713 38.81 48.5394 39.2517V38.7609H49.6069V42.4174ZM46.5394 40.6505C46.5394 41.2394 47.0179 41.718 47.6069 41.718C48.1958 41.718 48.6744 41.2394 48.6744 40.6505C48.6744 40.0493 48.1958 39.583 47.6069 39.583C47.0179 39.5953 46.5394 40.0615 46.5394 40.6505ZM51.4719 40.8223C51.4965 41.4848 51.8278 41.8407 52.4167 41.8407C52.8093 41.8407 53.0793 41.6934 53.3124 41.3376L54.294 41.4971C53.975 42.2701 53.3247 42.6873 52.4412 42.6873C51.1897 42.6873 50.3922 41.902 50.3922 40.6628C50.3922 39.4358 51.1774 38.6382 52.3799 38.6382C53.5824 38.6382 54.3308 39.4235 54.3308 40.675V40.8345H51.4719V40.8223ZM53.3124 40.1474C53.202 39.6566 52.883 39.3867 52.4167 39.3867C51.9382 39.3867 51.6192 39.6566 51.521 40.1474H53.3124ZM55.6437 38.7609H54.4535L56.4044 42.6382H56.8952L57.9014 40.3315L58.932 42.6382H59.4106L61.3738 38.7609H60.1959L59.1774 40.994L58.1468 38.6628H57.6928L56.6621 40.9572L55.6437 38.7609ZM65.6805 38.7609V42.5646H64.613V42.0738C64.2695 42.491 63.8891 42.6873 63.3738 42.6873C62.294 42.6873 61.4965 41.8161 61.4965 40.6505C61.4965 39.5094 62.3063 38.6382 63.3615 38.6382C63.8768 38.6382 64.2449 38.8223 64.613 39.2517V38.7609H65.6805ZM62.6008 40.6505C62.6008 41.2394 63.0793 41.718 63.6682 41.718C64.2572 41.718 64.7357 41.2394 64.7357 40.6505C64.7357 40.0493 64.2572 39.583 63.6682 39.583C63.067 39.5953 62.6008 40.0615 62.6008 40.6505ZM67.8277 39.6812H68.5885V38.7609H67.8277V37.4603H66.7603V38.7609H66.3431V39.6812H66.7603V42.5646H67.8277V39.6812ZM70.0118 40.8223C70.0363 41.4848 70.3676 41.8407 70.9566 41.8407C71.3492 41.8407 71.6192 41.6934 71.8523 41.3376L72.8339 41.4971C72.5149 42.2701 71.8646 42.6873 70.9811 42.6873C69.7296 42.6873 68.932 41.902 68.932 40.6628C68.932 39.4358 69.7173 38.6382 70.9198 38.6382C72.1222 38.6382 72.8707 39.4235 72.8707 40.675V40.8345H70.0118V40.8223ZM71.84 40.1474C71.7296 39.6566 71.4106 39.3867 70.9443 39.3867C70.4658 39.3867 70.1468 39.6566 70.0486 40.1474H71.84ZM73.6437 38.7609V42.5646H74.7112V40.7364C74.7112 39.9634 75.0057 39.5953 75.6314 39.5953C75.8278 39.5953 75.9504 39.6321 76.1345 39.7302L76.2817 38.7364C76.0854 38.6628 75.9873 38.6382 75.8155 38.6382C75.337 38.6382 74.9811 38.8591 74.7112 39.3376V38.7609H73.6437ZM23.9995 37.2149C24.5639 37.0063 25.3247 36.9818 25.8891 36.9818C26.3431 36.9818 26.748 37.264 27.0057 37.6075V36.2578C26.748 35.9143 26.2817 35.7057 25.8032 35.6689C25.1284 35.6689 24.6008 35.7057 23.9995 35.902V37.2149ZM23.9995 39.0799C24.5639 38.8713 25.3247 38.8468 25.8891 38.8468C26.3431 38.8468 26.748 39.129 27.0057 39.4726V38.1229C26.748 37.7793 26.2817 37.5707 25.8032 37.5339C25.1284 37.5339 24.6008 37.5707 23.9995 37.767V39.0799ZM23.9995 40.9327C24.5639 40.7241 25.3247 40.6996 25.8891 40.6996C26.3431 40.6996 26.748 40.9818 27.0057 41.3253V39.9756C26.748 39.6321 26.2817 39.4235 25.8032 39.3867C25.1284 39.3867 24.6008 39.4235 23.9995 39.6198V40.9327ZM23.9995 42.7732C24.5639 42.5646 25.3247 42.5401 25.8891 42.5401C26.3431 42.5401 26.748 42.8223 27.0057 43.1658V41.8161C26.748 41.4726 26.2817 41.264 25.8032 41.2272C25.1284 41.2272 24.6008 41.264 23.9995 41.4603V42.7732ZM23.9995 44.6014C24.5639 44.3928 25.3247 44.3683 25.8891 44.3683C26.3431 44.3683 26.748 44.6505 27.0057 44.994V43.6444C26.748 43.3008 26.2817 43.0922 25.8032 43.0554C25.1284 43.0554 24.6008 43.0922 23.9995 43.2885V44.6014ZM9.81548 28.7732L9.16518 27.4112L6.20812 34.7241L6.93205 35.1413L9.81548 28.7732ZM7.18972 45.8897L7.21426 35.767L4.67438 34.5155L5.60689 45.8529L7.18972 45.8897ZM23.975 35.3989C24.3676 35.3008 24.7357 35.1536 25.4228 35.1904L9.16518 26.4419L10.2081 28.6628L23.975 35.3989ZM10.2204 50.4051C11.8768 50.1351 13.9505 47.3621 17.4842 46.9204L17.5087 35.583L23.4106 35.5953L10.2081 29.2885L10.2204 50.4051ZM4.63757 39.7425L2.66211 38.6628L3.93818 44.4542H5.01794L4.63757 39.7425Z" fill="#D4DFFF"/>
<path d="M32.209 33.7791H31.5465V28.5275H30.1354V27.9263H33.6323V28.5275H32.209V33.7791ZM34.3317 27.3742V33.7668H34.9575V31.9508C34.9575 31.0061 35.2274 30.6134 35.8777 30.6134C36.4176 30.6134 36.6385 30.8834 36.6385 31.5582V33.7668H37.2642V31.5091C37.2642 31.0306 37.2029 30.7607 37.0557 30.5398C36.8471 30.233 36.4544 30.0367 36.025 30.0367C35.5833 30.0367 35.2888 30.1717 34.9698 30.5398V27.3496H34.3317V27.3742ZM41.6446 32.0858V31.9631C41.6446 30.822 40.9575 30.0613 39.9146 30.0613C38.8839 30.0613 38.1477 30.8465 38.1477 31.9508C38.1477 33.0919 38.8716 33.8772 39.9268 33.8772C40.6753 33.8772 41.2029 33.5582 41.6078 32.8465L41.0802 32.5521C40.7244 33.1165 40.4422 33.3128 39.9514 33.3128C39.2888 33.3128 38.8225 32.8343 38.798 32.0858H41.6446ZM38.8471 31.5582C38.933 31.0183 39.3869 30.6134 39.9146 30.6134C40.4544 30.6134 40.8716 30.9815 40.982 31.5582H38.8471ZM31.4483 47.8649V45.4723H30.7857V51.3251H31.4483V48.4662H34.4299V51.3251H35.0925V45.4723H34.4299V47.8649H31.4483ZM39.2152 47.6932V48.2085C38.8593 47.7913 38.4667 47.6073 37.9514 47.6073C36.9452 47.6073 36.209 48.4048 36.209 49.5091C36.209 50.6134 36.9575 51.4355 37.9514 51.4355C38.479 51.4355 38.8593 51.2515 39.2152 50.822V51.3251H39.8409V47.6809H39.2152V47.6932ZM36.8348 49.4846C36.8348 48.7484 37.3501 48.1717 38.025 48.1717C38.7489 48.1717 39.252 48.7116 39.252 49.4846C39.252 50.3067 38.7612 50.8588 38.0373 50.8588C37.3379 50.8711 36.8348 50.2821 36.8348 49.4846ZM41.571 44.9324H40.9452V51.3251H41.571V44.9324ZM43.2888 44.9324H42.663V51.3251H43.2888V44.9324ZM18.1968 48.687C18.8839 48.5766 20.4667 48.5889 21.4974 49.6932C21.6569 49.8281 21.7919 49.6564 21.7305 49.5582C20.7121 47.9999 18.7366 47.6073 17.8164 47.7054C13.9146 48.1472 12.1968 51.3251 9.09247 51.5214C7.84093 51.595 6.84707 51.5827 6.06179 50.9324C5.86547 50.7975 5.69369 50.8588 5.86547 51.0306C6.82253 52.1472 8.40535 52.3557 9.32559 52.3557C12.6876 52.4171 14.209 49.2392 18.1968 48.687Z" fill="#D4DFFF"/>
</svg>
