<svg width="80" height="80" viewBox="0 0 80 80" fill="none" xmlns="http://www.w3.org/2000/svg">
<path d="M71.779 41.9997L70.5765 40.3187C70.1839 40.7604 69.6563 41.0795 69.006 41.0795C68.1839 41.0795 67.9998 40.3678 67.9998 38.6377C67.9998 36.7482 68.3557 36.3801 69.0305 36.3801C69.4232 36.3801 69.9017 36.6623 70.233 37.0058L71.5459 35.2758C70.7115 34.5887 69.9876 34.2696 68.9324 34.2696C66.3802 34.2696 64.871 35.9629 64.871 38.8095C64.871 41.693 66.3557 43.1899 68.7238 43.1899C69.7667 43.2022 70.871 42.9077 71.779 41.9997ZM60.0121 37.7911H58.098C58.098 36.65 58.4906 36.2819 59.1041 36.2819C59.8035 36.2819 60.0489 36.8586 60.0121 37.7911ZM58.1103 39.6439H62.8465V38.9322C62.8587 36.0242 61.7422 34.2819 59.006 34.2819C56.6011 34.2819 55.1409 35.9874 55.1409 38.785C55.1409 41.5334 56.6379 43.2022 59.3495 43.2022C60.6133 43.2022 61.6686 42.8586 62.7974 41.9752L61.6931 40.331C60.9569 40.9077 60.1962 41.1899 59.46 41.1899C58.2821 41.2022 58.1103 40.1715 58.1103 39.6439ZM51.8526 31.9629L49.006 32.3923C48.9201 32.9568 48.9078 33.6561 48.9078 34.5028H48.2207V36.3801H48.9078V41.1653C48.9078 42.8095 49.9753 43.2267 51.5704 43.2267C52.2821 43.2267 53.006 43.0795 53.7299 42.7359L53.3863 41.0917C53.2023 41.1899 52.9201 41.2512 52.6624 41.2512C51.9385 41.2512 51.779 40.9936 51.779 39.8034V36.3801H52.9569L53.3373 34.5028H51.779C51.779 33.7052 51.7544 32.8709 51.8526 31.9629Z" fill="#D4DFFF"/>
<path d="M4.18429 40.9691L3.19043 43.1164H13.5708L12.5892 40.9568C12.6015 40.9691 4.18429 40.9691 4.18429 40.9691ZM11.264 38.0121L8.42969 31.7544L5.54626 38.0121H11.264Z" fill="#D4DFFF"/>
<path d="M37.2517 40.9691L36.2578 43.1164H46.6382L45.6566 40.9568C45.6689 40.9691 37.2517 40.9691 37.2517 40.9691ZM44.3314 38.0121L41.4971 31.7544L38.6136 38.0121H44.3314Z" fill="#D4DFFF"/>
<path d="M29.4356 45.0922C29.4356 45.0922 28.2945 45.0922 27.9632 45.0677C27.6319 45.0431 27.3129 45.0554 26.5645 44.7732C25.816 44.491 25.2148 43.8284 24.9694 43.5585C24.724 43.2763 23.3988 41.2026 23.3988 41.2026C22.8835 41.9634 22.1596 42.5891 21.3252 42.9818C21.5951 43.264 23.7424 46.2579 23.7424 46.2579C23.7424 46.2579 24.2823 47.1413 25.4234 47.6075C26.3927 48.0615 27.1166 48.0983 27.4234 48.1106C27.6074 48.1229 29.4234 48.1106 29.4234 48.1106V45.0922H29.4356Z" fill="#D4DFFF"/>
<path d="M13.8896 37.853V37.3622C13.9387 34.5278 16.2455 32.2456 19.0921 32.2456C21.9387 32.2456 24.2577 34.626 24.2946 37.4603V38.2824C24.2946 39.3622 23.9633 40.3683 23.3989 41.2027L23.2025 41.0063C23.2025 41.0063 22.0614 39.6444 20.5031 38.6996C18.9694 37.7548 17.4234 37.8775 17.4234 37.8775L13.8896 37.853ZM21.3252 42.9818C20.6504 43.3008 19.8896 43.4849 19.0921 43.4849C17.1412 43.4849 15.4234 42.4051 14.54 40.81C15.4357 40.7978 16.8222 40.7978 17.1535 40.81C17.6565 40.8346 18.4663 40.9327 19.4847 41.4849C20.2087 41.8775 20.8958 42.5401 21.3252 42.9818Z" fill="#D4DFFF"/>
<path d="M26.2207 32.7485V38.1228V39.7424C26.2207 41.6811 27.6931 42.859 29.3863 43.3007L29.3986 32.7485H26.2207ZM35.3495 38.2087V32.7485H32.0735C32.0612 34.1473 32.0612 39.4479 32.0735 43.3866C33.9753 43.0185 35.3618 41.816 35.3618 39.7301V38.2087H35.3495Z" fill="#D4DFFF"/>
<path d="M74.9085 32.8713C75.2152 32.8713 75.3256 32.9818 75.3256 33.1903C75.3256 33.3008 75.2888 33.3867 75.2398 33.4357C75.1784 33.4971 75.0803 33.5216 74.9085 33.5216H74.7244V32.8591H74.9085V32.8713ZM75.7919 34.6627L75.4852 34.1719C75.3747 34.0002 75.2398 33.7916 75.1661 33.7548C75.4729 33.7548 75.6815 33.5094 75.6815 33.1903C75.6815 32.8713 75.4729 32.6014 75.0066 32.6014H74.3809V34.675H74.7122V33.7793C74.7858 33.7793 74.8103 33.8038 74.8471 33.8406C74.9576 33.9511 75.0557 34.0983 75.2029 34.356L75.387 34.675H75.7919V34.6627ZM76.4545 33.6321C76.4545 34.5032 75.7919 35.1781 74.9821 35.1781C74.16 35.1781 73.5097 34.491 73.5097 33.6321C73.5097 32.7609 74.16 32.086 74.9821 32.086C75.7919 32.086 76.4545 32.7609 76.4545 33.6321ZM76.8103 33.6321C76.8103 32.5891 75.976 31.7793 74.9698 31.7793C73.9637 31.7793 73.1416 32.5891 73.1416 33.6321C73.1416 34.675 73.9637 35.4848 74.9698 35.4848C75.976 35.4848 76.8103 34.675 76.8103 33.6321Z" fill="#D4DFFF"/>
<path d="M34.3066 48.0985L34.233 46.9574C34.2207 46.7734 34.2084 46.6261 34.2084 46.3807C34.1839 46.6261 34.1593 46.7611 34.1103 46.9206L33.7667 48.0985H33.1409L32.8465 46.9451C32.7974 46.7856 32.7728 46.6261 32.7483 46.3807C32.7483 46.6384 32.7483 46.7856 32.736 46.9697L32.6747 48.1108H31.9385L32.2207 45.2642H33.1164L33.3986 46.393C33.4354 46.5525 33.4722 46.712 33.4845 46.9329H33.4968C33.5213 46.712 33.5581 46.577 33.6072 46.3562L33.8894 45.2642H34.7606L35.0182 48.1108H34.3066V48.0985Z" fill="#D4DFFF"/>
<path d="M37.215 48.0981L37.0677 47.5459H36.3929L36.2334 48.0981H35.4727L36.3806 45.2515H37.1414L38.0003 48.0981H37.215ZM36.8101 46.4662C36.7855 46.3435 36.761 46.1717 36.761 46.0613C36.7487 46.1717 36.7365 46.319 36.6874 46.5153L36.5647 46.9938H36.9328L36.8101 46.4662Z" fill="#D4DFFF"/>
<path d="M39.3496 48.1474C38.9201 48.1474 38.5888 48.037 38.3066 47.8898L38.5643 47.3131C38.7606 47.4358 39.0796 47.5462 39.3619 47.5462C39.6441 47.5462 39.7668 47.4358 39.7668 47.2885C39.7668 47.1658 39.6809 47.1045 39.4846 47.0554L39.1533 46.9695C38.7361 46.8591 38.4662 46.6382 38.4662 46.1474C38.4662 45.583 38.9324 45.2026 39.5704 45.2026C39.9631 45.2026 40.3312 45.3131 40.5889 45.4848L40.233 46.0002C40.049 45.8775 39.7913 45.8039 39.595 45.8039C39.4109 45.8039 39.3005 45.8898 39.3005 46.0125C39.3005 46.0983 39.3741 46.1965 39.5827 46.2579L39.8772 46.3315C40.1839 46.4051 40.6257 46.5523 40.6257 47.1167C40.5889 47.7916 40.0858 48.1474 39.3496 48.1474Z" fill="#D4DFFF"/>
<path d="M43.1043 45.8527H42.4417V48.0981H41.7055V45.8527H41.043V45.2515H43.1902L43.1043 45.8527Z" fill="#D4DFFF"/>
<path d="M43.7666 48.0981V45.2515H45.423L45.374 45.8527H44.5028V46.3312H45.2022V46.9079H44.5028V47.4969H45.4721V48.0981H43.7666Z" fill="#D4DFFF"/>
<path d="M47.5827 48.0981L47.2882 47.3005C47.1778 47.0061 47.1164 46.9693 46.9569 46.9693V48.0981H46.2207V45.2515H47.2023C48.0367 45.2515 48.3066 45.595 48.3066 46.0613C48.3066 46.5521 48.0489 46.7975 47.7176 46.8588C47.8158 46.8834 47.9385 47.0183 47.9998 47.1656C48.098 47.3496 48.3311 47.8895 48.4293 48.0981H47.5827ZM46.9446 45.8527V46.4294H47.1532C47.3986 46.4294 47.4845 46.3067 47.4845 46.1226C47.4845 45.914 47.3741 45.8527 47.1532 45.8527H46.9446Z" fill="#D4DFFF"/>
<path d="M50.9936 45.2515H50.2451V48.0981H50.9936V45.2515Z" fill="#D4DFFF"/>
<path d="M53.2766 48.0981L52.7735 47.1042C52.6999 46.957 52.614 46.7484 52.5526 46.5766C52.5772 46.687 52.6017 46.9447 52.6017 47.3005V48.0981H51.9023V45.2515H52.6017L53.1171 46.2331C53.203 46.3803 53.2766 46.5766 53.3502 46.7729C53.3257 46.6012 53.3257 46.319 53.3257 46.1349V45.2515H54.025V48.0981H53.2766Z" fill="#D4DFFF"/>
<path d="M58.4169 48.0985L58.3433 46.9574C58.331 46.7734 58.3188 46.6261 58.3188 46.3807C58.2942 46.6261 58.2697 46.7611 58.2206 46.9206L57.8771 48.0985H57.2513L56.9568 46.9451C56.9077 46.7856 56.8832 46.6261 56.8586 46.3807C56.8586 46.6384 56.8586 46.7856 56.8464 46.9697L56.785 48.1108H56.0488L56.331 45.2642H57.2267L57.509 46.393C57.5458 46.5525 57.5826 46.712 57.5948 46.9329H57.6071C57.6317 46.712 57.6685 46.577 57.7175 46.3562L58.012 45.2642H58.8832L59.1409 48.1108H58.4169V48.0985Z" fill="#D4DFFF"/>
<path d="M59.9629 48.0981V45.2515H61.6193L61.5702 45.8527H60.6991V46.3312H61.4107V46.9079H60.6991V47.4969H61.6684V48.0981H59.9629Z" fill="#D4DFFF"/>
<path d="M64.1961 45.8527H63.5335V48.0981H62.7973V45.8527H62.1348V45.2515H64.282L64.1961 45.8527Z" fill="#D4DFFF"/>
<path d="M66.2208 48.0981L66.0736 47.5459H65.3988L65.2393 48.0981H64.4785L65.3865 45.2515H66.1472L67.0061 48.0981H66.2208ZM65.8037 46.4662C65.7791 46.3435 65.7546 46.1717 65.7546 46.0613C65.7423 46.1717 65.73 46.319 65.681 46.5153L65.5705 46.9815H65.9386L65.8037 46.4662Z" fill="#D4DFFF"/>
<path d="M69.1291 48.0981H67.5586V45.2515H68.2948V47.4969H69.2641L69.1291 48.0981Z" fill="#D4DFFF"/>
</svg>
