<svg width="24" height="24" viewBox="0 0 24 24" fill="none" xmlns="http://www.w3.org/2000/svg">
<path d="M2.00019 11.9985C2.00019 10.3445 3.34619 8.99853 5.00019 8.99853H9.76419C8.74019 7.85553 8.78519 5.97353 9.87919 4.87753C10.442 4.31561 11.2049 4 12.0002 4C12.7955 4 13.5583 4.31561 14.1212 4.87753L21.2422 11.9985L14.1212 19.1195C13.5583 19.6815 12.7955 19.9971 12.0002 19.9971C11.2049 19.9971 10.442 19.6815 9.87919 19.1195C8.78419 18.0255 8.73919 16.1405 9.76419 14.9985H5.00019C3.34619 14.9985 2.00019 13.6525 2.00019 11.9985ZM14.5862 10.9985L5.00019 10.9985C4.74271 11.01 4.49959 11.1204 4.32146 11.3067C4.14333 11.493 4.04392 11.7408 4.04392 11.9985C4.04392 12.2563 4.14333 12.5041 4.32146 12.6904C4.49959 12.8766 4.74271 12.987 5.00019 12.9985L14.5862 12.9985L11.2932 16.2915C11.1112 16.4819 11.0096 16.7351 11.0096 16.9985C11.0096 17.2619 11.1112 17.5152 11.2932 17.7055C11.386 17.7985 11.4962 17.8722 11.6175 17.9225C11.7388 17.9728 11.8689 17.9987 12.0002 17.9987C12.1315 17.9987 12.2616 17.9728 12.3829 17.9225C12.5042 17.8722 12.6144 17.7985 12.7072 17.7055L18.4142 11.9985L12.7072 6.29153C12.6144 6.19859 12.5042 6.12485 12.3829 6.07454C12.2616 6.02423 12.1315 5.99833 12.0002 5.99833C11.8689 5.99833 11.7388 6.02423 11.6175 6.07454C11.4962 6.12485 11.386 6.19859 11.2932 6.29153C11.1112 6.4819 11.0096 6.73514 11.0096 6.99853C11.0096 7.26192 11.1112 7.51516 11.2932 7.70553L14.5862 10.9985Z" fill="white"/>
</svg>
