<svg width="48" height="48" viewBox="0 0 48 48" fill="none" xmlns="http://www.w3.org/2000/svg">
<circle cx="24" cy="24" r="23.5" transform="matrix(-1 0 0 1 48 0)" stroke="#313D72"/>
<path d="M33.9998 23.9985C33.9998 22.3445 32.6538 20.9985 30.9998 20.9985H26.2358C27.2598 19.8555 27.2148 17.9735 26.1208 16.8775C25.558 16.3156 24.7951 16 23.9998 16C23.2045 16 22.4417 16.3156 21.8788 16.8775L14.7578 23.9985L21.8788 31.1195C22.4417 31.6815 23.2045 31.9971 23.9998 31.9971C24.7951 31.9971 25.558 31.6815 26.1208 31.1195C27.2158 30.0255 27.2608 28.1405 26.2358 26.9985H30.9998C32.6538 26.9985 33.9998 25.6525 33.9998 23.9985ZM21.4138 22.9985H30.9998C31.2573 23.01 31.5004 23.1204 31.6785 23.3067C31.8567 23.493 31.9561 23.7408 31.9561 23.9985C31.9561 24.2563 31.8567 24.5041 31.6785 24.6904C31.5004 24.8766 31.2573 24.987 30.9998 24.9985H21.4138L24.7068 28.2915C24.8888 28.4819 24.9904 28.7351 24.9904 28.9985C24.9904 29.2619 24.8888 29.5152 24.7068 29.7055C24.614 29.7985 24.5038 29.8722 24.3825 29.9225C24.2612 29.9728 24.1311 29.9987 23.9998 29.9987C23.8685 29.9987 23.7384 29.9728 23.6171 29.9225C23.4958 29.8722 23.3856 29.7985 23.2928 29.7055L17.5858 23.9985L23.2928 18.2915C23.3856 18.1986 23.4958 18.1248 23.6171 18.0745C23.7384 18.0242 23.8685 17.9983 23.9998 17.9983C24.1311 17.9983 24.2612 18.0242 24.3825 18.0745C24.5038 18.1248 24.614 18.1986 24.7068 18.2915C24.8888 18.4819 24.9904 18.7351 24.9904 18.9985C24.9904 19.2619 24.8888 19.5152 24.7068 19.7055L21.4138 22.9985Z" fill="#313D72"/>
</svg>
