<svg width="160" height="160" viewBox="0 0 160 160" fill="none" xmlns="http://www.w3.org/2000/svg">
<path d="M80.3433 42.1841L77.3494 49.4725L75.1408 43.9019L72.9568 49.4725L69.9629 42.1841H70.8218L72.9568 47.5583L75.1653 41.9878L77.3494 47.5583L79.4844 42.1841H80.3433Z" fill="white"/>
<path d="M86.5274 45.7424C86.5274 44.908 86.2574 44.2209 85.693 43.632C85.1286 43.0675 84.4415 42.7731 83.6071 42.7731C82.7237 42.7731 82.012 43.0675 81.4722 43.632C80.9323 44.2209 80.6624 44.908 80.6624 45.7178C80.6624 46.5522 80.9323 47.2393 81.4967 47.8037C82.0611 48.3682 82.7482 48.6626 83.5826 48.6626C84.417 48.6626 85.1041 48.3682 85.6685 47.8037C86.2329 47.2639 86.5274 46.5767 86.5274 45.7424ZM87.3127 45.7424C87.3127 46.7731 86.9446 47.6565 86.2329 48.3682C85.5213 49.0798 84.6378 49.4234 83.5826 49.4234C82.5274 49.4234 81.644 49.0798 80.9323 48.3436C80.2206 47.632 79.8525 46.7485 79.8525 45.7178C79.8525 44.6626 80.1961 43.7792 80.9078 43.0921C81.6194 42.3804 82.5028 42.0369 83.5581 42.0369C84.6133 42.0369 85.4967 42.3804 86.2084 43.0921C86.9446 43.8037 87.3127 44.6872 87.3127 45.7424Z" fill="white"/>
<path d="M90.9198 44.1229C90.9198 43.7057 90.7971 43.4112 90.5271 43.2149C90.2572 43.0186 89.8646 42.9204 89.3001 42.9204H88.6866V45.2517H89.3001C89.8646 45.2517 90.2817 45.1535 90.5271 44.9817C90.7971 44.81 90.9198 44.5155 90.9198 44.1229ZM92.0731 49.3008H91.1161L88.932 45.9388H88.6866V49.3008H87.9014V42.2087H89.3738C90.1345 42.2087 90.6989 42.3805 91.1161 42.6995C91.5087 43.0186 91.705 43.5094 91.705 44.1229C91.705 44.6627 91.5333 45.1044 91.1897 45.4235C90.8462 45.7425 90.3799 45.9143 89.7909 45.9388L92.0731 49.3008Z" fill="white"/>
<path d="M95.2149 49.3006H92.54V42.1841H93.3253V48.5644H95.2149V49.3006Z" fill="white"/>
<path d="M100.122 45.7424C100.122 44.8344 99.852 44.1227 99.3366 43.6565C98.8213 43.1902 98.0606 42.9448 97.0544 42.9448H96.3918V48.5644H96.9808C98.0606 48.5644 98.8704 48.3436 99.3612 47.8773C99.8765 47.4111 100.122 46.6994 100.122 45.7424ZM100.907 45.7424C100.907 46.9203 100.564 47.8037 99.9011 48.3927C99.2385 48.9816 98.2323 49.2761 96.9317 49.2761H95.582V42.1841H96.9808C98.2569 42.1841 99.2139 42.5031 99.8765 43.1166C100.588 43.7301 100.907 44.6135 100.907 45.7424Z" fill="white"/>
<path d="M74.11 55.5337C74.11 55.092 73.9628 54.773 73.6438 54.5276C73.3247 54.3067 72.8585 54.184 72.2695 54.184H71.5579V56.8098H72.4413C73.0303 56.8098 73.472 56.7117 73.7419 56.4908C73.9628 56.2945 74.11 55.9755 74.11 55.5337ZM73.4965 52.319C73.4965 51.9264 73.3984 51.6319 73.1775 51.4356C72.9566 51.2393 72.6131 51.1411 72.1468 51.1411H71.5579V53.4724H72.0241C72.5149 53.4724 72.883 53.3742 73.1284 53.1779C73.3738 53.0061 73.4965 52.7117 73.4965 52.319ZM74.8953 55.5337C74.8953 56.1963 74.699 56.7117 74.2818 57.0307C73.8646 57.3742 73.2266 57.5215 72.3922 57.5215H70.748V50.4294H72.1714C72.8339 50.4294 73.3493 50.6012 73.7174 50.9202C74.0855 51.2393 74.2818 51.681 74.2818 52.2699C74.2818 52.6626 74.1836 52.9816 74.0119 53.2515C73.8401 53.4969 73.5701 53.6687 73.2511 53.7423C73.7419 53.8159 74.1345 54.0123 74.429 54.3313C74.748 54.6503 74.8953 55.0675 74.8953 55.5337Z" fill="white"/>
<path d="M78.6502 52.3682C78.6502 51.951 78.5275 51.6566 78.2576 51.4602C78.0122 51.2639 77.595 51.1658 77.0306 51.1658H76.4171V53.497H77.0306C77.595 53.497 78.0122 53.3989 78.2576 53.2271C78.5275 53.0553 78.6502 52.7608 78.6502 52.3682ZM79.8036 57.5461H78.8466L76.6625 54.1842H76.4171V57.5461H75.6318V50.4541H77.1042C77.865 50.4541 78.4294 50.6259 78.8466 50.9449C79.2392 51.2885 79.4355 51.7547 79.4355 52.3682C79.4355 52.9081 79.2637 53.3498 78.9202 53.6688C78.5766 53.9878 78.1104 54.1596 77.5214 54.1596L79.8036 57.5461Z" fill="white"/>
<path d="M84.0981 54.6993L82.9202 51.9508L81.7423 54.6993H84.0981ZM86.184 57.5459H85.3005L84.368 55.4109H81.4232L80.5153 57.5459H79.6318L82.8956 50.2576L86.184 57.5459Z" fill="white"/>
<path d="M92.8585 57.7424L87.3616 52.1227V57.546H86.5518V50.2332L92.0732 55.8282V50.4295H92.8585V57.7424Z" fill="white"/>
<path d="M98.4295 53.9878C98.4295 53.0799 98.1596 52.3682 97.6442 51.902C97.1289 51.4357 96.3682 51.1903 95.362 51.1903H94.6995V56.8099H95.2884C96.3682 56.8099 97.1535 56.5891 97.6688 56.1228C98.1841 55.6566 98.4295 54.9449 98.4295 53.9878ZM99.2148 53.9878C99.2148 55.1658 98.8712 56.0247 98.2087 56.6381C97.5461 57.2271 96.5645 57.5461 95.2393 57.5461H93.8896V50.4541H95.2884C96.54 50.4541 97.5216 50.7731 98.1841 51.3866C98.8712 51.9756 99.2148 52.859 99.2148 53.9878Z" fill="white"/>
<path d="M100.662 50.4294H99.877V57.5215H100.662V50.4294Z" fill="white"/>
<path d="M108 57.7424L102.503 52.1227V57.546H101.718V50.2332L107.215 55.8282V50.4295H108V57.7424Z" fill="white"/>
<path d="M115.705 53.9387C115.705 55.0675 115.386 55.9755 114.773 56.6626C114.159 57.3497 113.3 57.6687 112.245 57.6687C111.214 57.6687 110.355 57.3252 109.668 56.6135C108.981 55.9264 108.662 55.043 108.662 53.9632C108.662 52.908 109.006 52.0246 109.668 51.3374C110.355 50.6258 111.19 50.2822 112.22 50.2822C112.883 50.2822 113.447 50.4049 113.938 50.6503C114.429 50.8957 114.846 51.2638 115.19 51.7301L114.601 52.1963C114.355 51.8282 114.012 51.5338 113.619 51.3129C113.227 51.1166 112.76 51.0184 112.269 51.0184C111.46 51.0184 110.797 51.3129 110.257 51.8773C109.742 52.4417 109.472 53.1534 109.472 54.0123C109.472 54.8221 109.742 55.5092 110.282 56.0736C110.822 56.6381 111.484 56.908 112.294 56.908C113.006 56.908 113.595 56.6871 114.061 56.27C114.552 55.8528 114.822 55.3129 114.871 54.6503H112.638V53.9141H115.705V53.9387Z" fill="white"/>
<path d="M74.4536 62.9448L73.2757 60.1963L72.0977 62.9448H74.4536ZM76.5395 65.7669H75.656L74.7235 63.6319H71.7787L70.8707 65.7669H69.9873L73.2511 58.4785L76.5395 65.7669Z" fill="white"/>
<path d="M85.767 58.6748L82.7731 65.9632L80.589 60.3926L78.3805 65.9632L75.4111 58.6748H76.27L78.3805 64.0491L80.589 58.4785L82.7731 64.0491L84.9081 58.6748H85.767Z" fill="white"/>
<path d="M89.0307 62.9448L87.8528 60.1963L86.6749 62.9448H89.0307ZM91.1166 65.7669H90.2332L89.3006 63.6319H86.3559L85.4479 65.7669H84.5645L87.8283 58.4785L91.1166 65.7669Z" fill="white"/>
<path d="M94.4785 60.6135C94.4785 60.1963 94.3558 59.9018 94.0859 59.7055C93.8159 59.5092 93.4233 59.411 92.8589 59.411H92.2454V61.7423H92.8589C93.4233 61.7423 93.8405 61.6441 94.0859 61.4723C94.3312 61.3006 94.4785 61.0061 94.4785 60.6135ZM95.6073 65.7668H94.6503L92.4662 62.4049H92.2208V65.7668H91.4355V58.6748H92.9079C93.6687 58.6748 94.2331 58.8466 94.6503 59.1656C95.0429 59.4846 95.2392 59.9754 95.2392 60.5889C95.2392 61.1288 95.0674 61.5705 94.7239 61.8895C94.3803 62.2085 93.9141 62.3803 93.3251 62.4049L95.6073 65.7668Z" fill="white"/>
<path d="M100.614 62.2331C100.614 61.3251 100.344 60.6135 99.8288 60.1472C99.3135 59.6564 98.5527 59.4355 97.5466 59.4355H96.884V65.0306H97.473C98.5527 65.0306 99.3626 64.8098 99.8534 64.3435C100.369 63.9018 100.614 63.1901 100.614 62.2331ZM101.399 62.2331C101.399 63.411 101.056 64.2699 100.393 64.8834C99.7307 65.4723 98.7245 65.7668 97.4239 65.7668H96.0742V58.6748H97.473C98.7491 58.6748 99.7061 58.9938 100.393 59.6073C101.056 60.2208 101.399 61.1043 101.399 62.2331Z" fill="white"/>
<path d="M105.792 63.8773C105.792 64.5153 105.596 65.0061 105.203 65.3742C104.81 65.7423 104.271 65.9141 103.583 65.9141C103.117 65.9141 102.7 65.8159 102.356 65.5951C102.013 65.3742 101.743 65.0797 101.596 64.7116L102.16 64.2208C102.258 64.5153 102.455 64.7607 102.725 64.9325C102.994 65.1043 103.289 65.1779 103.633 65.1779C104.05 65.1779 104.393 65.0797 104.639 64.8343C104.884 64.6135 105.007 64.2945 105.007 63.9018C105.007 63.5828 104.884 63.2883 104.663 63.0429C104.442 62.7975 104.05 62.5521 103.534 62.2822C102.896 61.9632 102.479 61.6687 102.209 61.3742C101.964 61.0797 101.841 60.7116 101.841 60.2454C101.841 59.73 102.013 59.2883 102.381 58.9693C102.725 58.6503 103.215 58.4785 103.78 58.4785C104.148 58.4785 104.442 58.5521 104.712 58.6994C104.982 58.8466 105.203 59.0429 105.399 59.3374L104.86 59.8282C104.761 59.6319 104.614 59.4846 104.418 59.3865C104.221 59.2883 104.001 59.2392 103.755 59.2392C103.412 59.2392 103.142 59.3374 102.945 59.5092C102.749 59.681 102.651 59.9264 102.651 60.2208C102.651 60.4908 102.725 60.7116 102.872 60.908C103.019 61.0797 103.313 61.3006 103.78 61.546L103.829 61.5705C105.129 62.3067 105.792 63.0675 105.792 63.8773Z" fill="white"/>
<path d="M48.344 46.8957C52.4176 42.8221 58.8716 42.5522 63.2642 46.135C63.0188 45.8405 62.7734 45.5706 62.5035 45.3006C58.1599 40.9571 51.0924 40.9571 46.7489 45.3006C42.4053 49.6442 42.4053 56.7117 46.7489 61.0552C47.0188 61.3252 47.3133 61.5706 47.5832 61.816C44.0004 57.4479 44.2704 50.9693 48.344 46.8957Z" fill="#6E7071"/>
<path d="M64.0982 46.8957C63.8283 46.6258 63.5338 46.3804 63.2639 46.135C66.8467 50.5031 66.5767 56.9816 62.5031 61.0553C58.4295 65.1289 51.9755 65.3743 47.6074 61.8405C47.8528 62.135 48.0982 62.4049 48.3682 62.6749C52.7117 67.0184 59.7792 67.0184 64.1228 62.6749C68.4418 58.3068 68.4418 51.2638 64.0982 46.8957Z" fill="#6E7071"/>
<path d="M74.9446 129.301C77.2759 126.969 80.9814 126.822 83.4845 128.859L83.0428 128.368C80.5642 125.89 76.5152 125.89 74.0366 128.368C71.5581 130.847 71.5581 134.896 74.0366 137.374L74.5274 137.816C72.4661 135.337 72.6133 131.632 74.9446 129.301Z" fill="#C6B559"/>
<path d="M83.9762 129.301L83.4854 128.859C85.5222 131.362 85.3749 135.067 83.0437 137.399C80.7124 139.73 77.0314 139.877 74.5283 137.84L74.9455 138.307C77.4486 140.785 81.4731 140.785 83.9516 138.307C86.4547 135.828 86.4547 131.779 83.9762 129.301Z" fill="#C6B559"/>
<path d="M136.393 87.7547C138.013 86.4295 138.724 84.5891 138.602 83.5829C137.694 83.313 136 83.8529 134.454 85.178C133.62 85.8897 132.982 86.6749 132.589 87.3866C132.786 85.9387 132.933 84.4909 133.031 83.043L133.056 82.7731C133.988 82.9203 135.559 82.405 136.933 81.0308C138.381 79.5338 138.872 77.5952 138.626 76.6136C137.694 76.4418 136.074 77.178 134.7 78.6995C133.939 79.5093 133.424 80.3682 133.105 81.1289C133.129 79.5584 133.105 77.9878 133.007 76.4418C133.939 76.4909 135.461 75.7792 136.638 74.2332C137.915 72.5645 138.16 70.6013 137.792 69.6443C136.859 69.5952 135.338 70.5032 134.135 72.1719C133.473 73.0798 133.056 73.9878 132.859 74.7731C132.712 73.3252 132.516 71.8774 132.246 70.4541L132.197 70.2332V70.1841C133.129 70.1105 134.553 69.2516 135.534 67.5584C136.589 65.767 136.614 63.7792 136.172 62.8958C135.24 62.9449 133.816 64.0492 132.835 65.816C132.295 66.7976 131.976 67.7302 131.853 68.54C131.51 67.0185 131.117 65.497 130.651 64.0001C131.559 63.8283 132.884 62.7976 133.694 61.0308C134.553 59.1167 134.356 57.178 133.792 56.3437C132.859 56.4909 131.559 57.7424 130.798 59.6075C130.356 60.6381 130.16 61.6197 130.135 62.4295C129.669 61.0553 129.154 59.7056 128.565 58.3559L128.442 58.086C129.35 57.816 130.528 56.6381 131.142 54.7976C131.78 52.8344 131.411 50.8958 130.773 50.1351C129.865 50.3805 128.712 51.7302 128.123 53.6933C127.804 54.7486 127.681 55.7547 127.755 56.5645C127.092 55.1412 126.381 53.767 125.62 52.3927C126.479 52.0246 127.559 50.7486 127.976 48.859C128.442 46.8222 127.878 44.9817 127.191 44.27C126.307 44.6136 125.301 46.0369 124.884 48.0492C124.663 49.1289 124.663 50.1105 124.81 50.9203C124.025 49.5952 123.191 48.2946 122.307 47.0185L122.258 47.0676C122.528 46.1596 122.184 44.5154 121.031 43.0185C119.755 41.3989 118.135 40.6627 117.203 40.8099C116.958 41.6933 117.35 43.3866 118.553 44.9326C119.657 46.3805 121.031 47.1903 121.964 47.2884L121.89 47.3375C122.773 48.589 123.583 49.8897 124.369 51.1903C123.755 50.6995 122.872 50.2578 121.816 50.0614C119.878 49.6688 118.209 50.1841 117.546 50.8467C117.841 51.6565 119.166 52.5891 121.031 53.0308C122.798 53.4234 124.442 53.2025 125.203 52.6627C125.939 54.0124 126.651 55.3866 127.313 56.7608C126.724 56.1964 125.915 55.6811 124.884 55.3866C122.97 54.8222 121.277 55.1903 120.565 55.7792C120.81 56.5891 121.988 57.6688 123.829 58.2578C125.522 58.8222 127.191 58.7486 128 58.3068C128.614 59.7056 129.154 61.1289 129.645 62.5768C129.129 61.9633 128.344 61.3743 127.387 60.9571C125.546 60.1964 123.829 60.3927 123.043 60.9081C123.191 61.7424 124.246 62.8958 126.013 63.6811C127.657 64.4173 129.301 64.54 130.16 64.1719C130.626 65.6443 131.019 67.1412 131.338 68.6381C130.896 67.9756 130.184 67.2884 129.277 66.7731C127.534 65.816 125.816 65.8406 124.982 66.2578C125.031 67.0921 125.964 68.3682 127.632 69.3252C129.178 70.2332 130.798 70.5277 131.706 70.2823L131.731 70.3559C132 71.8283 132.221 73.3252 132.369 74.8222C132 74.1105 131.387 73.3498 130.528 72.7363C128.908 71.5829 127.191 71.4111 126.307 71.7302C126.258 72.5645 127.043 73.9142 128.565 75.0676C129.988 76.1473 131.559 76.6381 132.491 76.4909C132.589 78.0124 132.638 79.5584 132.589 81.1044C132.319 80.3437 131.804 79.5338 131.019 78.7976C129.546 77.4725 127.853 77.0798 126.945 77.3007C126.798 78.1105 127.411 79.5584 128.786 80.8835C130.062 82.1351 131.583 82.8222 132.516 82.7731C132.442 84.2946 132.27 85.816 132.074 87.3375C131.902 86.5522 131.485 85.6688 130.798 84.859C129.497 83.3621 127.878 82.7731 126.945 82.8958C126.7 83.6811 127.142 85.178 128.344 86.6749C129.448 88.0492 130.896 88.9081 131.829 88.9817C131.559 90.5032 131.24 92.0001 130.847 93.4725C130.749 92.6872 130.454 91.7547 129.865 90.8713C128.761 89.2271 127.191 88.4418 126.258 88.4664C125.915 89.2271 126.184 90.7731 127.215 92.3927C128.172 93.9142 129.473 94.9203 130.405 95.0921L130.356 95.313C129.939 96.7117 129.448 98.086 128.933 99.4357C128.933 98.6259 128.737 97.6688 128.246 96.7363C127.362 94.9694 125.865 94.0124 124.958 93.9142C124.54 94.6259 124.614 96.1964 125.448 97.9387C126.234 99.5584 127.411 100.712 128.295 101.006C127.681 102.405 127.019 103.804 126.307 105.153C126.405 104.368 126.307 103.387 125.939 102.405C125.252 100.54 123.902 99.4357 122.994 99.2148C122.504 99.8774 122.381 101.448 123.019 103.288C123.608 104.982 124.638 106.258 125.497 106.65L125.399 106.847C124.663 108.098 123.902 109.35 123.068 110.552C123.24 109.767 123.264 108.785 123.019 107.779C122.528 105.865 121.326 104.589 120.442 104.295C119.878 104.908 119.583 106.454 120 108.344C120.418 110.086 121.277 111.485 122.111 111.951C121.203 113.203 120.246 114.405 119.24 115.583C119.51 114.822 119.632 113.865 119.485 112.81C119.24 110.847 118.135 109.448 117.301 109.055C116.688 109.595 116.197 111.092 116.418 113.031C116.614 114.798 117.35 116.295 118.111 116.859L118.086 116.884C117.056 118.012 116 119.092 114.872 120.123C115.215 119.411 115.461 118.454 115.436 117.399C115.387 115.411 114.479 113.914 113.694 113.423C113.007 113.89 112.369 115.338 112.393 117.276C112.393 119.068 112.958 120.614 113.645 121.252C112.491 122.258 111.289 123.239 110.037 124.147C110.479 123.485 110.798 122.552 110.896 121.497C111.092 119.534 110.332 117.939 109.62 117.35C108.884 117.742 108.099 119.092 107.902 121.006C107.706 122.773 108.074 124.393 108.688 125.104C107.436 125.963 106.135 126.773 104.81 127.509C105.326 126.896 105.767 126.012 105.988 125.006C106.381 123.068 105.841 121.423 105.203 120.736C104.418 121.031 103.51 122.282 103.068 124.147C102.675 125.89 102.823 127.509 103.338 128.319C101.964 129.031 100.565 129.644 99.1416 130.209C99.7305 129.669 100.295 128.859 100.638 127.877C101.301 126.012 100.958 124.295 100.393 123.558C99.6078 123.755 98.5526 124.859 97.8655 126.65C97.2274 128.295 97.1784 129.939 97.571 130.798L97.3011 130.896C95.9514 131.362 94.5526 131.755 93.1784 132.074C93.8409 131.632 94.5281 130.92 95.0189 129.963C95.9268 128.221 95.8287 126.454 95.3869 125.669C94.5771 125.767 93.3992 126.675 92.4912 128.344C91.6323 129.865 91.3133 131.509 91.5833 132.417C90.0618 132.687 88.5403 132.884 86.9943 132.957C87.7305 132.638 88.5158 132.049 89.1538 131.19C90.3317 129.62 90.479 127.877 90.1845 126.994C89.3992 126.945 88.1231 127.681 86.9452 129.153C85.8655 130.528 85.252 132.074 85.3501 133.006H85.0557V133.522H85.3501C85.252 134.454 85.8409 136 87.387 137.252C89.0557 138.601 91.117 138.871 92.0986 138.528C92.1722 137.571 91.2397 136.074 89.571 134.847C88.6876 134.184 87.8041 133.742 87.0189 133.497C88.5894 133.423 90.1354 133.227 91.6569 132.957C91.7305 133.89 92.5649 135.313 94.3072 136.295C96.1477 137.325 98.209 137.325 99.0925 136.785C99.0189 135.828 97.8655 134.503 96.0495 133.546C95.0679 133.031 94.1109 132.736 93.3011 132.614C94.8225 132.27 96.2949 131.853 97.7673 131.338C97.9636 132.245 99.0434 133.546 100.884 134.233C102.847 134.994 104.835 134.675 105.669 134.061C105.448 133.129 104.123 131.951 102.209 131.264C101.154 130.896 100.172 130.724 99.3379 130.749C100.786 130.184 102.234 129.546 103.632 128.81C103.976 129.693 105.203 130.822 107.092 131.264C109.129 131.755 111.043 131.19 111.78 130.479C111.436 129.595 109.988 128.565 108 128.147C106.896 127.902 105.915 127.877 105.105 128C106.381 127.288 107.608 126.528 108.835 125.718L109.056 125.546C109.497 126.38 110.872 127.313 112.81 127.558C114.872 127.804 116.712 127.043 117.35 126.233C116.908 125.374 115.362 124.565 113.326 124.368C112.221 124.27 111.24 124.368 110.454 124.589C111.706 123.657 112.933 122.675 114.111 121.669C114.651 122.43 116.123 123.215 118.062 123.215C120.148 123.215 121.865 122.258 122.405 121.399C121.89 120.614 120.221 119.951 118.184 120C117.08 120.025 116.099 120.245 115.338 120.54C116.393 119.558 117.424 118.528 118.405 117.448L118.577 117.252C119.191 117.963 120.761 118.552 122.675 118.356C124.737 118.111 126.356 116.982 126.773 116.049C126.16 115.313 124.467 114.871 122.43 115.141C121.35 115.288 120.393 115.607 119.681 116C120.688 114.822 121.669 113.595 122.577 112.319C123.264 112.957 124.884 113.399 126.773 112.957C128.81 112.515 130.258 111.19 130.602 110.233C129.915 109.571 128.172 109.301 126.184 109.792C125.105 110.061 124.197 110.479 123.534 110.945C124.344 109.742 125.129 108.515 125.865 107.264L125.915 107.19L126.013 107.019C126.773 107.558 128.418 107.828 130.258 107.19C132.221 106.503 133.546 105.031 133.767 104.049C133.007 103.485 131.24 103.411 129.326 104.123C128.295 104.515 127.436 105.031 126.823 105.571C127.559 104.196 128.221 102.773 128.859 101.35C129.669 101.816 131.362 101.89 133.105 101.055C134.994 100.147 136.123 98.5277 136.221 97.5216C135.387 97.0308 133.669 97.178 131.829 98.086C130.847 98.6013 130.062 99.1903 129.497 99.8038C130.037 98.4541 130.504 97.0798 130.921 95.6811L130.945 95.6075L131.019 95.4111C131.878 95.7792 133.546 95.6565 135.191 94.6259C136.958 93.5216 137.89 91.7547 137.89 90.7486C137.031 90.3559 135.289 90.6995 133.596 91.8283C132.663 92.4418 131.951 93.1535 131.485 93.816C131.878 92.2946 132.221 90.7731 132.491 89.2271C133.252 89.2762 134.872 88.9571 136.393 87.7547Z" fill="#C6B559"/>
<path d="M73.0064 132.884H72.7119C72.8101 131.951 72.2211 130.405 71.1169 129.031C69.9389 127.558 68.6629 126.798 67.8776 126.871C67.5586 127.755 67.7303 129.497 68.9083 131.068C69.5463 131.926 70.3316 132.515 71.0678 132.834C69.5218 132.761 67.9757 132.564 66.4543 132.295C66.7242 131.387 66.4052 129.767 65.5463 128.221C64.6138 126.552 63.4359 125.62 62.6506 125.546C62.2089 126.356 62.0862 128.123 63.0187 129.841C63.5095 130.798 64.1966 131.509 64.8592 131.951C63.4604 131.632 62.0616 131.239 60.7119 130.773L60.442 130.675C60.8346 129.816 60.761 128.172 60.1475 126.528C59.4604 124.736 58.4052 123.632 57.6199 123.436C57.0555 124.172 56.7119 125.89 57.3745 127.755C57.7181 128.761 58.2825 129.546 58.8714 130.086C57.4481 129.522 56.0248 128.884 54.6751 128.196C55.1905 127.411 55.3377 125.767 54.9451 124.025C54.5033 122.16 53.5708 120.908 52.8101 120.614C52.1475 121.276 51.6076 122.92 52.0248 124.884C52.2457 125.914 52.6874 126.798 53.2027 127.411C51.8776 126.675 50.577 125.865 49.3009 125.006C49.9144 124.295 50.2825 122.675 50.0862 120.884C49.8653 118.945 49.08 117.62 48.3438 117.227C47.6322 117.791 46.8714 119.411 47.0678 121.374C47.1659 122.454 47.5095 123.362 47.9512 124.049C46.6997 123.141 45.4972 122.16 44.3438 121.153C45.031 120.515 45.5954 118.969 45.5954 117.153C45.5954 115.215 44.9819 113.767 44.2702 113.301C43.4849 113.791 42.577 115.288 42.5279 117.276C42.5034 118.331 42.7488 119.288 43.0923 120.025C41.9635 118.994 40.9083 117.89 39.8776 116.761L39.853 116.736C40.6138 116.172 41.35 114.699 41.5463 112.908C41.7672 110.969 41.3009 109.472 40.6629 108.933C39.8285 109.325 38.7488 110.724 38.4788 112.687C38.3316 113.742 38.4543 114.724 38.7242 115.485C37.7181 114.307 36.761 113.104 35.853 111.853C36.6629 111.387 37.5463 109.988 37.9635 108.245C38.3807 106.356 38.1107 104.81 37.5218 104.196C36.6383 104.515 35.4359 105.767 34.9451 107.681C34.6751 108.712 34.6997 109.693 34.896 110.479C34.0616 109.276 33.3009 108.025 32.5647 106.773L32.4665 106.601C33.3254 106.233 34.3807 104.933 34.9451 103.239C35.5831 101.399 35.4604 99.8283 34.9696 99.1657C34.0616 99.3866 32.7119 100.491 32.0248 102.356C31.6567 103.362 31.5586 104.319 31.6567 105.129C30.9451 103.755 30.258 102.38 29.669 100.957C30.577 100.687 31.7303 99.5093 32.5156 97.8896C33.35 96.1473 33.3991 94.5768 33.0064 93.8651C32.0984 93.9633 30.6015 94.9203 29.7181 96.6872C29.2273 97.6442 29.031 98.6013 29.031 99.4111C28.4911 98.0614 28.0003 96.6627 27.5831 95.2639L27.5095 95.0676C28.442 94.8958 29.7181 93.8651 30.6997 92.3682C31.7303 90.724 31.9757 89.2025 31.6567 88.4418C30.7242 88.4418 29.1537 89.2025 28.0494 90.8467C27.4604 91.7301 27.1414 92.6626 27.0678 93.4725C26.6751 91.9755 26.3316 90.4786 26.0862 88.9571C27.0187 88.8835 28.442 88.0246 29.5708 86.6504C30.7978 85.1534 31.215 83.6565 30.9696 82.8712C30.0371 82.7485 28.4175 83.3375 27.1168 84.8344C26.4297 85.6442 26.0126 86.5277 25.8408 87.313C25.6199 85.7915 25.4727 84.2946 25.3991 82.7485V82.724C26.3316 82.7731 27.853 82.086 29.1291 80.8344C30.5279 79.4847 31.1414 78.0614 30.9696 77.2516C30.0616 77.0307 28.3684 77.3988 26.896 78.7485C26.1107 79.4602 25.5954 80.2945 25.3254 81.0553C25.3009 79.5093 25.3254 77.9633 25.4236 76.4418C26.3561 76.6136 27.9267 76.0982 29.35 75.0185C30.896 73.8651 31.6813 72.4909 31.6322 71.6565C30.7487 71.313 29.031 71.5093 27.4113 72.6627C26.5279 73.2761 25.9144 74.0369 25.5708 74.7731C25.7181 73.2761 25.9389 71.7792 26.2089 70.2823L26.2334 70.2087C27.1414 70.4786 28.761 70.1596 30.307 69.2516C31.9757 68.27 32.9083 67.0185 32.9573 66.1841C32.123 65.7424 30.3807 65.7424 28.6629 66.6995C27.7303 67.2148 27.0187 67.9019 26.577 68.5645C26.896 67.0676 27.3132 65.5706 27.7549 64.0982C28.6138 64.4663 30.258 64.3436 31.9021 63.6074C33.669 62.8222 34.7487 61.6442 34.8714 60.8344C34.0862 60.3191 32.3684 60.1228 30.5279 60.8835C29.5463 61.3007 28.761 61.9142 28.2457 62.5277C28.7365 61.0798 29.3009 59.6565 29.8899 58.2577C30.6997 58.724 32.3684 58.7731 34.0862 58.2087C35.9512 57.6197 37.1046 56.54 37.35 55.7301C36.6383 55.1412 34.9205 54.7485 33.031 55.3375C32.0003 55.6565 31.1659 56.1719 30.6015 56.7363C31.2641 55.3375 31.9512 53.9633 32.7119 52.6136C33.4727 53.1534 35.1168 53.3743 36.8837 52.9817C38.7733 52.5645 40.0739 51.6074 40.3929 50.7976C39.7303 50.135 38.0616 49.5952 36.123 50.0123C35.0678 50.2087 34.1843 50.6504 33.5463 51.1657C34.3316 49.8406 35.1414 48.5399 36.0248 47.2884L35.9757 47.2393C36.9083 47.1657 38.2825 46.3314 39.3868 44.8835C40.5892 43.3375 40.9819 41.6442 40.7365 40.7608C39.804 40.6381 38.1598 41.3498 36.9083 42.9939C35.7549 44.4909 35.4113 46.1596 35.6813 47.043L35.6076 46.9939C34.7242 48.27 33.8899 49.5706 33.1046 50.8958C33.2518 50.086 33.2273 49.1044 33.031 48.0246C32.6138 46.0123 31.6076 44.589 30.7242 44.2455C30.0371 44.9571 29.4727 46.7976 29.9389 48.8344C30.3561 50.6995 31.4113 52.0001 32.2948 52.3682C31.534 53.7424 30.8224 55.1166 30.1598 56.5399C30.2089 55.7301 30.1107 54.7485 29.7917 53.6933C29.2027 51.7547 28.0494 50.405 27.1414 50.135C26.4788 50.8958 26.1353 52.8099 26.7733 54.7976C27.3868 56.6381 28.5647 57.7915 29.4727 58.086L29.35 58.3559C28.7856 59.6811 28.2702 61.0553 27.7794 62.405C27.7549 61.5952 27.534 60.6136 27.1168 59.6074C26.3316 57.7424 25.0555 56.4909 24.123 56.3436C23.5586 57.178 23.3868 59.1412 24.2457 61.0307C25.031 62.7976 26.3561 63.8283 27.2641 64.0001C26.7978 65.497 26.4052 66.9939 26.0616 68.5154C25.9389 67.7056 25.6199 66.7731 25.1046 65.816C24.0984 64.0246 22.6997 62.9449 21.7672 62.8958C21.3009 63.8038 21.3254 65.7669 22.4052 67.5829C23.3868 69.2516 24.8101 70.135 25.7426 70.2087V70.2823L25.6935 70.5031C25.4236 71.9265 25.2273 73.3743 25.08 74.8222C24.8592 74.0369 24.442 73.1289 23.804 72.2209C22.6015 70.5522 21.1046 69.6442 20.1475 69.6933C19.7794 70.6504 20.0494 72.6136 21.3009 74.2823C22.4788 75.8283 24.0003 76.5154 24.9328 76.4909C24.8346 78.0369 24.7856 79.6074 24.8346 81.1535C24.5402 80.3927 24.0003 79.5584 23.2641 78.7485C21.8899 77.2516 20.2702 76.4909 19.3377 76.6626C19.0923 77.6442 19.5831 79.5829 21.031 81.0798C22.3807 82.4786 23.9757 82.9939 24.9083 82.8467V83.1166C25.0064 84.5645 25.1537 86.0123 25.35 87.4357C24.9573 86.724 24.3438 85.9633 23.4849 85.2271C21.9635 83.9019 20.2457 83.362 19.3377 83.632C19.215 84.6381 19.9267 86.5031 21.5463 87.8037C23.0678 89.0307 24.6874 89.3498 25.5954 89.0798C25.8653 90.6258 26.2089 92.1473 26.6015 93.6442C26.1353 92.9817 25.4236 92.2946 24.4911 91.6811C22.7978 90.5522 21.0555 90.2087 20.1966 90.6013C20.1966 91.6074 21.1291 93.3743 22.896 94.4786C24.5402 95.5093 26.2089 95.632 27.0678 95.2639L27.1168 95.4602L27.1414 95.5338C27.5586 96.9326 28.0248 98.2823 28.5647 99.632C28.0248 99.043 27.2395 98.4295 26.258 97.9387C24.4175 97.0062 22.6751 96.8835 21.8653 97.3743C21.9635 98.3804 23.0923 100 24.9819 100.908C26.7242 101.742 28.3929 101.669 29.2027 101.227C29.8162 102.65 30.5034 104.074 31.2395 105.448C30.626 104.908 29.7672 104.393 28.7365 104C26.8224 103.288 25.0555 103.362 24.2948 103.926C24.5156 104.908 25.8408 106.38 27.804 107.068C29.6445 107.681 31.2886 107.436 32.0494 106.896L32.1475 107.068L32.1721 107.141C32.9083 108.393 33.669 109.62 34.5034 110.822C33.8408 110.356 32.9328 109.939 31.853 109.669C29.8653 109.178 28.123 109.448 27.4359 110.086C27.7794 111.043 29.2273 112.368 31.2641 112.81C33.1537 113.252 34.7733 112.81 35.4604 112.172C36.3193 113.423 37.3009 114.626 38.307 115.828C37.5954 115.436 36.6629 115.117 35.5586 114.969C33.5218 114.699 31.8285 115.166 31.215 115.877C31.6322 116.81 33.2518 117.939 35.3132 118.184C37.2273 118.405 38.7733 117.791 39.4113 117.08L39.6076 117.301C40.5892 118.356 41.6199 119.411 42.6751 120.393C41.9144 120.074 40.9573 119.877 39.853 119.853C37.8162 119.804 36.1721 120.466 35.6322 121.227C36.1721 122.086 37.8899 123.068 39.9757 123.068C41.9144 123.068 43.3868 122.282 43.9267 121.522C45.1046 122.552 46.307 123.534 47.5586 124.442C46.7733 124.221 45.7917 124.123 44.6874 124.221C42.6506 124.417 41.1046 125.227 40.6629 126.086C41.2764 126.896 43.1168 127.657 45.2027 127.411C47.1414 127.19 48.4911 126.233 48.9573 125.423L49.1782 125.571C50.3807 126.38 51.6076 127.141 52.8837 127.853C52.0739 127.73 51.0923 127.755 49.988 128C48.0003 128.417 46.5279 129.423 46.2089 130.331C46.9451 131.043 48.8346 131.607 50.896 131.117C52.7856 130.675 54.0371 129.546 54.3806 128.663C55.7794 129.374 57.2027 130.012 58.6506 130.577C57.8408 130.577 56.8592 130.724 55.804 131.092C53.8653 131.779 52.5402 132.957 52.3438 133.865C53.1537 134.503 55.1659 134.798 57.1291 134.061C58.9696 133.35 60.0248 132.074 60.2457 131.166C61.6935 131.681 63.1905 132.098 64.6874 132.442C63.8776 132.564 62.9451 132.859 61.9635 133.374C60.1475 134.331 58.9941 135.657 58.9205 136.614C59.8285 137.129 61.8899 137.153 63.7303 136.123C65.4481 135.141 66.307 133.718 66.3807 132.785C67.9021 133.055 69.4481 133.252 71.0187 133.325C70.258 133.571 69.3745 134.037 68.4911 134.675C66.8469 135.902 65.8899 137.399 65.9635 138.356C66.9451 138.724 69.0064 138.43 70.6751 137.104C72.2211 135.853 72.8101 134.307 72.7119 133.374H73.0064V132.884Z" fill="#C6B559"/>
<path d="M67.2143 27.6319L64.5885 30.2086L65.202 33.8405L61.9382 32.1227L58.6744 33.8405L59.2879 30.2086L56.6621 27.6319L60.3186 27.1166L61.9382 23.8037L63.5824 27.1166L67.2143 27.6319Z" fill="#C6B559"/>
<path d="M101.227 27.6319L98.5768 30.2086L99.2148 33.8405L95.9265 32.1227L92.6627 33.8405L93.3007 30.2086L90.6504 27.6319L94.3068 27.1166L95.9265 23.8037L97.5706 27.1166L101.227 27.6319Z" fill="#C6B559"/>
<path d="M113.08 33.5461L110.429 36.1228L111.043 39.7547L107.779 38.0369L104.515 39.7547L105.153 36.1228L102.503 33.5461L106.159 33.0062L107.779 29.6934L109.423 33.0062L113.08 33.5461Z" fill="#C6B559"/>
<path d="M55.3617 33.5461L52.736 36.1228L53.3494 39.7547L50.0856 38.0369L46.8218 39.7547L47.4353 36.1228L44.8096 33.5461L48.466 33.0062L50.0856 29.6934L51.7298 33.0062L55.3617 33.5461Z" fill="#C6B559"/>
<path d="M86.5279 22.9939L82.7243 26.6749L83.6322 31.9019L78.9451 29.4233L74.258 31.9019L75.1414 26.6749L71.3623 22.9939L76.5893 22.2331L78.9451 17.4724L81.2764 22.2331L86.5279 22.9939Z" fill="#C6B559"/>
<path d="M49.0303 82.9939C49.0303 84.5645 49.2267 85.5461 50.7972 85.5461C52.2941 85.5461 53.0794 84.3927 53.0794 82.7731C53.0794 81.0308 52.0733 79.8038 50.1346 79.8038C49.0303 79.8038 49.0303 79.8283 49.0303 80.6381V82.9939ZM49.0303 78.3314C49.0303 78.8467 49.0549 78.8958 50.0855 78.8958C51.8279 78.8958 52.4659 77.7915 52.4659 76.589C52.4659 74.8467 51.3862 73.9878 49.9874 73.9878C49.0303 73.9878 49.0303 74.135 49.0303 75.043V78.3314ZM46.2573 76.3927C46.2573 74.3559 46.2082 74.1596 45.3739 74.0369L44.834 73.9633C44.6622 73.8651 44.6132 73.2516 44.9076 73.2516C46.4291 73.1535 47.9015 73.0798 49.9138 73.0798C51.8524 73.0798 53.1285 73.3007 54.0119 73.816C54.8708 74.3314 55.3862 75.1903 55.3862 76.3682C55.3862 78.0614 53.9628 78.724 53.3494 78.8712C53.153 78.9203 52.9567 78.9939 52.9567 79.0921L53.2267 79.2639C54.8217 79.6074 56.1714 80.6381 56.1714 82.6013C56.196 84.4418 55.0917 85.5461 53.8156 85.9878C52.5395 86.4295 51.0426 86.4786 49.8156 86.4786C49.104 86.4786 48.3187 86.405 47.7543 86.405C46.7727 86.405 45.7911 86.4295 44.6377 86.4541V85.7424L45.2267 85.6197C46.1346 85.4479 46.2573 85.3007 46.2573 83.4847V76.3927Z" fill="white"/>
<path d="M61.7918 78.9202C61.7918 79.6319 61.8409 79.6809 63.0433 79.6809C63.755 79.6809 64.1967 79.5092 64.5648 79.1165C64.9084 78.773 65.2765 78.1349 65.2765 76.957C65.2765 75.1411 64.2212 73.9877 62.6507 73.9877C61.8163 73.9877 61.7918 74.0368 61.7918 75.0184V78.9202ZM59.0188 76.3681C59.0188 74.3558 58.9697 74.1349 58.1354 74.0122L57.5955 73.9386C57.3992 73.8405 57.3992 73.3251 57.6446 73.227C59.166 73.1288 60.712 73.0552 62.6262 73.0552C64.3439 73.0552 65.7918 73.3251 66.5771 73.7668C67.7305 74.454 68.3439 75.4601 68.3439 76.7362C68.3439 78.5276 67.1415 79.2883 66.209 79.7546C66.0127 79.8527 66.0127 79.9754 66.1108 80.1963C67.436 82.8957 68.2703 84.3926 69.2274 85.227C69.7427 85.6441 70.2826 85.7668 70.5771 85.7914L70.6507 86.3067C70.3317 86.454 69.6936 86.4785 69.0556 86.4785C67.2151 86.4785 66.0372 85.8159 65.1538 84.3681C64.5157 83.3128 64.0495 82.3067 63.5832 81.2515C63.3378 80.7116 63.0188 80.5398 62.5035 80.5398C61.7918 80.5398 61.7673 80.5889 61.7673 80.9816V83.4601C61.7673 85.3006 61.89 85.4478 62.7979 85.6196L63.3378 85.7178V86.4294C62.2826 86.3803 61.3501 86.3803 60.393 86.3803C59.3869 86.3803 58.5035 86.4049 57.4482 86.4294V85.7178L57.9881 85.6196C58.8961 85.4478 59.0188 85.3251 59.0188 83.4601V76.3681Z" fill="white"/>
<path d="M76.4907 80.7606C76.9569 80.7606 77.0551 80.7115 76.8833 80.1717L76.368 78.552C76.0735 77.6931 75.7299 76.6134 75.5336 76.1717C75.3864 76.6379 74.9692 77.7177 74.6747 78.6502L74.1594 80.1471C73.9876 80.687 74.0858 80.7606 74.5766 80.7606H76.4907ZM74.2085 81.8404C73.7177 81.8404 73.6686 81.8649 73.5459 82.233L72.7606 84.5643C72.6379 84.9569 72.6134 85.1287 72.6134 85.276C72.6134 85.3987 72.8833 85.5213 73.4477 85.6195L74.0612 85.7177C74.1839 85.8649 74.233 86.3312 74.0122 86.4293C73.3005 86.3802 72.5888 86.3802 71.7299 86.3802C71.0428 86.3802 70.5766 86.4293 69.6686 86.4293C69.4477 86.3066 69.4723 85.8894 69.6195 85.7177L70.1594 85.6686C70.6502 85.595 71.0428 85.4477 71.3864 84.6625C71.7299 83.8526 72.098 82.8956 72.6625 81.4477L74.5029 76.5398C74.9692 75.2637 75.3128 74.5766 75.2391 73.9876C76.1962 73.7667 76.9569 72.7852 76.9815 72.7852C77.2514 72.7852 77.3741 72.8833 77.4477 73.1778C77.595 73.7667 77.8404 74.5029 78.3557 75.9263L81.0796 83.8036C81.4968 85.006 81.6931 85.4723 82.4293 85.595L83.1901 85.7177L83.1655 86.4293C82.2085 86.3802 81.1042 86.3802 80.0735 86.3802C79.0674 86.3802 78.2821 86.4048 77.3496 86.4293C77.1287 86.3066 77.0796 85.8894 77.3005 85.7177L77.9385 85.6195C78.4048 85.5459 78.4784 85.3987 78.4784 85.276C78.4784 85.1287 78.3312 84.6625 78.0858 83.9017L77.5459 82.1839C77.4477 81.8649 77.276 81.8158 76.5888 81.8158H74.2085V81.8404Z" fill="white"/>
<path d="M95.7303 82.9693C95.7303 84.2699 95.7303 85.546 95.7793 86.2085C95.6321 86.4539 95.0677 86.6748 94.6014 86.6748C94.5769 86.6748 93.9143 85.6441 92.9818 84.4908L88.3438 78.7484C87.1658 77.3251 86.5033 76.4662 86.1597 76.1717C86.0616 76.3681 86.0616 76.7116 86.0616 77.4478V81.3497C86.0616 82.9693 86.1352 84.4908 86.356 85.0306C86.5278 85.4478 86.9941 85.5951 87.5339 85.6687L88.0984 85.7423V86.4539C87.0186 86.4049 86.2088 86.4049 85.399 86.4049C84.6628 86.4049 83.902 86.4294 83.1413 86.4539V85.7423L83.4849 85.6932C84.0247 85.5951 84.4419 85.4478 84.5892 85.0306C84.81 84.4908 84.8591 82.9938 84.8591 81.3497V76.2454C84.8591 75.1411 84.8346 74.8221 84.7119 74.5276C84.5401 74.184 84.2701 73.9386 83.5585 73.8405L82.9941 73.7668C82.8468 73.5951 82.8714 73.1288 83.0677 73.0552C84.0247 73.1043 85.0063 73.1043 85.8407 73.1043C86.5278 73.1043 87.1168 73.0797 87.5339 73.0552C87.7303 73.9632 89.0554 75.4846 90.8468 77.6441L92.5401 79.6319C93.4235 80.6871 94.0125 81.3742 94.4787 81.8405C94.5524 81.6441 94.5524 81.3006 94.5524 80.9325V78.1595C94.5524 76.5398 94.4787 75.0184 94.2579 74.4785C94.0861 74.0613 93.6444 73.9141 93.08 73.8405L92.5401 73.7668V73.0552C93.6198 73.1043 94.4051 73.1043 95.2395 73.1043C95.9757 73.1043 96.7119 73.0797 97.4971 73.0552V73.7668L97.129 73.8159C96.6137 73.8895 96.2211 74.0613 96.0493 74.4785C95.8284 75.0184 95.7548 76.5398 95.7548 78.1595V82.9693H95.7303Z" fill="white"/>
<path d="M102.822 82.7486C102.822 83.8528 102.871 84.589 103.215 85.0062C103.583 85.3989 104.172 85.5952 104.883 85.5952C108.368 85.5952 109.546 82.5032 109.546 79.7547C109.546 76.1473 107.632 73.9878 104 73.9878C103.46 73.9878 103.067 74.086 102.945 74.2578C102.822 74.4295 102.797 74.7976 102.797 75.4357V82.7486H102.822ZM99.9508 76.3682C99.9508 74.4541 99.9017 74.086 98.9938 73.9633L98.6011 73.9142C98.4048 73.816 98.4048 73.2271 98.6502 73.2025C100.343 73.1044 101.914 73.0308 104.049 73.0308C105.693 73.0308 107.337 73.2025 108.736 73.6933C111.362 74.6504 112.81 77.0062 112.81 79.5338C112.81 82.2332 111.534 84.3927 109.202 85.5461C107.828 86.2332 106.184 86.4786 104.123 86.4786C103.19 86.4786 102.184 86.3559 101.448 86.3559C100.491 86.3559 99.46 86.3805 98.3066 86.405V85.6933L98.9201 85.5952C99.8281 85.4479 99.9508 85.3007 99.9508 83.4357V76.3682Z" fill="white"/>
<path d="M50.577 90.1349C48.0985 90.1349 46.7733 92.4417 46.7733 95.8036C46.7733 98.2576 47.6322 102.184 50.9206 102.184C53.5463 102.184 54.577 99.6073 54.577 96.3435C54.577 92.9325 53.0801 90.1349 50.577 90.1349ZM57.7917 96.0981C57.7917 100.491 54.8469 103.117 50.5279 103.117C46.4788 103.117 43.5586 100.466 43.5586 96.2699C43.5586 92.2944 46.5279 89.2024 50.7242 89.2024C54.9206 89.2024 57.7917 92.0245 57.7917 96.0981Z" fill="white"/>
<path d="M63.7793 94.9201C63.7793 95.46 63.8038 95.5336 64.3437 95.5336H65.8897C66.9449 95.5336 67.1658 95.3864 67.3866 94.4048L67.4848 93.914L68.2455 93.9385C68.1964 94.5766 68.1964 95.3373 68.1964 96.0981C68.1964 96.8342 68.221 97.595 68.2455 98.1839L67.4848 98.2085L67.3866 97.7177C67.1903 96.7606 66.9694 96.5888 65.8897 96.5888H64.3437C63.8038 96.5888 63.7793 96.6379 63.7793 97.2023V99.9263C63.7793 101.791 63.902 101.963 64.8099 102.086L65.5461 102.184V102.896C64.2946 102.847 63.313 102.847 62.3559 102.847C61.4234 102.847 60.4173 102.871 59.2148 102.896V102.184L59.8774 102.086C60.7854 101.939 60.9081 101.816 60.9081 99.9263V92.4416C60.9081 90.5766 60.7854 90.3803 59.8774 90.2576L59.4848 90.2085C59.313 90.0858 59.313 89.595 59.5339 89.4968C60.3928 89.5459 61.3989 89.5459 62.3805 89.5459H66.6013C67.8774 89.5459 69.0308 89.5214 69.3253 89.4968C69.3253 89.8404 69.3253 91.2882 69.3744 92.6379C69.3007 92.8588 68.859 92.8833 68.6136 92.7115C68.3928 91.8772 68.221 91.4109 68.0247 91.141C67.6811 90.7238 67.0676 90.4784 66.0615 90.4784H64.4909C63.8283 90.4784 63.8283 90.5275 63.8283 91.3128V94.9201H63.7793Z" fill="white"/>
<path d="M78.8468 91.0429C78.8468 90.5521 78.8468 90.454 78.356 90.454H77.1045C75.6321 90.454 75.2149 91.2638 74.6014 92.7362C74.356 92.8589 73.9879 92.8098 73.8652 92.5644C74.2824 91.1901 74.3806 89.9386 74.5278 89.1533L74.7978 89.0552L75.0677 89.1288C75.1658 89.4724 75.2395 89.546 76.7609 89.546H84.2456C85.5708 89.546 85.8652 89.5214 86.0616 89.1043L86.3315 89.0552L86.626 89.2024C86.4297 89.8895 86.2824 91.5092 86.3315 92.6625L85.5953 92.7116C85.2517 91.4355 84.9818 90.4785 83.4603 90.4785H82.2579C81.7671 90.4785 81.718 90.5521 81.718 91.0674V99.9263C81.718 101.791 81.8407 101.963 82.7487 102.086L83.5585 102.184V102.896C82.2579 102.847 81.2517 102.847 80.3438 102.847C79.3867 102.847 78.3315 102.871 76.9327 102.896V102.184L77.8407 102.086C78.7487 101.988 78.8714 101.816 78.8714 99.9263V91.0429H78.8468Z" fill="white"/>
<path d="M92.6868 96.4172C91.8525 96.4172 91.8525 96.4417 91.8525 97.0061V99.9019C91.8525 101.767 91.9752 101.939 92.8831 102.061L93.5212 102.135V102.847C92.3678 102.798 91.3617 102.798 90.4782 102.798C89.5212 102.798 88.515 102.822 87.4844 102.847V102.135L87.9752 102.086C88.9077 101.963 89.0058 101.767 89.0058 99.9019V92.4172C89.0058 90.5522 88.9077 90.3558 87.9752 90.2331L87.4844 90.1841V89.4724C88.466 89.5215 89.5212 89.5215 90.4782 89.5215C91.3862 89.5215 92.3924 89.497 93.2758 89.4724V90.1841L92.8586 90.2331C91.9997 90.3558 91.877 90.5522 91.877 92.4172V94.7485C91.877 95.3374 91.9016 95.362 92.7114 95.362H96.8831C97.7175 95.362 97.7175 95.3374 97.7175 94.7485V92.4172C97.7175 90.5522 97.6193 90.3804 96.6868 90.2577L96.147 90.1841V89.4724C97.2512 89.5215 98.2328 89.5215 99.1899 89.5215C100.171 89.5215 101.104 89.497 102.037 89.4724V90.1841L101.644 90.2331C100.711 90.3804 100.589 90.5522 100.589 92.4172V99.9019C100.589 101.767 100.711 101.914 101.644 102.061L102.135 102.135V102.847C101.129 102.798 100.147 102.798 99.2144 102.798C98.2083 102.798 97.2267 102.822 96.2697 102.847V102.135L96.7114 102.086C97.6439 101.963 97.742 101.767 97.742 99.9019V97.0061C97.742 96.4417 97.742 96.4172 96.9077 96.4172H92.6868Z" fill="white"/>
<path d="M108.049 94.7484C108.049 95.3128 108.074 95.3619 108.614 95.3619H110.012C111.068 95.3619 111.288 95.2146 111.509 94.2576L111.607 93.7422L112.344 93.7668C112.295 94.4048 112.295 95.141 112.295 95.9017C112.295 96.6625 112.319 97.3987 112.344 98.0367L111.607 98.0613L111.509 97.5459C111.313 96.5889 111.068 96.4171 110.012 96.4171H108.614C108.074 96.4171 108.049 96.4416 108.049 97.0306V99.411C108.049 100.343 108.123 100.982 108.368 101.325C108.638 101.693 109.006 101.84 110.479 101.84C112.221 101.84 112.908 101.767 114.012 99.5091C114.184 99.2883 114.675 99.3619 114.749 99.6073C114.675 100.662 114.184 102.282 113.914 102.822C112.859 102.773 110.92 102.773 109.276 102.773H106.675C105.718 102.773 104.736 102.797 103.215 102.822V102.11L104.172 101.963C105.08 101.816 105.203 101.693 105.203 99.8527V92.3435C105.203 90.503 105.08 90.4048 104.172 90.2085L103.657 90.1103C103.485 89.9876 103.509 89.5214 103.706 89.3987C104.663 89.4478 105.644 89.4723 106.601 89.4723H110.871C112.147 89.4723 113.301 89.4478 113.571 89.3987C113.595 89.7177 113.742 91.1656 113.841 92.5152C113.767 92.7361 113.301 92.7852 113.104 92.5889C112.884 91.8772 112.589 91.2883 112.344 90.9938C111.951 90.6011 111.362 90.3803 110.38 90.3803H108.712C108.049 90.3803 108.049 90.4294 108.049 91.1656V94.7484Z" fill="white"/>
<path d="M61.4721 116.319C61.4721 118.184 61.5948 118.356 62.5028 118.478L63.3126 118.577V119.288C62.012 119.239 61.0304 119.239 60.0488 119.239C59.0918 119.239 58.0856 119.264 56.8832 119.288V118.577L57.5703 118.478C58.4783 118.331 58.601 118.209 58.601 116.319V115.313C58.601 114.307 58.5764 113.988 58.0611 112.908L55.6807 107.975C55.2881 107.141 55.0918 106.822 54.4047 106.699L53.7175 106.577C53.5458 106.405 53.5458 105.939 53.7912 105.865C54.6991 105.914 55.4353 105.914 56.6378 105.914C57.8648 105.914 58.8955 105.89 59.5826 105.865L59.6316 106.577L58.8955 106.748C58.5274 106.822 58.4047 106.92 58.4047 106.92C58.4047 107.092 58.5028 107.386 58.92 108.319L59.8525 110.478C60.147 111.141 60.6132 112.074 60.8586 112.564C61.4476 111.583 62.0611 110.282 62.5764 109.251C63.2881 107.828 63.5335 107.215 63.5335 106.969C63.5335 106.847 63.2145 106.724 62.7237 106.65L62.331 106.577C62.1593 106.478 62.1593 105.963 62.3556 105.865C63.1654 105.914 63.877 105.914 64.6132 105.914C65.374 105.914 66.012 105.89 66.5764 105.865C66.8218 105.939 66.8218 106.429 66.6501 106.577L66.1347 106.675C65.7666 106.724 65.3004 106.871 65.0795 107.166C64.785 107.558 64.2942 108.27 63.3372 110.012L62.0611 112.294C61.5458 113.251 61.3985 113.742 61.3985 114.896V116.319H61.4721Z" fill="white"/>
<path d="M70.8217 111.166C70.8217 111.73 70.8462 111.779 71.3861 111.779H72.7603C73.8155 111.779 74.0364 111.632 74.2572 110.675L74.3554 110.159L75.0916 110.184C75.0425 110.822 75.0425 111.558 75.0425 112.319C75.0425 113.08 75.0671 113.816 75.0916 114.454L74.3554 114.478L74.2572 113.963C74.0609 113.006 73.8155 112.834 72.7603 112.834H71.3861C70.8462 112.834 70.8217 112.859 70.8217 113.448V115.828C70.8217 116.761 70.8953 117.399 71.1407 117.742C71.4106 118.11 71.7787 118.258 73.2511 118.258C74.9934 118.258 75.6806 118.184 76.7848 115.926C76.9566 115.705 77.4474 115.779 77.521 116.025C77.4474 117.08 76.9566 118.699 76.6867 119.239C75.6315 119.19 73.6928 119.19 72.0487 119.19H69.4474C68.4904 119.19 67.5088 119.215 65.9873 119.239V118.528L66.9444 118.38C67.8523 118.233 67.975 118.11 67.975 116.27V108.761C67.975 106.92 67.8523 106.822 66.9444 106.626L66.429 106.528C66.2572 106.405 66.2572 105.939 66.4781 105.816C67.4352 105.865 68.4168 105.89 69.3738 105.89H73.6192C74.8953 105.89 76.0487 105.865 76.3186 105.816C76.3431 106.135 76.4658 107.583 76.5885 108.932C76.5149 109.153 76.0487 109.202 75.8523 109.006C75.6315 108.294 75.337 107.705 75.0916 107.411C74.699 107.018 74.11 106.798 73.1284 106.798H71.5088C70.8462 106.798 70.8462 106.847 70.8462 107.583V111.166H70.8217Z" fill="white"/>
<path d="M83.9996 113.595C84.4659 113.595 84.564 113.546 84.3922 113.006L83.8769 111.386C83.607 110.528 83.2389 109.448 83.0425 109.006C82.8708 109.472 82.4781 110.552 82.1836 111.485L81.6683 112.982C81.4965 113.521 81.5947 113.595 82.0855 113.595H83.9996ZM81.6928 114.675C81.202 114.675 81.153 114.699 81.0303 115.067L80.245 117.399C80.1223 117.791 80.0977 117.963 80.0977 118.11C80.0977 118.233 80.3677 118.356 80.9321 118.454L81.5456 118.552C81.6683 118.699 81.7174 119.166 81.4965 119.264C80.7849 119.215 80.0732 119.215 79.2143 119.215C78.5272 119.215 78.0609 119.264 77.153 119.264C76.9321 119.141 76.9566 118.724 77.1039 118.552L77.6438 118.503C78.1346 118.429 78.5272 118.282 78.8708 117.497C79.2143 116.687 79.5824 115.73 80.1468 114.282L81.9873 109.374C82.4536 108.098 82.7971 107.411 82.7235 106.822C83.6806 106.601 84.4413 105.62 84.4658 105.62C84.7358 105.62 84.8339 105.718 84.9321 106.012C85.1039 106.601 85.3247 107.337 85.8401 108.761L88.564 116.638C88.9812 117.84 89.1775 118.307 89.9137 118.429L90.6744 118.552L90.6499 119.264C89.6928 119.215 88.5885 119.215 87.5579 119.215C86.5517 119.215 85.7665 119.239 84.8339 119.264C84.6131 119.141 84.564 118.724 84.7849 118.552L85.4229 118.454C85.8892 118.38 85.9628 118.233 85.9628 118.11C85.9628 117.963 85.8155 117.497 85.5701 116.736L85.0303 115.018C84.9321 114.699 84.7603 114.65 84.0732 114.65H81.6928V114.675Z" fill="white"/>
<path d="M95.1657 111.755C95.1657 112.466 95.2148 112.515 96.4172 112.515C97.1289 112.515 97.5706 112.344 97.9387 111.951C98.2823 111.607 98.6504 110.969 98.6504 109.791C98.6504 107.976 97.5951 106.822 96.0246 106.822C95.1902 106.822 95.1657 106.871 95.1657 107.853V111.755ZM92.4172 109.203C92.4172 107.19 92.3682 106.969 91.5338 106.847L90.9939 106.773C90.7976 106.675 90.7976 106.16 91.043 106.061C92.5399 105.963 94.1105 105.89 96.0246 105.89C97.7424 105.89 99.1902 106.16 99.9755 106.601C101.129 107.288 101.742 108.295 101.742 109.571C101.742 111.362 100.54 112.123 99.6074 112.589C99.4111 112.687 99.4111 112.81 99.5093 113.031C100.834 115.73 101.669 117.227 102.626 118.061C103.141 118.479 103.681 118.601 103.976 118.626L104.049 119.141C103.73 119.288 103.092 119.313 102.454 119.313C100.614 119.313 99.4356 118.65 98.5522 117.203C97.9142 116.147 97.4479 115.141 96.9816 114.086C96.7363 113.546 96.4172 113.374 95.9019 113.374C95.1902 113.374 95.1657 113.423 95.1657 113.816V116.319C95.1657 118.16 95.2884 118.307 96.1964 118.479L96.7363 118.577V119.288C95.681 119.239 94.7485 119.239 93.7915 119.239C92.7853 119.239 91.9019 119.264 90.8467 119.288V118.577L91.3866 118.479C92.2945 118.307 92.4172 118.184 92.4172 116.319V109.203Z" fill="white"/>
</svg>
