<svg width="160" height="160" viewBox="0 0 160 160" fill="none" xmlns="http://www.w3.org/2000/svg">
<path fill-rule="evenodd" clip-rule="evenodd" d="M87.9513 101.742L83.6813 94.8711V101.742H81.5709V90.5521H83.4605L87.7304 97.4233V90.5521H89.8408V101.742H87.9513ZM87.2151 79.2638C87.2151 78.3558 86.6016 77.7178 85.6445 77.7178H83.6813V80.7852H85.6445C86.6016 80.7852 87.2151 80.1717 87.2151 79.2638ZM89.3255 79.2638C89.3255 81.1779 88.0003 82.7484 85.7672 82.7484H83.6813V86.9693H81.5709V75.7791H85.7427C88.0003 75.7546 89.3255 77.3497 89.3255 79.2638ZM89.2519 67.5828V65.9386H85.1783V67.7546H87.166V68.1717C87.166 68.7607 87.0187 69.2515 86.6752 69.6687C86.3316 70.0613 85.8163 70.3067 85.1783 70.3067C84.6138 70.3067 84.123 70.0858 83.8286 69.7178C83.4114 69.2515 83.3132 68.7116 83.3132 66.5521C83.3132 64.3926 83.4114 63.8773 83.8286 63.411C84.123 63.0429 84.5893 62.822 85.1783 62.822C86.258 62.822 86.8715 63.411 87.1169 64.4662H89.2273C88.9329 62.5766 87.6568 60.8834 85.1783 60.8834C83.9758 60.8834 83.0187 61.3251 82.2825 62.1104C81.2028 63.2392 81.2273 64.638 81.2273 66.5766C81.2273 68.5153 81.2028 69.9141 82.2825 71.0429C83.0433 71.8282 84.0003 72.2699 85.1783 72.2699C86.3316 72.2699 87.3623 71.9263 88.2212 70.9938C88.9819 70.184 89.2519 69.2024 89.2519 67.5828ZM77.3991 71.7546C76.0985 67.6809 72.7856 64.638 68.2457 62.773C71.9758 64.7607 74.6506 67.7055 75.6077 71.3865C78.1353 80.9079 68.393 91.8282 53.8654 95.7546C39.3378 99.6809 25.4973 95.1411 22.9697 85.6196C22.1108 82.3558 22.6752 78.9447 24.393 75.6809C20.8347 80.3926 19.3868 85.595 20.9083 90.2822C24.123 100.245 39.3623 104.147 54.9697 99.0429C70.5525 93.9141 80.5893 81.6932 77.3991 71.7546ZM21.6936 76.0736C21.6936 76.0736 12.8102 77.546 5.32549 91.5582C5.27641 91.6564 11.3868 82.2331 19.7059 79.4846C19.8531 79.4355 21.6936 76.0736 21.6936 76.0736ZM57.9881 57.9877C71.1414 53.5705 94.2825 58.5521 94.2825 58.5521C71.3378 49.227 53.4236 56.8589 53.4236 56.8589L57.9881 57.9877ZM132.712 90.5276C132.712 90.5276 138.062 97.5705 152.54 96.8343C152.638 96.8343 142.381 96.3926 136.319 90.503C136.221 90.4049 132.712 90.5276 132.712 90.5276Z" fill="#EF8409"/>
<path fill-rule="evenodd" clip-rule="evenodd" d="M92.0486 101.742V94.1349H96.7358V95.1656H93.1529V97.3987H96.1959V98.4294H93.1529V100.712H96.7358V101.742H92.0486ZM102.748 95.1656V94.1349H97.5947V95.1656H99.6069V101.742H100.711V95.1656H102.748ZM111.926 94.1349H110.748L109.472 99.5828L108 94.1349H107.092L105.619 99.5828L104.343 94.1349H103.165L105.079 101.742H106.036L107.509 96.3926L109.006 101.742H109.987L111.926 94.1349ZM116.785 97.9386C116.785 96.4171 116.711 95.9754 116.343 95.5828C116.098 95.2883 115.681 95.1165 115.263 95.1165C114.822 95.1165 114.429 95.2883 114.159 95.5828C113.791 95.9999 113.717 96.4171 113.717 97.9386C113.717 99.4601 113.791 99.9018 114.159 100.294C114.404 100.589 114.822 100.761 115.263 100.761C115.705 100.761 116.098 100.589 116.343 100.294C116.711 99.9018 116.785 99.4846 116.785 97.9386ZM117.889 97.9386C117.889 99.411 117.914 100.245 117.177 101.006C116.662 101.521 116.024 101.816 115.239 101.816C114.454 101.816 113.816 101.521 113.325 101.006C112.613 100.27 112.613 99.411 112.613 97.9386C112.613 96.4662 112.613 95.6318 113.325 94.8711C113.84 94.3558 114.478 94.0613 115.239 94.0613C116.024 94.0613 116.662 94.3558 117.177 94.8711C117.914 95.6318 117.889 96.4662 117.889 97.9386ZM123.558 96.368C123.558 95.6319 123.043 95.1656 122.306 95.1656H120.662V97.546H122.306C123.043 97.546 123.558 97.1288 123.558 96.368ZM123.582 101.742L122.036 98.5276H120.638V101.742H119.533V94.1349H122.38C123.779 94.1349 124.662 95.0674 124.662 96.368C124.662 97.4478 124.024 98.1595 123.19 98.3803L124.883 101.742H123.582ZM132 101.742L129.374 97.1042L131.754 94.1104H130.404L127.411 97.9386V94.1104H126.306V101.718H127.411V99.5091L128.638 97.9631L130.699 101.718H132V101.742ZM93.0793 81.0797L91.9259 84.4662H94.1836L93.0793 81.0797ZM94.9934 86.9693L94.4781 85.4478H91.5824L91.0671 86.9693H89.8891L92.5885 79.3619H93.4965L96.1959 86.9693H94.9934ZM101.816 84.7852C101.816 84.1226 101.619 83.5828 101.227 83.2147C100.908 82.9202 100.539 82.7484 99.8523 82.6502L99.018 82.5275C98.6744 82.4785 98.3799 82.3558 98.1836 82.184C97.9873 82.0122 97.9137 81.7668 97.9137 81.4723C97.9137 80.8098 98.3799 80.2944 99.2634 80.2944C99.8769 80.2944 100.417 80.4417 100.858 80.8834L101.57 80.1472C100.932 79.5337 100.27 79.2883 99.2879 79.2883C97.7664 79.2883 96.8339 80.1963 96.8339 81.5214C96.8339 82.1349 97.0057 82.6257 97.3738 82.9693C97.6928 83.2883 98.1591 83.4846 98.7726 83.5828L99.6315 83.7055C100.073 83.7791 100.245 83.8527 100.441 84.0245C100.638 84.1963 100.736 84.4907 100.736 84.8098C100.736 85.546 100.171 85.9631 99.2143 85.9631C98.4535 85.9631 97.8646 85.7914 97.3493 85.2269L96.6131 85.9877C97.3247 86.7239 98.11 86.9938 99.2143 86.9938C100.711 87.0184 101.816 86.184 101.816 84.7852ZM107.779 84.7852C107.779 84.1226 107.582 83.5828 107.19 83.2147C106.871 82.9202 106.503 82.7484 105.816 82.6502L104.981 82.5275C104.638 82.4785 104.343 82.3558 104.147 82.184C103.95 82.0122 103.877 81.7668 103.877 81.4723C103.877 80.8098 104.343 80.2944 105.227 80.2944C105.84 80.2944 106.38 80.4417 106.822 80.8834L107.533 80.1472C106.895 79.5337 106.233 79.2883 105.251 79.2883C103.73 79.2883 102.797 80.1963 102.797 81.5214C102.797 82.1349 102.969 82.6257 103.337 82.9693C103.656 83.2883 104.122 83.4846 104.736 83.5828L105.595 83.7055C106.036 83.7791 106.208 83.8527 106.404 84.0245C106.601 84.1963 106.699 84.4907 106.699 84.8098C106.699 85.546 106.135 85.9631 105.177 85.9631C104.417 85.9631 103.828 85.7914 103.312 85.2269L102.576 85.9877C103.288 86.7239 104.073 86.9938 105.177 86.9938C106.674 87.0184 107.779 86.184 107.779 84.7852ZM113.963 86.9693V85.9386H110.38V83.6564H113.423V82.6257H110.38V80.3926H113.963V79.3619H109.276V86.9693H113.963ZM121.006 86.9693V79.3619H119.901V84.7116L116.515 79.3619H115.484V86.9693H116.589V81.6196L119.975 86.9693H121.006ZM127.975 83.9999V82.822H125.3V83.8036H126.871V84.2208C126.871 84.7116 126.773 85.1042 126.503 85.4233C126.208 85.7668 125.791 85.9631 125.3 85.9631C124.858 85.9631 124.466 85.7914 124.22 85.4969C123.852 85.0797 123.779 84.6625 123.779 83.1165C123.779 81.595 123.852 81.1533 124.22 80.7607C124.49 80.4662 124.883 80.2944 125.3 80.2944C126.135 80.2944 126.65 80.7852 126.846 81.6196H127.975C127.779 80.319 126.871 79.2638 125.3 79.2638C124.515 79.2638 123.877 79.5582 123.362 80.0736C122.65 80.8343 122.65 81.6687 122.65 83.141C122.65 84.6134 122.65 85.4478 123.362 86.2085C123.877 86.7239 124.515 87.0184 125.3 87.0184C126.061 87.0184 126.773 86.7484 127.312 86.1595C127.803 85.6196 127.975 85.0061 127.975 83.9999ZM134.282 86.9693V85.9386H130.699V83.6564H133.742V82.6257H130.699V80.3926H134.282V79.3619H129.595V86.9693H134.282ZM139.828 81.595C139.828 80.8588 139.312 80.3926 138.576 80.3926H136.932V82.7729H138.576C139.312 82.7729 139.828 82.3312 139.828 81.595ZM139.852 86.9693L138.306 83.7545H136.932V86.9693H135.828V79.3619H138.65C140.049 79.3619 140.932 80.2944 140.932 81.595C140.932 82.6748 140.294 83.3865 139.46 83.6073L141.153 86.9693H139.852ZM95.7296 72.1717V71.141H92.1959V64.5644H91.0916V72.1717H95.7296ZM100.589 68.368C100.589 66.8466 100.515 66.4049 100.147 66.0122C99.8769 65.7177 99.4842 65.546 99.0425 65.546C98.6008 65.546 98.2082 65.7177 97.9628 66.0122C97.5947 66.4294 97.521 66.8466 97.521 68.368C97.521 69.8895 97.5947 70.3312 97.9628 70.7239C98.2082 71.0183 98.6253 71.1901 99.0425 71.1901C99.4842 71.1901 99.8769 71.0183 100.147 70.7239C100.515 70.3312 100.589 69.8895 100.589 68.368ZM101.693 68.368C101.693 69.8404 101.717 70.6748 100.981 71.4355C100.466 71.9509 99.8278 72.2453 99.0425 72.2453C98.2572 72.2453 97.6192 71.9509 97.1284 71.4355C96.4167 70.6993 96.4167 69.8404 96.4167 68.368C96.4167 66.8957 96.4167 66.0613 97.1284 65.3006C97.6437 64.7852 98.2818 64.4907 99.0425 64.4907C99.8278 64.4907 100.466 64.7852 100.981 65.3006C101.717 66.0613 101.693 66.8957 101.693 68.368ZM107.411 69.9631C107.411 69.3006 106.969 68.8098 106.208 68.8098H104.466V71.141H106.208C106.993 71.141 107.411 70.6503 107.411 69.9631ZM107.312 66.6993C107.312 65.9877 106.822 65.6196 106.11 65.6196H104.466V67.8036H106.11C106.822 67.7791 107.312 67.3864 107.312 66.6993ZM108.539 70.0368C108.539 71.4355 107.631 72.1963 106.331 72.1963H103.362V64.5889H106.208C107.558 64.5889 108.417 65.3987 108.417 66.6748C108.417 67.5091 107.926 68.0736 107.435 68.2944C108 68.4907 108.539 69.0552 108.539 70.0368ZM112.466 66.2822L111.312 69.6687H113.57L112.466 66.2822ZM114.38 72.1717L113.865 70.6503H110.969L110.454 72.1717H109.276L111.975 64.5644H112.883L115.582 72.1717H114.38ZM121.251 72.1717V71.141H117.717V64.5644H116.613V72.1717H121.251ZM41.4965 95.1165C41.6192 95.3128 37.8155 94.8957 37.8155 94.8957C37.8155 94.8957 36.8585 93.1042 36.5885 89.6441C31.5333 88.8588 28.4658 87.2392 28.4658 87.2392C31.337 87.7055 34.0118 87.9263 36.5149 87.9754C36.4904 86.3312 36.6376 84.3926 37.0548 82.184C37.0548 82.184 37.5947 84.8588 38.5272 87.9754C42.429 87.8772 45.8646 87.2883 48.8339 86.4049C47.656 81.9141 45.791 76.2944 42.8953 71.3619C36.7603 72.6871 32.2204 70.6012 32.3677 70.6012C40.3677 70.6012 45.0548 68.3435 47.7542 65.9631C46.0118 64.4171 44.8339 63.6318 44.8339 63.6318C46.2572 63.9754 47.6069 64.4171 48.8339 64.9079C49.9137 63.73 50.5517 62.6012 50.8953 61.8159C49.1775 61.3742 47.3615 61.1288 45.4965 61.1288C39.2879 61.1288 33.6928 63.7545 29.7419 67.9263C34.0855 61.8895 41.1284 57.9631 49.0548 57.9631C62.0364 57.9631 72.6131 68.4417 72.9075 81.4723C71.3124 83.7791 69.1284 85.9631 66.5026 87.8772C66.9198 86.2331 67.1161 84.4907 67.1161 82.6993C67.1161 82.1349 67.0916 81.546 67.0425 80.9815C66.0118 81.7668 64.9812 82.503 63.9505 83.1656C64.7848 86.6257 64.7603 89.1042 64.7603 89.1042L61.0793 91.0183C60.9321 89.0552 60.6131 87.1901 60.1468 85.3987C57.8401 86.6012 55.6069 87.5337 53.4474 88.2208C53.8646 89.865 54.2082 91.6318 54.4045 93.4969C54.429 93.7177 50.5026 94.6257 50.5026 94.6257C50.5026 94.6257 50.2327 92.4907 49.521 89.276C45.6683 90.0858 42.1591 90.1595 39.1407 89.9141C39.8278 91.8527 40.6131 93.7423 41.4965 95.1165ZM52.4904 85.0797C54.9689 84.0245 57.0793 82.7484 58.8462 81.4233C56.5885 75.7545 53.0793 71.2883 50.1591 68.2699C47.9259 69.7423 45.7419 70.6503 43.7296 71.1656C46.0855 73.4723 50.0609 78.1104 52.4904 85.0797ZM62.3799 78.3312C63.7787 76.8834 64.8094 75.5337 65.4965 74.4785C63.5578 69.7914 59.9996 65.9386 55.5333 63.6073C54.4781 64.7852 53.4229 65.7914 52.3677 66.6503C57.5701 69.7668 60.6131 74.2085 62.3799 78.3312ZM60.3431 98.4539C64.6621 96.4171 68.3677 93.8159 71.2634 90.9202C67.7787 99.8282 59.1407 106.135 49.0793 106.135C44.4413 106.135 40.1223 104.81 36.4658 102.503L36.9075 102.552C39.5333 103.705 42.4536 104.319 45.4965 104.319C51.2634 104.344 56.4658 102.11 60.3431 98.4539ZM132.024 96.2208C132.27 96.4417 132.589 96.5644 132.957 96.5644C133.472 96.5644 133.816 96.2944 133.816 95.8527C133.816 95.5092 133.595 95.1901 133.153 95.1411C133.03 95.1165 132.957 95.1165 132.883 95.1165C132.638 95.0674 132.539 94.9447 132.539 94.7975C132.539 94.5521 132.711 94.4539 132.957 94.4539C133.177 94.4539 133.374 94.5276 133.546 94.6503L133.742 94.3312C133.521 94.184 133.251 94.0858 132.957 94.0858C132.466 94.0858 132.171 94.3803 132.171 94.7975C132.171 95.1656 132.392 95.4355 132.809 95.4846C132.932 95.5091 133.03 95.5091 133.128 95.5337C133.349 95.5582 133.447 95.6809 133.447 95.8773C133.447 96.0736 133.276 96.2208 132.957 96.2208C132.687 96.2208 132.441 96.1226 132.27 95.9754L132.024 96.2208ZM134.208 96.5398H134.576V94.9938L135.092 96.1717H135.411L135.926 94.9938V96.5398H136.294V94.0858H135.95L135.263 95.6809L134.576 94.0858H134.233V96.5398H134.208Z" fill="white"/>
</svg>
