<svg width="80" height="80" viewBox="0 0 80 80" fill="none" xmlns="http://www.w3.org/2000/svg">
<g clip-path="url(#clip0_191_7378)">
<path d="M71.111 13.334H8.88878C7.71004 13.334 6.57958 13.8022 5.74608 14.6357C4.91259 15.4692 4.44434 16.5997 4.44434 17.7784V62.2229C4.44434 63.4016 4.91259 64.5321 5.74608 65.3656C6.57958 66.1991 7.71004 66.6673 8.88878 66.6673H71.111C72.2897 66.6673 73.4202 66.1991 74.2537 65.3656C75.0872 64.5321 75.5554 63.4016 75.5554 62.2229V17.7784C75.5554 16.5997 75.0872 15.4692 74.2537 14.6357C73.4202 13.8022 72.2897 13.334 71.111 13.334ZM67.6888 62.2229H12.5777L28.1332 46.134L24.9332 43.0451L8.88878 59.6451V21.1562L36.511 48.6451C37.3437 49.4729 38.4702 49.9375 39.6443 49.9375C40.8185 49.9375 41.9449 49.4729 42.7777 48.6451L71.111 20.4673V59.3562L54.7554 43.0007L51.6221 46.134L67.6888 62.2229ZM11.7999 17.7784H67.511L39.6443 45.4895L11.7999 17.7784Z" fill="white"/>
</g>
<defs>
<clipPath id="clip0_191_7378">
<rect width="80" height="80" fill="white"/>
</clipPath>
</defs>
</svg>
