<svg width="563" height="305" viewBox="0 0 563 305" fill="none" xmlns="http://www.w3.org/2000/svg">
<path d="M159.749 4.68515C159.317 4.34148 159.245 3.71241 159.588 3.28008C159.932 2.84775 160.561 2.77587 160.993 3.11954L159.749 4.68515ZM314.949 126.779V127.779H314.6L314.326 127.562L314.949 126.779ZM350.897 126.779V125.779H351.254L351.53 126.005L350.897 126.779ZM447.299 201.279C447.299 204.224 444.911 206.612 441.966 206.612C439.02 206.612 436.632 204.224 436.632 201.279C436.632 198.333 439.02 195.946 441.966 195.946C444.911 195.946 447.299 198.333 447.299 201.279ZM160.993 3.11954L315.571 125.996L314.326 127.562L159.749 4.68515L160.993 3.11954ZM314.949 125.779H350.897V127.779H314.949V125.779ZM351.53 126.005L442.599 200.505L441.333 202.053L350.264 127.553L351.53 126.005Z" fill="white" fill-opacity="0.1"/>
<path d="M402.422 169.383C401.87 169.383 401.422 168.935 401.422 168.383C401.422 167.831 401.87 167.383 402.422 167.383V169.383ZM456.345 168.383V167.383H456.695L456.969 167.601L456.345 168.383ZM562.333 248.688C562.333 251.634 559.946 254.021 557 254.021C554.054 254.021 551.667 251.634 551.667 248.688C551.667 245.743 554.054 243.355 557 243.355C559.946 243.355 562.333 245.743 562.333 248.688ZM402.422 167.383H456.345V169.383H402.422V167.383ZM456.969 167.601L557.624 247.906L556.376 249.47L455.721 169.165L456.969 167.601Z" fill="white" fill-opacity="0.1"/>
<path d="M327.501 128.524C327.071 128.177 327.004 127.548 327.351 127.118C327.698 126.688 328.328 126.621 328.757 126.968L327.501 128.524ZM378.457 168.382L379.085 167.604L379.364 167.829L379.436 168.18L378.457 168.382ZM384.448 197.408L383.77 198.143L383.534 197.925L383.469 197.611L384.448 197.408ZM431.721 236.11C431.721 239.055 429.333 241.443 426.388 241.443C423.442 241.443 421.054 239.055 421.054 236.11C421.054 233.164 423.442 230.776 426.388 230.776C429.333 230.776 431.721 233.164 431.721 236.11ZM328.757 126.968L379.085 167.604L377.828 169.16L327.501 128.524L328.757 126.968ZM379.436 168.18L385.427 197.206L383.469 197.611L377.477 168.585L379.436 168.18ZM385.126 196.674L427.066 235.375L425.71 236.845L383.77 198.143L385.126 196.674Z" fill="white" fill-opacity="0.1"/>
<path d="M256.431 82.2734C256.431 81.7212 256.879 81.2734 257.431 81.2734C257.983 81.2734 258.431 81.7212 258.431 82.2734H256.431ZM257.431 115.17L256.848 115.982L256.431 115.683V115.17H257.431ZM354.491 184.832L355.074 184.019L355.491 184.319V184.832H354.491ZM354.491 221.598L353.892 222.399L353.491 222.099V221.598H354.491ZM425.73 270.942C425.73 273.888 423.342 276.276 420.396 276.276C417.451 276.276 415.063 273.888 415.063 270.942C415.063 267.997 417.451 265.609 420.396 265.609C423.342 265.609 425.73 267.997 425.73 270.942ZM258.431 82.2734V115.17H256.431V82.2734H258.431ZM258.014 114.357L355.074 184.019L353.908 185.644L256.848 115.982L258.014 114.357ZM355.491 184.832V221.598H353.491V184.832H355.491ZM355.091 220.798L420.996 270.142L419.797 271.743L353.892 222.399L355.091 220.798Z" fill="white" fill-opacity="0.1"/>
<path d="M299.569 147.098C299.569 146.545 300.017 146.098 300.569 146.098C301.121 146.098 301.569 146.545 301.569 147.098H299.569ZM300.569 208.052L299.941 208.83L299.569 208.53V208.052H300.569ZM350.239 243.851C350.239 246.796 347.851 249.184 344.905 249.184C341.96 249.184 339.572 246.796 339.572 243.851C339.572 240.905 341.96 238.518 344.905 238.518C347.851 238.518 350.239 240.905 350.239 243.851ZM301.569 147.098V208.052H299.569V147.098H301.569ZM301.197 207.274L345.533 243.073L344.277 244.629L299.941 208.83L301.197 207.274Z" fill="white" fill-opacity="0.1"/>
<path d="M117.815 5.65906C117.38 5.31902 117.303 4.69056 117.643 4.25538C117.983 3.8202 118.612 3.74307 119.047 4.08312L117.815 5.65906ZM198.057 62.923C198.057 65.8686 195.67 68.2564 192.724 68.2564C189.779 68.2564 187.391 65.8686 187.391 62.923C187.391 59.9775 189.779 57.5897 192.724 57.5897C195.67 57.5897 198.057 59.9775 198.057 62.923ZM119.047 4.08312L193.34 62.1351L192.108 63.711L117.815 5.65906L119.047 4.08312Z" fill="white" fill-opacity="0.1"/>
<path d="M88.4745 1V19.3831L268.216 158.708V208.052L322.138 249.656" stroke="white" stroke-opacity="0.1" stroke-width="2" stroke-linecap="round"/>
<path d="M287.587 224.5C287.587 223.948 288.034 223.5 288.587 223.5C289.139 223.5 289.587 223.948 289.587 224.5H287.587ZM288.587 255.461L287.906 256.193L287.587 255.897V255.461H288.587ZM328.13 292.227L328.238 293.221L327.784 293.271L327.449 292.96L328.13 292.227ZM377.799 287.39C377.799 290.335 375.411 292.723 372.466 292.723C369.52 292.723 367.132 290.335 367.132 287.39C367.132 284.444 369.52 282.056 372.466 282.056C375.411 282.056 377.799 284.444 377.799 287.39ZM289.587 224.5V255.461H287.587V224.5H289.587ZM289.267 254.729L328.811 291.495L327.449 292.96L287.906 256.193L289.267 254.729ZM328.021 291.233L372.357 286.396L372.574 288.384L328.238 293.221L328.021 291.233Z" fill="white" fill-opacity="0.1"/>
<path d="M9.97206 6.62655C9.5365 6.28698 9.45868 5.65862 9.79823 5.22306C10.1378 4.78749 10.7662 4.70967 11.2017 5.04923L9.97206 6.62655ZM45.3369 32.9288V33.9288H44.9931L44.722 33.7175L45.3369 32.9288ZM78.8886 32.9288V31.9288H79.2389L79.5126 32.1474L78.8886 32.9288ZM194.463 120.974C194.463 123.92 192.075 126.308 189.13 126.308C186.184 126.308 183.797 123.92 183.797 120.974C183.797 118.029 186.184 115.641 189.13 115.641C192.075 115.641 194.463 118.029 194.463 120.974ZM11.2017 5.04923L45.9517 32.1401L44.722 33.7175L9.97206 6.62655L11.2017 5.04923ZM45.3369 31.9288H78.8886V33.9288H45.3369V31.9288ZM79.5126 32.1474L189.754 120.193L188.506 121.756L78.2645 33.7102L79.5126 32.1474Z" fill="white" fill-opacity="0.1"/>
<path d="M1.53491 33.6754C1.12198 33.3087 1.08453 32.6766 1.45129 32.2637C1.81805 31.8507 2.4501 31.8133 2.86304 32.1801L1.53491 33.6754ZM38.1472 64.8563V65.8563H37.7672L37.4832 65.604L38.1472 64.8563ZM80.0869 64.8563V63.8563H80.432L80.7037 64.0692L80.0869 64.8563ZM243.052 192.571L243.669 191.784L244.052 192.084V192.571H243.052ZM243.052 255.46L242.433 256.245L242.052 255.945V255.46H243.052ZM299.911 296.097C299.911 299.042 297.524 301.43 294.578 301.43C291.633 301.43 289.245 299.042 289.245 296.097C289.245 293.151 291.633 290.763 294.578 290.763C297.524 290.763 299.911 293.151 299.911 296.097ZM2.86304 32.1801L38.8113 64.1086L37.4832 65.604L1.53491 33.6754L2.86304 32.1801ZM38.1472 63.8563H80.0869V65.8563H38.1472V63.8563ZM80.7037 64.0692L243.669 191.784L242.435 193.358L79.47 65.6434L80.7037 64.0692ZM244.052 192.571V255.46H242.052V192.571H244.052ZM243.672 254.675L295.197 295.311L293.959 296.882L242.433 256.245L243.672 254.675Z" fill="white" fill-opacity="0.1"/>
<path d="M57.8964 66.6082C57.4634 66.2653 57.3904 65.6364 57.7333 65.2034C58.0761 64.7704 58.7051 64.6974 59.138 65.0403L57.8964 66.6082ZM183.138 164.513L183.759 163.729L184.138 164.029V164.513H183.138ZM183.138 204.181L182.481 204.935L182.138 204.636V204.181H183.138ZM218.428 230.305C218.428 233.25 216.04 235.638 213.095 235.638C210.149 235.638 207.761 233.25 207.761 230.305C207.761 227.359 210.149 224.971 213.095 224.971C216.04 224.971 218.428 227.359 218.428 230.305ZM59.138 65.0403L183.759 163.729L182.517 165.297L57.8964 66.6082L59.138 65.0403ZM184.138 164.513V204.181H182.138V164.513H184.138ZM183.795 203.428L213.752 229.551L212.437 231.058L182.481 204.935L183.795 203.428Z" fill="white" fill-opacity="0.1"/>
<path d="M0.342026 82.0574C-0.0736694 81.6937 -0.115891 81.062 0.247726 80.6463C0.611343 80.2306 1.2431 80.1884 1.6588 80.552L0.342026 82.0574ZM15.3797 93.8826L16.0381 93.1299L16.3797 93.4287V93.8826H15.3797ZM15.3797 137.422L14.7538 138.202L14.3797 137.901V137.422H15.3797ZM209.5 293.194V294.194H209.149L208.874 293.974L209.5 293.194ZM226.276 293.194V292.194H226.555L226.794 292.339L226.276 293.194ZM241.196 298.999C241.196 301.945 238.808 304.333 235.862 304.333C232.917 304.333 230.529 301.945 230.529 298.999C230.529 296.054 232.917 293.666 235.862 293.666C238.808 293.666 241.196 296.054 241.196 298.999ZM1.6588 80.552L16.0381 93.1299L14.7213 94.6353L0.342026 82.0574L1.6588 80.552ZM16.3797 93.8826V137.422H14.3797V93.8826H16.3797ZM16.0056 136.642L210.126 292.414L208.874 293.974L14.7538 138.202L16.0056 136.642ZM209.5 292.194H226.276V294.194H209.5V292.194ZM226.794 292.339L236.38 298.144L235.344 299.855L225.758 294.05L226.794 292.339Z" fill="white" fill-opacity="0.1"/>
<path d="M174.949 267.297C174.949 266.745 175.396 266.297 175.949 266.297C176.501 266.297 176.949 266.745 176.949 267.297H174.949ZM181.282 294.388C181.282 297.333 178.894 299.721 175.949 299.721C173.003 299.721 170.615 297.333 170.615 294.388C170.615 291.442 173.003 289.054 175.949 289.054C178.894 289.054 181.282 291.442 181.282 294.388ZM176.949 267.297V294.388H174.949V267.297H176.949Z" fill="white" fill-opacity="0.1"/>
<path d="M63.5089 179.025C63.5089 178.473 63.9566 178.025 64.5089 178.025C65.0612 178.025 65.5089 178.473 65.5089 179.025H63.5089ZM64.5089 219.662L63.9211 220.471L63.5089 220.171V219.662H64.5089ZM148.388 280.616L148.976 279.807L149.388 280.107V280.616H148.388ZM153.722 296.097C153.722 299.042 151.334 301.43 148.388 301.43C145.443 301.43 143.055 299.042 143.055 296.097C143.055 293.151 145.443 290.763 148.388 290.763C151.334 290.763 153.722 293.151 153.722 296.097ZM65.5089 179.025V219.662H63.5089V179.025H65.5089ZM65.0968 218.853L148.976 279.807L147.8 281.425L63.9211 220.471L65.0968 218.853ZM149.388 280.616V296.097H147.388V280.616H149.388Z" fill="white" fill-opacity="0.1"/>
<path d="M17.1389 105.296C16.7132 104.944 16.6534 104.314 17.0053 103.888C17.3571 103.463 17.9875 103.403 18.4131 103.755L17.1389 105.296ZM118.431 187.733V188.733H118.071L117.794 188.504L118.431 187.733ZM137.604 187.733V186.733H137.925L138.187 186.921L137.604 187.733ZM169.957 210.954L170.54 210.142L170.957 210.441V210.954H169.957ZM169.957 241.915L169.301 242.67L168.957 242.371V241.915H169.957ZM201.112 269.006V270.006H200.738L200.456 269.761L201.112 269.006ZM232.267 269.006V268.006H232.621L232.895 268.228L232.267 269.006ZM267.557 293.194C267.557 296.14 265.17 298.528 262.224 298.528C259.279 298.528 256.891 296.14 256.891 293.194C256.891 290.249 259.279 287.861 262.224 287.861C265.17 287.861 267.557 290.249 267.557 293.194ZM18.4131 103.755L119.068 186.962L117.794 188.504L17.1389 105.296L18.4131 103.755ZM118.431 186.733H137.604V188.733H118.431V186.733ZM138.187 186.921L170.54 210.142L169.374 211.766L137.02 188.546L138.187 186.921ZM170.957 210.954V241.915H168.957V210.954H170.957ZM170.613 241.16L201.768 268.251L200.456 269.761L169.301 242.67L170.613 241.16ZM201.112 268.006H232.267V270.006H201.112V268.006ZM232.895 268.228L262.852 292.416L261.596 293.972L231.639 269.784L232.895 268.228Z" fill="white" fill-opacity="0.1"/>
<path d="M0.379498 191.421C-0.053669 191.078 -0.127075 190.45 0.215542 190.016C0.558159 189.583 1.18705 189.51 1.62022 189.852L0.379498 191.421ZM65.0487 237.078C65.0487 240.024 62.6609 242.412 59.7153 242.412C56.7698 242.412 54.382 240.024 54.382 237.078C54.382 234.133 56.7698 231.745 59.7153 231.745C62.6609 231.745 65.0487 234.133 65.0487 237.078ZM1.62022 189.852L60.3357 236.294L59.095 237.863L0.379498 191.421L1.62022 189.852Z" fill="white" fill-opacity="0.1"/>
<path d="M15.5782 204.182C15.5782 203.629 16.0259 203.182 16.5782 203.182C17.1305 203.182 17.5782 203.629 17.5782 204.182H15.5782ZM16.5782 241.915L15.9567 242.699L15.5782 242.399V241.915H16.5782ZM90.2132 296.097C90.2132 299.043 87.8254 301.431 84.8799 301.431C81.9344 301.431 79.5465 299.043 79.5465 296.097C79.5465 293.152 81.9344 290.764 84.8799 290.764C87.8254 290.764 90.2132 293.152 90.2132 296.097ZM17.5782 204.182V241.915H15.5782V204.182H17.5782ZM17.1997 241.132L85.5014 295.314L84.2584 296.881L15.9567 242.699L17.1997 241.132Z" fill="white" fill-opacity="0.1"/>
<path d="M46.5355 266.137C45.9832 266.137 45.5355 265.689 45.5355 265.137C45.5355 264.584 45.9832 264.137 46.5355 264.137V266.137ZM76.4923 265.137V264.137H76.7995L77.0537 264.309L76.4923 265.137ZM111.783 285.455C111.783 288.4 109.395 290.788 106.449 290.788C103.504 290.788 101.116 288.4 101.116 285.455C101.116 282.509 103.504 280.122 106.449 280.122C109.395 280.122 111.783 282.509 111.783 285.455ZM46.5355 264.137H76.4923V266.137H46.5355V264.137ZM77.0537 264.309L107.011 284.627L105.888 286.283L75.931 265.964L77.0537 264.309Z" fill="white" fill-opacity="0.1"/>
</svg>
