<svg width="563" height="305" viewBox="0 0 563 305" fill="none" xmlns="http://www.w3.org/2000/svg">
<path d="M403.251 4.68564C403.683 4.34197 403.755 3.7129 403.412 3.28057C403.068 2.84823 402.439 2.77636 402.007 3.12003L403.251 4.68564ZM248.051 126.779V127.779H248.4L248.674 127.562L248.051 126.779ZM212.103 126.779V125.779H211.746L211.47 126.005L212.103 126.779ZM115.701 201.279C115.701 204.225 118.089 206.613 121.034 206.613C123.98 206.613 126.368 204.225 126.368 201.279C126.368 198.334 123.98 195.946 121.034 195.946C118.089 195.946 115.701 198.334 115.701 201.279ZM402.007 3.12003L247.429 125.997L248.674 127.562L403.251 4.68564L402.007 3.12003ZM248.051 125.779H212.103V127.779H248.051V125.779ZM211.47 126.005L120.401 200.505L121.667 202.053L212.736 127.553L211.47 126.005Z" fill="white" fill-opacity="0.1"/>
<path d="M160.578 169.383C161.13 169.383 161.578 168.936 161.578 168.383C161.578 167.831 161.13 167.383 160.578 167.383V169.383ZM106.655 168.383V167.383H106.305L106.031 167.602L106.655 168.383ZM0.666667 248.689C0.666667 251.634 3.05448 254.022 6 254.022C8.94552 254.022 11.3333 251.634 11.3333 248.689C11.3333 245.743 8.94552 243.355 6 243.355C3.05448 243.355 0.666667 245.743 0.666667 248.689ZM160.578 167.383H106.655V169.383H160.578V167.383ZM106.031 167.602L5.37634 247.907L6.62366 249.47L107.279 169.165L106.031 167.602Z" fill="white" fill-opacity="0.1"/>
<path d="M235.499 128.525C235.929 128.178 235.996 127.548 235.649 127.118C235.302 126.689 234.672 126.622 234.243 126.969L235.499 128.525ZM184.543 168.383L183.915 167.605L183.636 167.83L183.564 168.181L184.543 168.383ZM178.552 197.409L179.23 198.144L179.466 197.926L179.531 197.611L178.552 197.409ZM131.279 236.11C131.279 239.056 133.667 241.444 136.612 241.444C139.558 241.444 141.946 239.056 141.946 236.11C141.946 233.165 139.558 230.777 136.612 230.777C133.667 230.777 131.279 233.165 131.279 236.11ZM234.243 126.969L183.915 167.605L185.172 169.161L235.499 128.525L234.243 126.969ZM183.564 168.181L177.573 197.207L179.531 197.611L185.523 168.585L183.564 168.181ZM177.874 196.674L135.934 235.375L137.29 236.845L179.23 198.144L177.874 196.674Z" fill="white" fill-opacity="0.1"/>
<path d="M306.569 82.2729C306.569 81.7207 306.121 81.2729 305.569 81.2729C305.017 81.2729 304.569 81.7207 304.569 82.2729H306.569ZM305.569 115.169L306.152 115.981L306.569 115.682V115.169H305.569ZM208.509 184.831L207.926 184.019L207.509 184.318V184.831H208.509ZM208.509 221.598L209.108 222.398L209.509 222.098V221.598H208.509ZM137.27 270.942C137.27 273.887 139.658 276.275 142.604 276.275C145.549 276.275 147.937 273.887 147.937 270.942C147.937 267.996 145.549 265.608 142.604 265.608C139.658 265.608 137.27 267.996 137.27 270.942ZM304.569 82.2729V115.169H306.569V82.2729H304.569ZM304.986 114.357L207.926 184.019L209.092 185.644L306.152 115.981L304.986 114.357ZM207.509 184.831V221.598H209.509V184.831H207.509ZM207.909 220.797L142.004 270.141L143.203 271.742L209.108 222.398L207.909 220.797Z" fill="white" fill-opacity="0.1"/>
<path d="M263.431 147.098C263.431 146.545 262.983 146.098 262.431 146.098C261.879 146.098 261.431 146.545 261.431 147.098H263.431ZM262.431 208.052L263.059 208.83L263.431 208.53V208.052H262.431ZM212.761 243.851C212.761 246.796 215.149 249.184 218.095 249.184C221.04 249.184 223.428 246.796 223.428 243.851C223.428 240.905 221.04 238.518 218.095 238.518C215.149 238.518 212.761 240.905 212.761 243.851ZM261.431 147.098V208.052H263.431V147.098H261.431ZM261.803 207.274L217.467 243.073L218.723 244.629L263.059 208.83L261.803 207.274Z" fill="white" fill-opacity="0.1"/>
<path d="M445.184 5.65809C445.619 5.31804 445.696 4.68959 445.356 4.2544C445.016 3.81922 444.388 3.7421 443.953 4.08215L445.184 5.65809ZM364.942 62.9221C364.942 65.8676 367.33 68.2554 370.275 68.2554C373.221 68.2554 375.609 65.8676 375.609 62.9221C375.609 59.9766 373.221 57.5887 370.275 57.5887C367.33 57.5887 364.942 59.9766 364.942 62.9221ZM443.953 4.08215L369.66 62.1341L370.891 63.71L445.184 5.65809L443.953 4.08215Z" fill="white" fill-opacity="0.1"/>
<path d="M474.525 1V19.3831L294.784 158.708V208.052L240.861 249.656" stroke="white" stroke-opacity="0.1" stroke-width="2" stroke-linecap="round"/>
<path d="M275.413 224.5C275.413 223.948 274.966 223.5 274.413 223.5C273.861 223.5 273.413 223.948 273.413 224.5H275.413ZM274.413 255.461L275.094 256.193L275.413 255.897V255.461H274.413ZM234.87 292.227L234.762 293.221L235.216 293.271L235.551 292.96L234.87 292.227ZM185.201 287.39C185.201 290.335 187.589 292.723 190.534 292.723C193.48 292.723 195.868 290.335 195.868 287.39C195.868 284.444 193.48 282.056 190.534 282.056C187.589 282.056 185.201 284.444 185.201 287.39ZM273.413 224.5V255.461H275.413V224.5H273.413ZM273.733 254.729L234.189 291.495L235.551 292.96L275.094 256.193L273.733 254.729ZM234.979 291.233L190.643 286.396L190.426 288.384L234.762 293.221L234.979 291.233Z" fill="white" fill-opacity="0.1"/>
<path d="M553.028 6.62655C553.464 6.28698 553.541 5.65862 553.202 5.22306C552.862 4.78749 552.234 4.70967 551.798 5.04923L553.028 6.62655ZM517.663 32.9288V33.9288H518.007L518.278 33.7175L517.663 32.9288ZM484.111 32.9288V31.9288H483.761L483.487 32.1474L484.111 32.9288ZM368.537 120.974C368.537 123.92 370.925 126.308 373.87 126.308C376.816 126.308 379.203 123.92 379.203 120.974C379.203 118.029 376.816 115.641 373.87 115.641C370.925 115.641 368.537 118.029 368.537 120.974ZM551.798 5.04923L517.048 32.1401L518.278 33.7175L553.028 6.62655L551.798 5.04923ZM517.663 31.9288H484.111V33.9288H517.663V31.9288ZM483.487 32.1474L373.246 120.193L374.494 121.756L484.735 33.7102L483.487 32.1474Z" fill="white" fill-opacity="0.1"/>
<path d="M561.465 33.6764C561.878 33.3096 561.915 32.6776 561.549 32.2646C561.182 31.8517 560.55 31.8143 560.137 32.181L561.465 33.6764ZM524.853 64.8573V65.8573H525.233L525.517 65.605L524.853 64.8573ZM482.913 64.8573V63.8573H482.568L482.296 64.0702L482.913 64.8573ZM319.948 192.572L319.331 191.785L318.948 192.085V192.572H319.948ZM319.948 255.461L320.567 256.246L320.948 255.946V255.461H319.948ZM263.089 296.098C263.089 299.043 265.476 301.431 268.422 301.431C271.367 301.431 273.755 299.043 273.755 296.098C273.755 293.152 271.367 290.764 268.422 290.764C265.476 290.764 263.089 293.152 263.089 296.098ZM560.137 32.181L524.189 64.1096L525.517 65.605L561.465 33.6764L560.137 32.181ZM524.853 63.8573H482.913V65.8573H524.853V63.8573ZM482.296 64.0702L319.331 191.785L320.565 193.359L483.53 65.6444L482.296 64.0702ZM318.948 192.572V255.461H320.948V192.572H318.948ZM319.328 254.676L267.803 295.312L269.041 296.883L320.567 256.246L319.328 254.676Z" fill="white" fill-opacity="0.1"/>
<path d="M505.104 66.6087C505.537 66.2658 505.61 65.6369 505.267 65.2039C504.924 64.7709 504.295 64.6979 503.862 65.0408L505.104 66.6087ZM379.862 164.513L379.241 163.729L378.862 164.029V164.513H379.862ZM379.862 204.182L380.519 204.936L380.862 204.637V204.182H379.862ZM344.572 230.305C344.572 233.251 346.96 235.639 349.905 235.639C352.851 235.639 355.239 233.251 355.239 230.305C355.239 227.36 352.851 224.972 349.905 224.972C346.96 224.972 344.572 227.36 344.572 230.305ZM503.862 65.0408L379.241 163.729L380.483 165.297L505.104 66.6087L503.862 65.0408ZM378.862 164.513V204.182H380.862V164.513H378.862ZM379.205 203.428L349.248 229.552L350.563 231.059L380.519 204.936L379.205 203.428Z" fill="white" fill-opacity="0.1"/>
<path d="M562.658 82.0579C563.074 81.6942 563.116 81.0625 562.752 80.6468C562.389 80.2311 561.757 80.1889 561.341 80.5525L562.658 82.0579ZM547.62 93.8831L546.962 93.1304L546.62 93.4292V93.8831H547.62ZM547.62 137.422L548.246 138.202L548.62 137.902V137.422H547.62ZM353.5 293.195V294.195H353.851L354.126 293.975L353.5 293.195ZM336.724 293.195V292.195H336.445L336.206 292.339L336.724 293.195ZM321.804 299C321.804 301.945 324.192 304.333 327.138 304.333C330.083 304.333 332.471 301.945 332.471 299C332.471 296.054 330.083 293.667 327.138 293.667C324.192 293.667 321.804 296.054 321.804 299ZM561.341 80.5525L546.962 93.1304L548.279 94.6358L562.658 82.0579L561.341 80.5525ZM546.62 93.8831V137.422H548.62V93.8831H546.62ZM546.994 136.642L352.874 292.415L354.126 293.975L548.246 138.202L546.994 136.642ZM353.5 292.195H336.724V294.195H353.5V292.195ZM336.206 292.339L326.62 298.145L327.656 299.855L337.242 294.05L336.206 292.339Z" fill="white" fill-opacity="0.1"/>
<path d="M388.051 267.297C388.051 266.745 387.603 266.297 387.051 266.297C386.498 266.297 386.051 266.745 386.051 267.297H388.051ZM381.717 294.388C381.717 297.333 384.105 299.721 387.051 299.721C389.996 299.721 392.384 297.333 392.384 294.388C392.384 291.442 389.996 289.054 387.051 289.054C384.105 289.054 381.717 291.442 381.717 294.388ZM386.051 267.297V294.388H388.051V267.297H386.051Z" fill="white" fill-opacity="0.1"/>
<path d="M499.491 179.026C499.491 178.474 499.043 178.026 498.491 178.026C497.938 178.026 497.491 178.474 497.491 179.026H499.491ZM498.491 219.662L499.078 220.471L499.491 220.172V219.662H498.491ZM414.611 280.617L414.023 279.808L413.611 280.107V280.617H414.611ZM409.278 296.097C409.278 299.043 411.666 301.431 414.611 301.431C417.557 301.431 419.945 299.043 419.945 296.097C419.945 293.152 417.557 290.764 414.611 290.764C411.666 290.764 409.278 293.152 409.278 296.097ZM497.491 179.026V219.662H499.491V179.026H497.491ZM497.903 218.853L414.023 279.808L415.199 281.426L499.078 220.471L497.903 218.853ZM413.611 280.617V296.097H415.611V280.617H413.611Z" fill="white" fill-opacity="0.1"/>
<path d="M545.861 105.297C546.286 104.945 546.346 104.314 545.994 103.889C545.642 103.463 545.012 103.403 544.586 103.755L545.861 105.297ZM444.568 187.734V188.734H444.928L445.206 188.504L444.568 187.734ZM425.396 187.734V186.734H425.074L424.813 186.921L425.396 187.734ZM393.043 210.954L392.459 210.142L392.043 210.441V210.954H393.043ZM393.043 241.915L393.699 242.67L394.043 242.371V241.915H393.043ZM361.887 269.006V270.006H362.261L362.544 269.761L361.887 269.006ZM330.732 269.006V268.006H330.379L330.104 268.228L330.732 269.006ZM295.442 293.195C295.442 296.14 297.83 298.528 300.775 298.528C303.721 298.528 306.109 296.14 306.109 293.195C306.109 290.249 303.721 287.861 300.775 287.861C297.83 287.861 295.442 290.249 295.442 293.195ZM544.586 103.755L443.931 186.963L445.206 188.504L545.861 105.297L544.586 103.755ZM444.568 186.734H425.396V188.734H444.568V186.734ZM424.813 186.921L392.459 210.142L393.626 211.767L425.979 188.546L424.813 186.921ZM392.043 210.954V241.915H394.043V210.954H392.043ZM392.386 241.161L361.231 268.252L362.544 269.761L393.699 242.67L392.386 241.161ZM361.887 268.006H330.732V270.006H361.887V268.006ZM330.104 268.228L300.147 292.417L301.404 293.973L331.36 269.784L330.104 268.228Z" fill="white" fill-opacity="0.1"/>
<path d="M562.621 191.421C563.054 191.078 563.128 190.449 562.785 190.016C562.442 189.583 561.813 189.509 561.38 189.852L562.621 191.421ZM497.952 237.078C497.952 240.023 500.34 242.411 503.285 242.411C506.231 242.411 508.618 240.023 508.618 237.078C508.618 234.132 506.231 231.744 503.285 231.744C500.34 231.744 497.952 234.132 497.952 237.078ZM561.38 189.852L502.665 236.293L503.906 237.862L562.621 191.421L561.38 189.852Z" fill="white" fill-opacity="0.1"/>
<path d="M547.422 204.182C547.422 203.629 546.974 203.182 546.422 203.182C545.87 203.182 545.422 203.629 545.422 204.182H547.422ZM546.422 241.915L547.043 242.699L547.422 242.399V241.915H546.422ZM472.787 296.097C472.787 299.043 475.175 301.431 478.12 301.431C481.066 301.431 483.453 299.043 483.453 296.097C483.453 293.152 481.066 290.764 478.12 290.764C475.175 290.764 472.787 293.152 472.787 296.097ZM545.422 204.182V241.915H547.422V204.182H545.422ZM545.8 241.132L477.499 295.314L478.742 296.881L547.043 242.699L545.8 241.132Z" fill="white" fill-opacity="0.1"/>
<path d="M516.465 266.136C517.017 266.136 517.465 265.689 517.465 265.136C517.465 264.584 517.017 264.136 516.465 264.136V266.136ZM486.508 265.136V264.136H486.201L485.946 264.309L486.508 265.136ZM451.217 285.454C451.217 288.4 453.605 290.788 456.551 290.788C459.496 290.788 461.884 288.4 461.884 285.454C461.884 282.509 459.496 280.121 456.551 280.121C453.605 280.121 451.217 282.509 451.217 285.454ZM516.465 264.136H486.508V266.136H516.465V264.136ZM485.946 264.309L455.989 284.627L457.112 286.282L487.069 265.964L485.946 264.309Z" fill="white" fill-opacity="0.1"/>
</svg>
