<svg width="16" height="17" viewBox="0 0 16 17" fill="none" xmlns="http://www.w3.org/2000/svg">
<g clip-path="url(#clip0_1_12129)">
<path d="M10.9971 1.14404C11.2623 1.14404 11.5166 1.2494 11.7042 1.43694C11.8917 1.62447 11.9971 1.87883 11.9971 2.14404V14.144C11.9971 14.4093 11.8917 14.6636 11.7042 14.8511C11.5166 15.0387 11.2623 15.144 10.9971 15.144H4.99707C4.73185 15.144 4.4775 15.0387 4.28996 14.8511C4.10243 14.6636 3.99707 14.4093 3.99707 14.144V2.14404C3.99707 1.87883 4.10243 1.62447 4.28996 1.43694C4.4775 1.2494 4.73185 1.14404 4.99707 1.14404H10.9971ZM4.99707 0.144043C4.46664 0.144043 3.95793 0.354757 3.58286 0.729829C3.20778 1.1049 2.99707 1.61361 2.99707 2.14404V14.144C2.99707 14.6745 3.20778 15.1832 3.58286 15.5583C3.95793 15.9333 4.46664 16.144 4.99707 16.144H10.9971C11.5275 16.144 12.0362 15.9333 12.4113 15.5583C12.7864 15.1832 12.9971 14.6745 12.9971 14.144V2.14404C12.9971 1.61361 12.7864 1.1049 12.4113 0.729829C12.0362 0.354757 11.5275 0.144043 10.9971 0.144043L4.99707 0.144043Z" fill="white"/>
<path d="M7.99707 14.144C8.26229 14.144 8.51664 14.0387 8.70418 13.8511C8.89171 13.6636 8.99707 13.4093 8.99707 13.144C8.99707 12.8788 8.89171 12.6245 8.70418 12.4369C8.51664 12.2494 8.26229 12.144 7.99707 12.144C7.73185 12.144 7.4775 12.2494 7.28996 12.4369C7.10243 12.6245 6.99707 12.8788 6.99707 13.144C6.99707 13.4093 7.10243 13.6636 7.28996 13.8511C7.4775 14.0387 7.73185 14.144 7.99707 14.144Z" fill="white"/>
</g>
<defs>
<clipPath id="clip0_1_12129">
<rect width="16" height="16" fill="white" transform="translate(-0.00292969 0.144043)"/>
</clipPath>
</defs>
</svg>
