<svg width="68" height="68" viewBox="0 0 68 68" fill="none" xmlns="http://www.w3.org/2000/svg">
<rect width="68" height="68" fill="white"/>
<rect width="48" height="48" transform="translate(10 10)" fill="#21D6D6"/>
<path d="M28.75 20.5H17.5C16.7044 20.5 15.9413 20.8161 15.3787 21.3787C14.8161 21.9413 14.5 22.7044 14.5 23.5V35.5C14.5 36.2956 14.8161 37.0587 15.3787 37.6213C15.9413 38.1839 16.7044 38.5 17.5 38.5H28.75V40C28.75 41.5913 28.1179 43.1174 26.9926 44.2426C25.8674 45.3679 24.3413 46 22.75 46C22.3522 46 21.9706 46.158 21.6893 46.4393C21.408 46.7206 21.25 47.1022 21.25 47.5C21.25 47.8978 21.408 48.2794 21.6893 48.5607C21.9706 48.842 22.3522 49 22.75 49C25.1362 48.9975 27.4239 48.0485 29.1112 46.3612C30.7985 44.6739 31.7475 42.3862 31.75 40V23.5C31.75 22.7044 31.4339 21.9413 30.8713 21.3787C30.3087 20.8161 29.5456 20.5 28.75 20.5ZM28.75 35.5H17.5V23.5H28.75V35.5ZM50.5 20.5H39.25C38.4544 20.5 37.6913 20.8161 37.1287 21.3787C36.5661 21.9413 36.25 22.7044 36.25 23.5V35.5C36.25 36.2956 36.5661 37.0587 37.1287 37.6213C37.6913 38.1839 38.4544 38.5 39.25 38.5H50.5V40C50.5 41.5913 49.8679 43.1174 48.7426 44.2426C47.6174 45.3679 46.0913 46 44.5 46C44.1022 46 43.7206 46.158 43.4393 46.4393C43.158 46.7206 43 47.1022 43 47.5C43 47.8978 43.158 48.2794 43.4393 48.5607C43.7206 48.842 44.1022 49 44.5 49C46.8862 48.9975 49.1739 48.0485 50.8612 46.3612C52.5485 44.6739 53.4975 42.3862 53.5 40V23.5C53.5 22.7044 53.1839 21.9413 52.6213 21.3787C52.0587 20.8161 51.2957 20.5 50.5 20.5ZM50.5 35.5H39.25V23.5H50.5V35.5Z" fill="white"/>
</svg>
