<svg width="40" height="41" viewBox="0 0 40 41" fill="none" xmlns="http://www.w3.org/2000/svg">
<path d="M18 8.98834C16.474 8.98834 15.05 9.41434 13.836 10.1563C13.7105 9.48516 13.4818 8.83748 13.158 8.23634C14.6806 7.39374 16.3967 6.96305 18.1367 6.98685C19.8768 7.01064 21.5805 7.48809 23.0794 8.37201C24.5784 9.25592 25.8208 10.5157 26.6838 12.0268C27.5467 13.538 28.0004 15.2482 28 16.9883H33.002C33.7973 16.9889 34.5599 17.3052 35.122 17.8677C35.6842 18.4303 36 19.193 36 19.9883V31.9883C36 32.784 35.6839 33.5471 35.1213 34.1097C34.5587 34.6723 33.7956 34.9883 33 34.9883H21C20.2043 34.9883 19.4413 34.6723 18.8787 34.1097C18.3161 33.5471 18 32.784 18 31.9883V26.9883C16.6088 26.9901 15.2326 26.7006 13.96 26.1383C13.986 25.4583 14 24.7443 14 23.9883V23.9183C15.176 24.5983 16.542 24.9883 18 24.9883V19.9883C18 19.1927 18.3161 18.4296 18.8787 17.867C19.4413 17.3044 20.2043 16.9883 21 16.9883H26C26 14.8666 25.1571 12.8318 23.6569 11.3315C22.1566 9.83119 20.1217 8.98834 18 8.98834ZM27.8 18.9883C27.4066 20.9095 26.4577 22.6728 25.0711 24.0594C23.6844 25.4461 21.9211 26.395 20 26.7883V31.9883C20 32.2536 20.1054 32.5079 20.2929 32.6954C20.4804 32.883 20.7348 32.9883 21 32.9883H33C33.2652 32.9883 33.5196 32.883 33.7071 32.6954C33.8946 32.5079 34 32.2536 34 31.9883V19.9883C34 19.7231 33.8946 19.4688 33.7071 19.2812C33.5196 19.0937 33.2652 18.9883 33 18.9883H27.8ZM25.748 18.9883H21C20.7348 18.9883 20.4804 19.0937 20.2929 19.2812C20.1054 19.4688 20 19.7231 20 19.9883V24.7363C21.3836 24.3779 22.6462 23.6559 23.6569 22.6452C24.6676 21.6345 25.3895 20.372 25.748 18.9883ZM9.162 5.23834C9.32801 5.38354 9.44135 5.57955 9.4844 5.79586C9.52744 6.01217 9.49777 6.23664 9.4 6.43434C9.38307 6.49285 9.37432 6.55343 9.374 6.61434C9.374 6.74034 9.406 6.98034 9.708 7.28034C9.854 7.42634 9.966 7.53034 10.088 7.64434C10.188 7.73634 10.294 7.83234 10.428 7.96434C10.688 8.21234 10.962 8.50434 11.208 8.87034C11.718 9.63634 12 10.5943 12 11.9883C12 13.6943 11.368 15.1483 10.382 16.0403L10.51 16.1883C11.07 16.8763 11.396 17.7683 11.6 18.6483C12 20.3883 12 22.4803 12 23.9383V23.9883C12 29.5623 11.242 32.7243 10.408 34.5323C9.988 35.4423 9.542 36.0223 9.156 36.3863C8.99907 36.5369 8.82603 36.6697 8.64 36.7823C8.55482 36.8336 8.4659 36.8784 8.374 36.9163C8.374 36.9163 8.148 36.9883 8 36.9883C7.852 36.9883 7.626 36.9163 7.626 36.9163C7.5331 36.8806 7.44399 36.8357 7.36 36.7823C7.17397 36.6697 7.00093 36.5369 6.844 36.3863C6.458 36.0203 6.012 35.4423 5.592 34.5323C4.758 32.7243 4 29.5623 4 23.9883V23.9383C4 22.4783 4 20.3883 4.4 18.6483C4.604 17.7683 4.93 16.8763 5.49 16.1883C5.53 16.1383 5.574 16.0883 5.618 16.0403C4.632 15.1483 4 13.6943 4 11.9883C4 11.3363 4.174 10.5583 4.414 9.84034C4.654 9.12034 4.99 8.37634 5.378 7.77634C5.84 6.99634 6.49 6.34234 6.994 5.90234C7.27032 5.65933 7.55868 5.43038 7.858 5.21634L7.918 5.17634L7.936 5.16234L7.942 5.15834L7.946 5.15634C8.12939 5.03409 8.34803 4.97586 8.56794 4.99069C8.78784 5.00551 8.99668 5.09258 9.162 5.23834ZM8 14.9883C8.774 14.9863 10 14.1283 10 11.9883C10 10.8823 9.782 10.3403 9.542 9.98034C9.39608 9.77007 9.22776 9.57627 9.04 9.40234L8.792 9.17034C8.63 9.01834 8.44 8.84234 8.292 8.69634C8.07326 8.47987 7.88548 8.23422 7.734 7.96634C7.47942 8.23402 7.25538 8.52917 7.066 8.84634C6.786 9.27634 6.514 9.86634 6.312 10.4743C6.104 11.0943 6 11.6423 6 11.9883C6 14.1323 7.23 14.9883 8 14.9883ZM7.04 17.4523C6.756 17.7983 6.52 18.3503 6.348 19.0983C6.004 20.5943 6 22.4743 6 23.9883C6 29.4143 6.742 32.2523 7.408 33.6943C7.628 34.1683 7.834 34.4843 8 34.6943C8.2363 34.3857 8.43503 34.05 8.592 33.6943C9.258 32.2523 10 29.4143 10 23.9883C10 22.4743 9.996 20.5943 9.65 19.0983C9.478 18.3503 9.242 17.7983 8.96 17.4523C8.84968 17.3029 8.70463 17.1825 8.53736 17.1017C8.3701 17.0208 8.18566 16.9819 8 16.9883H7.996C7.81098 16.9824 7.62728 17.0215 7.46074 17.1024C7.2942 17.1832 7.14981 17.3033 7.04 17.4523Z" fill="white"/>
</svg>
