<svg width="144" height="144" viewBox="0 0 144 144" fill="none" xmlns="http://www.w3.org/2000/svg">
<g filter="url(#filter0_d_771_672)">
<rect x="7" y="67.9883" width="89.079" height="89.079" rx="8" transform="rotate(-45 7 67.9883)" fill="#21D6D6"/>
</g>
<path d="M68 55.9882C66.474 55.9882 65.05 56.4142 63.836 57.1562C63.7105 56.485 63.4818 55.8373 63.158 55.2362C64.6806 54.3936 66.3967 53.9629 68.1367 53.9867C69.8768 54.0105 71.5805 54.488 73.0794 55.3719C74.5784 56.2558 75.8208 57.5156 76.6838 59.0267C77.5467 60.5378 78.0004 62.248 78 63.9882H83.002C83.7973 63.9887 84.5599 64.305 85.122 64.8676C85.6842 65.4301 86 66.1929 86 66.9882V78.9882C86 79.7839 85.6839 80.5469 85.1213 81.1095C84.5587 81.6721 83.7956 81.9882 83 81.9882H71C70.2043 81.9882 69.4413 81.6721 68.8787 81.1095C68.3161 80.5469 68 79.7839 68 78.9882V73.9882C66.6088 73.99 65.2326 73.7004 63.96 73.1382C63.986 72.4582 64 71.7442 64 70.9882V70.9182C65.176 71.5982 66.542 71.9882 68 71.9882V66.9882C68 66.1926 68.3161 65.4295 68.8787 64.8669C69.4413 64.3043 70.2043 63.9882 71 63.9882H76C76 61.8665 75.1571 59.8316 73.6569 58.3313C72.1566 56.8311 70.1217 55.9882 68 55.9882ZM77.8 65.9882C77.4066 67.9093 76.4577 69.6726 75.0711 71.0593C73.6844 72.4459 71.9211 73.3948 70 73.7882V78.9882C70 79.2534 70.1054 79.5078 70.2929 79.6953C70.4804 79.8828 70.7348 79.9882 71 79.9882H83C83.2652 79.9882 83.5196 79.8828 83.7071 79.6953C83.8946 79.5078 84 79.2534 84 78.9882V66.9882C84 66.723 83.8946 66.4686 83.7071 66.2811C83.5196 66.0936 83.2652 65.9882 83 65.9882H77.8ZM75.748 65.9882H71C70.7348 65.9882 70.4804 66.0936 70.2929 66.2811C70.1054 66.4686 70 66.723 70 66.9882V71.7362C71.3836 71.3777 72.6462 70.6558 73.6569 69.6451C74.6676 68.6344 75.3895 67.3718 75.748 65.9882ZM59.162 52.2382C59.328 52.3834 59.4414 52.5794 59.4844 52.7957C59.5274 53.012 59.4978 53.2365 59.4 53.4342C59.3831 53.4927 59.3743 53.5533 59.374 53.6142C59.374 53.7402 59.406 53.9802 59.708 54.2802C59.854 54.4262 59.966 54.5302 60.088 54.6442C60.188 54.7362 60.294 54.8322 60.428 54.9642C60.688 55.2122 60.962 55.5042 61.208 55.8702C61.718 56.6362 62 57.5942 62 58.9882C62 60.6942 61.368 62.1482 60.382 63.0402L60.51 63.1882C61.07 63.8762 61.396 64.7682 61.6 65.6482C62 67.3882 62 69.4802 62 70.9382V70.9882C62 76.5622 61.242 79.7242 60.408 81.5322C59.988 82.4422 59.542 83.0222 59.156 83.3862C58.9991 83.5368 58.826 83.6696 58.64 83.7822C58.5548 83.8335 58.4659 83.8783 58.374 83.9162C58.374 83.9162 58.148 83.9882 58 83.9882C57.852 83.9882 57.626 83.9162 57.626 83.9162C57.5331 83.8805 57.444 83.8356 57.36 83.7822C57.174 83.6696 57.0009 83.5368 56.844 83.3862C56.458 83.0202 56.012 82.4422 55.592 81.5322C54.758 79.7242 54 76.5622 54 70.9882V70.9382C54 69.4782 54 67.3882 54.4 65.6482C54.604 64.7682 54.93 63.8762 55.49 63.1882C55.53 63.1382 55.574 63.0882 55.618 63.0402C54.632 62.1482 54 60.6942 54 58.9882C54 58.3362 54.174 57.5582 54.414 56.8402C54.654 56.1202 54.99 55.3762 55.378 54.7762C55.84 53.9962 56.49 53.3422 56.994 52.9022C57.2703 52.6592 57.5587 52.4302 57.858 52.2162L57.918 52.1762L57.936 52.1622L57.942 52.1582L57.946 52.1562C58.1294 52.034 58.348 51.9757 58.5679 51.9905C58.7878 52.0054 58.9967 52.0924 59.162 52.2382ZM58 61.9882C58.774 61.9862 60 61.1282 60 58.9882C60 57.8822 59.782 57.3402 59.542 56.9802C59.3961 56.7699 59.2278 56.5761 59.04 56.4022L58.792 56.1702C58.63 56.0182 58.44 55.8422 58.292 55.6962C58.0733 55.4797 57.8855 55.2341 57.734 54.9662C57.4794 55.2339 57.2554 55.529 57.066 55.8462C56.786 56.2762 56.514 56.8662 56.312 57.4742C56.104 58.0942 56 58.6422 56 58.9882C56 61.1322 57.23 61.9882 58 61.9882ZM57.04 64.4522C56.756 64.7982 56.52 65.3502 56.348 66.0982C56.004 67.5942 56 69.4742 56 70.9882C56 76.4142 56.742 79.2522 57.408 80.6942C57.628 81.1682 57.834 81.4842 58 81.6942C58.2363 81.3855 58.435 81.0498 58.592 80.6942C59.258 79.2522 60 76.4142 60 70.9882C60 69.4742 59.996 67.5942 59.65 66.0982C59.478 65.3502 59.242 64.7982 58.96 64.4522C58.8497 64.3027 58.7046 64.1824 58.5374 64.1015C58.3701 64.0207 58.1857 63.9818 58 63.9882H57.996C57.811 63.9823 57.6273 64.0214 57.4607 64.1022C57.2942 64.1831 57.1498 64.3032 57.04 64.4522Z" fill="white"/>
<defs>
<filter id="filter0_d_771_672" x="0.313721" y="0.313477" width="143.349" height="143.35" filterUnits="userSpaceOnUse" color-interpolation-filters="sRGB">
<feFlood flood-opacity="0" result="BackgroundImageFix"/>
<feColorMatrix in="SourceAlpha" type="matrix" values="0 0 0 0 0 0 0 0 0 0 0 0 0 0 0 0 0 0 127 0" result="hardAlpha"/>
<feMorphology radius="4" operator="dilate" in="SourceAlpha" result="effect1_dropShadow_771_672"/>
<feOffset dx="2" dy="4"/>
<feGaussianBlur stdDeviation="4"/>
<feComposite in2="hardAlpha" operator="out"/>
<feColorMatrix type="matrix" values="0 0 0 0 0.2 0 0 0 0 0.2 0 0 0 0 0.2 0 0 0 0.2 0"/>
<feBlend mode="normal" in2="BackgroundImageFix" result="effect1_dropShadow_771_672"/>
<feBlend mode="normal" in="SourceGraphic" in2="effect1_dropShadow_771_672" result="shape"/>
</filter>
</defs>
</svg>
