<svg width="80" height="80" viewBox="0 0 80 80" fill="none" xmlns="http://www.w3.org/2000/svg">
<path d="M3.82825 38.6751V35.2518C3.82825 34.0125 4.72395 33.0064 5.84052 32.9941H12.9203C14.0368 33.0064 14.9325 34.0125 14.9325 35.2518V37.7794H5.91414V36.1475H13.4724V35.2518C13.4724 35.0923 13.4233 34.9328 13.3129 34.8101C13.2025 34.6874 13.0675 34.626 12.9203 34.626H5.84052C5.69328 34.626 5.54604 34.6874 5.44788 34.8101C5.33745 34.9328 5.28837 35.08 5.28837 35.2518V38.6751C5.28837 38.8346 5.33745 38.9941 5.44788 39.1168C5.55831 39.2395 5.69328 39.3009 5.84052 39.3009H14.9325V40.9328H5.84052C4.72395 40.9205 3.81598 39.9144 3.82825 38.6751Z" fill="#D4DFFF"/>
<path d="M25.8405 35.2519C25.8405 35.0924 25.7914 34.9329 25.681 34.8102C25.5705 34.6875 25.4356 34.6261 25.2883 34.6261H17.6564V40.9206H16.1963V32.9819H25.2883C26.4049 32.9942 27.3006 34.0003 27.3006 35.2396V40.9206H25.8405V35.2519Z" fill="#D4DFFF"/>
<path d="M28.5771 38.6751V35.2518C28.5771 34.0125 29.4729 33.0064 30.5894 32.9941H37.6692C38.7857 33.0064 39.6814 34.0125 39.6814 35.2518V37.7794H30.663V36.1475H38.2213V35.2518C38.2213 35.0923 38.1722 34.9328 38.0618 34.8101C37.9514 34.6874 37.8164 34.626 37.6692 34.626H30.5894C30.4422 34.626 30.2949 34.6874 30.1968 34.8101C30.0986 34.9328 30.0373 35.08 30.0373 35.2518V38.6751C30.0373 38.8346 30.0864 38.9941 30.1968 39.1168C30.3072 39.2395 30.4422 39.3009 30.5894 39.3009H39.6814V40.9328H30.5894C29.4729 40.9205 28.5771 39.9144 28.5771 38.6751Z" fill="#D4DFFF"/>
<path d="M41.9023 35.2518C41.9023 34.0125 42.7612 33.0064 43.841 32.9941H48.8839V34.626H43.841C43.6938 34.626 43.5588 34.6874 43.4606 34.8101C43.3625 34.9328 43.3011 35.0923 43.3134 35.2518V40.9328H41.9146L41.9023 35.2518Z" fill="#D4DFFF"/>
<path d="M50.1602 43.08H59.2522C59.3994 43.08 59.5467 43.0063 59.6448 42.8836C59.743 42.7609 59.8043 42.6014 59.8043 42.4297V34.6505H52.1724C52.0252 34.6505 51.8779 34.7119 51.7798 34.8346C51.6694 34.9573 51.6203 35.1168 51.6203 35.2886V38.7732C51.6203 38.945 51.6694 39.1045 51.7798 39.2272C51.8902 39.3499 52.0252 39.4113 52.1724 39.4113H59.1663V41.08H52.1724C51.0559 41.0677 50.1602 40.0493 50.1602 38.7855V35.3008C50.1602 34.037 51.0559 33.0186 52.1724 33.0063H61.2645V42.4542C61.2645 43.718 60.3687 44.7364 59.2522 44.7487H50.1602V43.08Z" fill="#D4DFFF"/>
<path d="M62.5283 30.4541H63.8044V32.1228H62.5406V30.4541H62.5283ZM62.5283 33.1289H63.8044V41.2394H62.5406V33.1289H62.5283Z" fill="#D4DFFF"/>
<path d="M65.7061 38.6751V35.2518C65.7061 34.0125 66.6018 33.0064 67.7183 32.9941H74.7981C75.9146 33.0064 76.8103 34.0125 76.8103 35.2518V37.7794H67.7919V36.1475H75.3502V35.2518C75.3502 35.0923 75.3011 34.9328 75.1907 34.8101C75.0803 34.6874 74.9453 34.626 74.7981 34.626H67.7183C67.5711 34.626 67.4238 34.6874 67.3257 34.8101C67.2153 34.9328 67.1662 35.08 67.1662 35.2518V38.6751C67.1662 38.8346 67.2153 38.9941 67.3257 39.1168C67.4361 39.2395 67.5711 39.3009 67.7183 39.3009H76.8103V40.9328H67.7183C66.6018 40.9205 65.7061 39.9144 65.7061 38.6751Z" fill="#D4DFFF"/>
<path d="M3.33767 46.4172H7.75485C7.91436 46.4172 8.0616 46.2823 8.09841 46.0982L8.12294 45.951C8.14748 45.8774 8.12295 45.7915 8.08614 45.7301C8.03706 45.6688 7.97571 45.632 7.90209 45.632H4.3438C3.79166 45.632 3.42356 45.1044 3.54626 44.4541L3.5708 44.3068C3.6935 43.6565 4.24564 43.1289 4.81006 43.1289H9.22724L9.06773 43.9755H4.65055C4.49104 43.9755 4.3438 44.1105 4.30699 44.2946L4.28245 44.4295C4.25791 44.5031 4.28245 44.589 4.31926 44.6626C4.36834 44.724 4.42969 44.7608 4.50331 44.7608H8.07387C8.63828 44.7608 8.98184 45.2884 8.87141 45.9387L8.84687 46.086C8.73644 46.7363 8.18429 47.2639 7.61988 47.2639H3.19043L3.33767 46.4172Z" fill="#D4DFFF"/>
<path d="M10.6017 43.1533H15.0679C15.6078 43.1533 15.9636 43.6809 15.8532 44.3312L15.5342 46.1226C15.4115 46.7729 14.8716 47.3006 14.3317 47.3006H10.8961L11.0434 46.4417H14.4912C14.6507 46.4417 14.7857 46.3067 14.8225 46.1226L15.1415 44.3312C15.1661 44.2576 15.1538 44.1717 15.1047 44.0981C15.0679 44.0368 14.9943 43.9999 14.933 43.9999H11.1784L10.2581 49.1656H9.53418L10.6017 43.1533Z" fill="#D4DFFF"/>
<path d="M15.9019 46.0982L16.2332 44.319C16.3559 43.6687 16.908 43.1411 17.4725 43.1411H21.0798C21.6442 43.1411 22.0123 43.6687 21.8896 44.319L21.6442 45.6319H17.0553L17.2148 44.7853H21.0553L21.1412 44.319C21.1657 44.2454 21.1534 44.1595 21.1044 44.0982C21.0553 44.0368 20.9939 44 20.9203 44H17.3129C17.1412 44 17.0062 44.135 16.9694 44.319L16.6381 46.0982C16.6136 46.1718 16.6258 46.2577 16.6749 46.319C16.724 46.3804 16.7853 46.4172 16.859 46.4172H21.4847L21.3375 47.2638H16.7117C16.1473 47.2638 15.7915 46.7362 15.9019 46.0982Z" fill="#D4DFFF"/>
<path d="M26.3806 45.5217L27.8408 47.5953H26.7978L25.7426 46.0861C25.7058 46.0493 25.6567 46.0125 25.6199 45.988C25.5708 45.9634 25.5217 45.9512 25.4604 45.9512H23.2518L22.9573 47.5953H22.2334L23.3132 41.5708H24.0371L23.4113 45.1045H25.6199C25.6813 45.1045 25.7303 45.0923 25.7917 45.0677H25.804C25.853 45.0432 25.9021 45.0064 25.9512 44.9696L27.5463 43.4604H28.5892L26.3806 45.5217Z" fill="#D4DFFF"/>
<path d="M28.2824 46.4175L29.0186 42.5156H29.7793L29.6075 43.4604H31.4358L31.2762 44.3193H29.448L29.0431 46.4297C29.0186 46.5034 29.0308 46.5892 29.0799 46.6506C29.129 46.7119 29.1904 46.7488 29.264 46.7488H31.1413L30.9818 47.6076H29.1045C28.5278 47.5831 28.1597 47.0555 28.2824 46.4175Z" fill="#D4DFFF"/>
<path d="M32.2948 44.319C32.4175 43.6687 32.9696 43.1411 33.534 43.1411H36.1966L36.0371 43.9877H33.3745C33.2027 43.9877 33.0678 44.1227 33.031 44.3068L32.4911 47.2638H31.7549L32.2948 44.319Z" fill="#D4DFFF"/>
<path d="M36.2086 46.0982L36.7362 43.1411H37.4601L36.9325 46.0982C36.908 46.1718 36.9202 46.2577 36.9693 46.319C37.0184 46.3804 37.0798 46.4172 37.1534 46.4172H40.638C40.7975 46.4049 40.9325 46.2822 40.9693 46.0982L41.4969 43.1411H42.2209L41.681 46.0982C41.5706 46.7485 41.0307 47.2761 40.4785 47.2761H36.9939C36.454 47.2638 36.0982 46.7362 36.2086 46.0982Z" fill="#D4DFFF"/>
<path d="M50.0244 44.3191C50.0489 44.2455 50.0244 44.1596 49.9876 44.086C49.9385 44.0246 49.8771 43.9878 49.8035 43.9878H47.4845C47.3127 44.0001 47.1778 44.1228 47.1287 44.3068L46.5765 47.2639H45.8403L46.3925 44.3068C46.417 44.2332 46.3925 44.1473 46.3557 44.0737C46.3066 44.0123 46.2452 43.9755 46.1716 43.9755H43.5827L42.9692 47.2516H42.2207L42.9937 43.1289H46.3311C46.4906 43.1289 46.6379 43.178 46.7729 43.2639C46.8342 43.3007 46.8955 43.3498 46.9446 43.4111C47.006 43.362 47.0796 43.313 47.1532 43.2639C47.3127 43.178 47.4845 43.1289 47.6563 43.1289H49.963C50.5275 43.1289 50.8955 43.6565 50.7728 44.3068L50.2207 47.2639H49.4845L50.0244 44.3191Z" fill="#D4DFFF"/>
</svg>
