<svg width="80" height="80" viewBox="0 0 80 80" fill="none" xmlns="http://www.w3.org/2000/svg">
<path d="M40.1716 21.0918L38.6747 24.736L37.5704 21.9507L36.4784 24.736L34.9814 21.0918H35.4109L36.4784 23.7789L37.5827 20.9937L38.6747 23.7789L39.7422 21.0918H40.1716Z" fill="#D4DFFF"/>
<path d="M43.2642 22.8713C43.2642 22.4541 43.1292 22.1106 42.847 21.8161C42.5648 21.5339 42.2212 21.3867 41.8041 21.3867C41.3623 21.3867 41.0065 21.5339 40.7366 21.8161C40.4666 22.1106 40.3317 22.4541 40.3317 22.859C40.3317 23.2762 40.4666 23.6198 40.7488 23.902C41.0311 24.1842 41.3746 24.3314 41.7918 24.3314C42.209 24.3314 42.5525 24.1842 42.8347 23.902C43.1169 23.6321 43.2642 23.2885 43.2642 22.8713ZM43.6568 22.8713C43.6568 23.3867 43.4728 23.8284 43.1169 24.1842C42.7611 24.54 42.3194 24.7118 41.7918 24.7118C41.2642 24.7118 40.8225 24.54 40.4666 24.1719C40.1108 23.8161 39.9268 23.3744 39.9268 22.859C39.9268 22.3314 40.0985 21.8897 40.4544 21.5462C40.8102 21.1903 41.2519 21.0186 41.7795 21.0186C42.3071 21.0186 42.7488 21.1903 43.1047 21.5462C43.4728 21.902 43.6568 22.3437 43.6568 22.8713Z" fill="#D4DFFF"/>
<path d="M45.4604 22.0615C45.4604 21.853 45.399 21.7057 45.2641 21.6076C45.1291 21.5094 44.9328 21.4603 44.6506 21.4603H44.3438V22.626H44.6506C44.9328 22.626 45.1414 22.5769 45.2641 22.491C45.399 22.4051 45.4604 22.2579 45.4604 22.0615ZM46.0371 24.6505H45.5585L44.4665 22.9695H44.3438V24.6505H43.9512V21.1045H44.6874C45.0677 21.1045 45.3499 21.1904 45.5585 21.3499C45.7549 21.5094 45.853 21.7548 45.853 22.0615C45.853 22.3315 45.7671 22.5523 45.5953 22.7119C45.4236 22.8714 45.1904 22.9573 44.896 22.9695L46.0371 24.6505Z" fill="#D4DFFF"/>
<path d="M47.607 24.6501H46.2695V21.0918H46.6622V24.282H47.607V24.6501Z" fill="#D4DFFF"/>
<path d="M50.061 22.8709C50.061 22.4169 49.926 22.0611 49.6683 21.828C49.4106 21.5949 49.0303 21.4722 48.5272 21.4722H48.1959V24.282H48.4904C49.0303 24.282 49.4352 24.1716 49.6806 23.9384C49.9383 23.7053 50.061 23.3495 50.061 22.8709ZM50.4536 22.8709C50.4536 23.4599 50.2818 23.9016 49.9505 24.1961C49.6192 24.4906 49.1162 24.6378 48.4659 24.6378H47.791V21.0918H48.4904C49.1284 21.0918 49.607 21.2513 49.9383 21.5581C50.2941 21.8648 50.4536 22.3065 50.4536 22.8709Z" fill="#D4DFFF"/>
<path d="M37.055 27.7665C37.055 27.5456 36.9814 27.3861 36.8219 27.2634C36.6624 27.153 36.4292 27.0917 36.1348 27.0917H35.7789V28.4045H36.2206C36.5151 28.4045 36.736 28.3555 36.871 28.245C36.9814 28.1469 37.055 27.9874 37.055 27.7665ZM36.7483 26.1591C36.7483 25.9628 36.6992 25.8156 36.5887 25.7174C36.4783 25.6193 36.3065 25.5702 36.0734 25.5702H35.7789V26.7358H36.0121C36.2575 26.7358 36.4415 26.6867 36.5642 26.5886C36.6869 26.5027 36.7483 26.3555 36.7483 26.1591ZM37.4476 27.7665C37.4476 28.0978 37.3495 28.3555 37.1409 28.515C36.9323 28.6867 36.6133 28.7604 36.1961 28.7604H35.374V25.2144H36.0857C36.417 25.2144 36.6746 25.3002 36.8587 25.4598C37.0427 25.6193 37.1409 25.8401 37.1409 26.1346C37.1409 26.3309 37.0918 26.4904 37.0059 26.6254C36.92 26.7481 36.7851 26.834 36.6256 26.8708C36.871 26.9076 37.0673 27.0058 37.2145 27.1653C37.374 27.3248 37.4476 27.5334 37.4476 27.7665Z" fill="#D4DFFF"/>
<path d="M39.3246 26.1836C39.3246 25.975 39.2633 25.8278 39.1283 25.7296C39.0056 25.6315 38.797 25.5824 38.5148 25.5824H38.2081V26.748H38.5148C38.797 26.748 39.0056 26.699 39.1283 26.6131C39.2633 26.5272 39.3246 26.3799 39.3246 26.1836ZM39.9013 28.7726H39.4228L38.3308 27.0916H38.2081V28.7726H37.8154V25.2266H38.5516C38.932 25.2266 39.2142 25.3125 39.4228 25.472C39.6191 25.6437 39.7173 25.8769 39.7173 26.1836C39.7173 26.4536 39.6314 26.6744 39.4596 26.8339C39.2878 26.9934 39.0547 27.0793 38.7602 27.0793L39.9013 28.7726Z" fill="#D4DFFF"/>
<path d="M42.0495 27.3498L41.4606 25.9755L40.8716 27.3498H42.0495ZM43.0925 28.7731H42.6508L42.1845 27.7056H40.7121L40.2581 28.7731H39.8164L41.4483 25.1289L43.0925 28.7731Z" fill="#D4DFFF"/>
<path d="M46.4297 28.8713L43.6813 26.0615V28.7731H43.2764V25.1167L46.0371 27.9142V25.2149H46.4297V28.8713Z" fill="#D4DFFF"/>
<path d="M49.2143 26.9939C49.2143 26.5399 49.0793 26.1841 48.8216 25.951C48.564 25.7178 48.1836 25.5951 47.6805 25.5951H47.3492V28.405H47.6437C48.1836 28.405 48.5762 28.2945 48.8339 28.0614C49.0916 27.8283 49.2143 27.4724 49.2143 26.9939ZM49.6069 26.9939C49.6069 27.5829 49.4351 28.0123 49.1038 28.3191C48.7726 28.6136 48.2818 28.7731 47.6192 28.7731H46.9443V25.2271H47.6437C48.2695 25.2271 48.7603 25.3866 49.0916 25.6933C49.4351 25.9878 49.6069 26.4295 49.6069 26.9939Z" fill="#D4DFFF"/>
<path d="M50.3311 25.2148H49.9385V28.7609H50.3311V25.2148Z" fill="#D4DFFF"/>
<path d="M54.0005 28.8713L51.252 26.0615V28.7731H50.8594V25.1167L53.6078 27.9142V25.2149H54.0005V28.8713Z" fill="#D4DFFF"/>
<path d="M57.8525 26.9693C57.8525 27.5338 57.693 27.9877 57.3863 28.3313C57.0795 28.6749 56.6501 28.8344 56.1225 28.8344C55.6071 28.8344 55.1777 28.6626 54.8341 28.3068C54.4906 27.9632 54.3311 27.5215 54.3311 26.9816C54.3311 26.454 54.5028 26.0123 54.8341 25.6687C55.1777 25.3129 55.5949 25.1411 56.1102 25.1411C56.4415 25.1411 56.7237 25.2025 56.9691 25.3252C57.2145 25.4479 57.4231 25.6319 57.5949 25.865L57.3004 26.0982C57.1777 25.9141 57.0059 25.7669 56.8096 25.6565C56.6133 25.5583 56.3801 25.5092 56.1347 25.5092C55.7298 25.5092 55.3985 25.6565 55.1286 25.9387C54.8709 26.2209 54.736 26.5767 54.736 27.0061C54.736 27.4111 54.8709 27.7546 55.1409 28.0368C55.4108 28.319 55.7421 28.454 56.147 28.454C56.5028 28.454 56.7973 28.3436 57.0304 28.135C57.2758 27.9264 57.4108 27.6565 57.4354 27.3252H56.3188V26.9571H57.8525V26.9693Z" fill="#D4DFFF"/>
<path d="M37.2273 31.4724L36.6383 30.0982L36.0494 31.4724H37.2273ZM38.2702 32.8834H37.8285L37.3622 31.8159H35.8898L35.4359 32.8834H34.9941L36.626 29.2393L38.2702 32.8834Z" fill="#D4DFFF"/>
<path d="M42.883 29.3374L41.3861 32.9816L40.294 30.1963L39.1897 32.9816L37.7051 29.3374H38.1345L39.1897 32.0245L40.294 29.2393L41.3861 32.0245L42.4535 29.3374H42.883Z" fill="#D4DFFF"/>
<path d="M44.5154 31.4724L43.9264 30.0982L43.3374 31.4724H44.5154ZM45.5583 32.8834H45.1166L44.6503 31.8159H43.1779L42.7239 32.8834H42.2822L43.9141 29.2393L45.5583 32.8834Z" fill="#D4DFFF"/>
<path d="M47.2392 30.3067C47.2392 30.0981 47.1779 29.9509 47.0429 29.8527C46.908 29.7546 46.7116 29.7055 46.4294 29.7055H46.1227V30.8711H46.4294C46.7116 30.8711 46.9202 30.8221 47.0429 30.7362C47.1656 30.6503 47.2392 30.503 47.2392 30.3067ZM47.8037 32.8834H47.3251L46.2331 31.2024H46.1104V32.8834H45.7178V29.3374H46.454C46.8343 29.3374 47.1165 29.4233 47.3251 29.5828C47.5215 29.7423 47.6196 29.9877 47.6196 30.2945C47.6196 30.5644 47.5337 30.7853 47.3619 30.9448C47.1902 31.1043 46.957 31.1902 46.6626 31.2024L47.8037 32.8834Z" fill="#D4DFFF"/>
<path d="M50.3061 31.1165C50.3061 30.6626 50.1711 30.3067 49.9134 30.0736C49.6558 29.8282 49.2754 29.7178 48.7723 29.7178H48.441V32.5153H48.7355C49.2754 32.5153 49.6803 32.4049 49.9257 32.1718C50.1834 31.9509 50.3061 31.5951 50.3061 31.1165ZM50.6987 31.1165C50.6987 31.7055 50.5269 32.1349 50.1956 32.4417C49.8644 32.7362 49.3613 32.8834 48.711 32.8834H48.0361V29.3374H48.7355C49.3736 29.3374 49.8521 29.4969 50.1956 29.8037C50.5269 30.1104 50.6987 30.5521 50.6987 31.1165Z" fill="#D4DFFF"/>
<path d="M52.895 31.9386C52.895 32.2577 52.7969 32.5031 52.6006 32.6871C52.4042 32.8712 52.1343 32.957 51.7907 32.957C51.5576 32.957 51.349 32.908 51.1772 32.7975C51.0055 32.6871 50.8705 32.5399 50.7969 32.3558L51.0791 32.1104C51.1282 32.2577 51.2263 32.3804 51.3613 32.4663C51.4963 32.5521 51.6435 32.589 51.8153 32.589C52.0239 32.589 52.1956 32.5399 52.3183 32.4172C52.441 32.3067 52.5024 32.1472 52.5024 31.9509C52.5024 31.7914 52.441 31.6442 52.3306 31.5215C52.2202 31.3988 52.0239 31.2761 51.7662 31.1411C51.4472 30.9816 51.2386 30.8344 51.1036 30.6871C50.9809 30.5399 50.9196 30.3558 50.9196 30.1227C50.9196 29.865 51.0055 29.6442 51.1895 29.4847C51.3613 29.3251 51.6067 29.2393 51.8889 29.2393C52.0729 29.2393 52.2202 29.2761 52.3552 29.3497C52.4901 29.4233 52.6006 29.5215 52.6987 29.6687L52.4288 29.9141C52.3797 29.8159 52.3061 29.7423 52.2079 29.6932C52.1098 29.6442 51.9993 29.6196 51.8766 29.6196C51.7048 29.6196 51.5699 29.6687 51.4717 29.7546C51.3736 29.8405 51.3245 29.9632 51.3245 30.1104C51.3245 30.2454 51.3613 30.3558 51.4349 30.454C51.5085 30.5399 51.6558 30.6503 51.8889 30.773L51.9134 30.7853C52.5637 31.1534 52.895 31.5337 52.895 31.9386Z" fill="#D4DFFF"/>
<path d="M24.1715 23.4479C26.2083 21.4111 29.4353 21.2761 31.6316 23.0675C31.5089 22.9203 31.3862 22.7853 31.2513 22.6503C29.0795 20.4785 25.5457 20.4785 23.374 22.6503C21.2022 24.8221 21.2022 28.3558 23.374 30.5276C23.5089 30.6626 23.6562 30.7853 23.7911 30.908C21.9997 28.7239 22.1347 25.4847 24.1715 23.4479Z" fill="#D4DFFF"/>
<path d="M32.0491 23.4478C31.9141 23.3128 31.7669 23.1901 31.6319 23.0674C33.4233 25.2514 33.2884 28.4907 31.2516 30.5275C29.2148 32.5643 25.9878 32.687 23.8037 30.9201C23.9264 31.0674 24.0491 31.2024 24.1841 31.3373C26.3559 33.5091 29.8896 33.5091 32.0614 31.3373C34.2209 29.1533 34.2209 25.6318 32.0491 23.4478Z" fill="#D4DFFF"/>
<path d="M37.4723 64.6501C38.6379 63.4845 40.4907 63.4108 41.7422 64.4292L41.5214 64.1838C40.2821 62.9446 38.2576 62.9446 37.0183 64.1838C35.7791 65.4231 35.7791 67.4476 37.0183 68.6869L37.2637 68.9078C36.233 67.6685 36.3067 65.8157 37.4723 64.6501Z" fill="#D4DFFF"/>
<path d="M41.9876 64.6501L41.7422 64.4292C42.7606 65.6807 42.687 67.5335 41.5213 68.6991C40.3557 69.8648 38.5152 69.9384 37.2637 68.92L37.4723 69.1531C38.7238 70.3924 40.7361 70.3924 41.9753 69.1531C43.2269 67.9139 43.2269 65.8893 41.9876 64.6501Z" fill="#D4DFFF"/>
<path d="M68.1961 43.8771C69.0059 43.2145 69.3617 42.2943 69.3003 41.7912C68.8464 41.6562 67.9997 41.9262 67.2267 42.5888C66.8095 42.9446 66.4905 43.3372 66.2942 43.6931C66.3924 42.9691 66.466 42.2452 66.5151 41.5213L66.5273 41.3863C66.9936 41.4599 67.7789 41.2023 68.466 40.5151C69.1899 39.7667 69.4353 38.7973 69.3126 38.3066C68.8464 38.2207 68.0365 38.5888 67.3494 39.3495C66.9691 39.7544 66.7114 40.1839 66.5519 40.5642C66.5641 39.7789 66.5519 38.9937 66.5028 38.2207C66.9691 38.2452 67.7298 37.8894 68.3188 37.1164C68.9568 36.282 69.0795 35.3004 68.8954 34.8219C68.4292 34.7973 67.6684 35.2513 67.0672 36.0857C66.7359 36.5397 66.5273 36.9937 66.4292 37.3863C66.3556 36.6624 66.2574 35.9385 66.1224 35.2268L66.0979 35.1164V35.0918C66.5642 35.055 67.2758 34.6256 67.7666 33.7789C68.2942 32.8832 68.3065 31.8894 68.0856 31.4477C67.6194 31.4722 66.9077 32.0243 66.4169 32.9078C66.147 33.3986 65.9875 33.8648 65.9261 34.2697C65.7543 33.509 65.558 32.7483 65.3249 31.9998C65.7789 31.9139 66.4415 31.3986 66.8464 30.5151C67.2758 29.5581 67.1777 28.5888 66.8954 28.1716C66.4292 28.2452 65.7789 28.871 65.3985 29.8035C65.1776 30.3188 65.0795 30.8096 65.0672 31.2145C64.8341 30.5274 64.5764 29.8526 64.2819 29.1777L64.2206 29.0427C64.6746 28.9078 65.2635 28.3188 65.5703 27.3986C65.8893 26.417 65.7053 25.4477 65.3862 25.0673C64.9322 25.19 64.3556 25.8648 64.0611 26.8464C63.9016 27.374 63.8402 27.8771 63.877 28.282C63.5457 27.5704 63.1899 26.8832 62.8095 26.1961C63.239 26.0121 63.7789 25.374 63.9875 24.4293C64.2206 23.4108 63.9384 22.4906 63.5948 22.1348C63.1531 22.3065 62.65 23.0182 62.4415 24.0243C62.331 24.5642 62.331 25.055 62.4046 25.4599C62.012 24.7973 61.5948 24.147 61.1531 23.509L61.1286 23.5335C61.2635 23.0796 61.0918 22.2575 60.5151 21.509C59.877 20.6992 59.0672 20.3311 58.601 20.4047C58.4783 20.8464 58.6746 21.6931 59.2758 22.4661C59.828 23.19 60.5151 23.5949 60.9813 23.644L60.9445 23.6685C61.3862 24.2943 61.7911 24.9446 62.1838 25.5949C61.877 25.3495 61.4353 25.1286 60.9077 25.0305C59.9384 24.8342 59.104 25.0918 58.7727 25.4231C58.92 25.828 59.5826 26.2943 60.5151 26.5151C61.3985 26.7115 62.2206 26.601 62.601 26.3311C62.9691 27.0059 63.3249 27.6931 63.6562 28.3802C63.3617 28.098 62.9568 27.8403 62.4415 27.6931C61.4844 27.4108 60.6378 27.5949 60.2819 27.8894C60.4046 28.2943 60.9936 28.8342 61.9138 29.1286C62.7605 29.4108 63.5948 29.374 63.9997 29.1532C64.3065 29.8526 64.5764 30.5642 64.8218 31.2881C64.5641 30.9814 64.1715 30.6869 63.693 30.4783C62.7727 30.098 61.9138 30.1961 61.5212 30.4538C61.5948 30.871 62.1224 31.4477 63.0059 31.8403C63.828 32.2084 64.65 32.2697 65.0795 32.0857C65.3126 32.8219 65.5089 33.5704 65.6684 34.3188C65.4476 33.9875 65.0918 33.644 64.6378 33.3863C63.7666 32.9078 62.9077 32.92 62.4905 33.1286C62.5151 33.5458 62.9813 34.1839 63.8157 34.6624C64.5887 35.1164 65.3985 35.2636 65.8525 35.1409L65.8648 35.1777C65.9997 35.9139 66.1102 36.6624 66.1838 37.4108C65.9997 37.055 65.693 36.6746 65.2635 36.3679C64.4537 35.7912 63.5948 35.7053 63.1531 35.8648C63.1286 36.282 63.5212 36.9569 64.2819 37.5335C64.9936 38.0734 65.7789 38.3188 66.2451 38.2452C66.2942 39.0059 66.3188 39.7789 66.2942 40.5519C66.1592 40.1716 65.9016 39.7667 65.5089 39.3986C64.7727 38.736 63.9261 38.5397 63.4721 38.6501C63.3985 39.055 63.7053 39.7789 64.3924 40.4415C65.0304 41.0673 65.7911 41.4108 66.2574 41.3863C66.2206 42.147 66.1347 42.9078 66.0365 43.6685C65.9507 43.2759 65.7421 42.8342 65.3985 42.4292C64.7482 41.6808 63.9384 41.3863 63.4721 41.4477C63.3494 41.8403 63.5703 42.5888 64.1715 43.3372C64.7237 44.0243 65.4476 44.4538 65.9138 44.4906C65.7789 45.2513 65.6194 45.9998 65.423 46.736C65.374 46.3434 65.2267 45.8771 64.9323 45.4354C64.3801 44.6133 63.5948 44.2207 63.1286 44.2329C62.9568 44.6133 63.0918 45.3863 63.6071 46.1961C64.0856 46.9569 64.7359 47.4599 65.2022 47.5458L65.1777 47.6562C64.9691 48.3556 64.7237 49.0427 64.466 49.7176C64.466 49.3127 64.3678 48.8342 64.1224 48.3679C63.6807 47.4845 62.9323 47.0059 62.4783 46.9569C62.2697 47.3127 62.3065 48.098 62.7237 48.9691C63.1163 49.7789 63.7053 50.3556 64.147 50.5029C63.8402 51.2023 63.5089 51.9016 63.1531 52.5765C63.2022 52.1839 63.1531 51.6931 62.9691 51.2023C62.6255 50.2697 61.9507 49.7176 61.4967 49.6072C61.2513 49.9384 61.1899 50.7237 61.5089 51.644C61.8034 52.4906 62.3188 53.1286 62.7482 53.325L62.6991 53.4231C62.331 54.0489 61.9507 54.6746 61.5335 55.2759C61.6194 54.8832 61.6316 54.3924 61.5089 53.8894C61.2635 52.9323 60.6623 52.2943 60.2206 52.147C59.9384 52.4538 59.7911 53.2268 59.9997 54.1716C60.2083 55.0427 60.6378 55.7421 61.055 55.9753C60.601 56.601 60.1224 57.2023 59.6194 57.7912C59.7543 57.4108 59.8157 56.9323 59.7421 56.4047C59.6194 55.4231 59.0672 54.7237 58.65 54.5274C58.3433 54.7973 58.0979 55.5458 58.2083 56.5151C58.3065 57.3986 58.6746 58.147 59.0549 58.4293L59.0427 58.4415C58.5273 59.0059 57.9997 59.5458 57.4353 60.0612C57.6071 59.7053 57.7298 59.2268 57.7175 58.6992C57.693 57.7053 57.239 56.9569 56.8464 56.7115C56.5028 56.9446 56.1838 57.6685 56.1961 58.6378C56.1961 59.5335 56.4783 60.3066 56.8218 60.6256C56.2451 61.1286 55.6439 61.6194 55.0181 62.0734C55.239 61.7421 55.3985 61.2759 55.4476 60.7483C55.5457 59.7667 55.1654 58.9691 54.8096 58.6746C54.4415 58.871 54.0488 59.5458 53.9507 60.5029C53.8525 61.3863 54.0365 62.1961 54.3433 62.5519C53.7175 62.9814 53.0672 63.3863 52.4046 63.7544C52.6623 63.4477 52.8832 63.0059 52.9936 62.5029C53.1899 61.5335 52.92 60.7115 52.601 60.3679C52.2083 60.5151 51.7543 61.1409 51.5335 62.0734C51.3372 62.9446 51.4108 63.7544 51.6684 64.1593C50.9813 64.5151 50.2819 64.8219 49.5703 65.1041C49.8648 64.8342 50.147 64.4292 50.3188 63.9385C50.65 63.0059 50.4783 62.147 50.1961 61.7789C49.8034 61.8771 49.2758 62.4292 48.9323 63.325C48.6132 64.147 48.5887 64.9691 48.785 65.3986L48.65 65.4477C47.9752 65.6808 47.2758 65.8771 46.5887 66.0366C46.92 65.8158 47.2635 65.4599 47.5089 64.9814C47.9629 64.1102 47.9138 63.2268 47.693 62.8342C47.2881 62.8832 46.6991 63.3372 46.2451 64.1716C45.8157 64.9323 45.6562 65.7544 45.7911 66.2084C45.0304 66.3434 44.2697 66.4415 43.4967 66.4783C43.8648 66.3188 44.2574 66.0243 44.5764 65.5949C45.1654 64.8096 45.239 63.9385 45.0918 63.4967C44.6991 63.4722 44.0611 63.8403 43.4721 64.5765C42.9323 65.2636 42.6255 66.0366 42.6746 66.5029H42.5273V66.7605H42.6746C42.6255 67.2268 42.92 67.9998 43.693 68.6256C44.5273 69.3004 45.558 69.4354 46.0488 69.2636C46.0856 68.7851 45.6194 68.0366 44.785 67.4231C44.3433 67.0918 43.9016 66.871 43.5089 66.7483C44.2942 66.7115 45.0672 66.6133 45.828 66.4783C45.8648 66.9446 46.2819 67.6562 47.1531 68.147C48.0734 68.6624 49.104 68.6624 49.5457 68.3924C49.5089 67.9139 48.9323 67.2513 48.0243 66.7728C47.5335 66.5151 47.0549 66.3679 46.65 66.3065C47.4108 66.1348 48.147 65.9262 48.8832 65.6685C48.9813 66.1225 49.5212 66.7728 50.4415 67.1164C51.423 67.4967 52.4169 67.3372 52.8341 67.0305C52.7237 66.5642 52.0611 65.9753 51.104 65.6317C50.5764 65.4477 50.0856 65.3618 49.6684 65.374C50.3924 65.0918 51.1163 64.7728 51.8157 64.4047C51.9875 64.8464 52.601 65.4108 53.5457 65.6317C54.5642 65.8771 55.5212 65.5949 55.8893 65.2391C55.7175 64.7973 54.9936 64.282 53.9997 64.0734C53.4476 63.9507 52.9568 63.9385 52.5519 63.9998C53.1899 63.644 53.8034 63.2636 54.4169 62.8587L54.5273 62.7728C54.7482 63.19 55.4353 63.6562 56.4046 63.7789C57.4353 63.9016 58.3556 63.5213 58.6746 63.1164C58.4537 62.6869 57.6807 62.282 56.6623 62.1838C56.1102 62.1348 55.6194 62.1839 55.2267 62.2943C55.8525 61.828 56.466 61.3372 57.0549 60.8342C57.3249 61.2145 58.0611 61.6072 59.0304 61.6072C60.0734 61.6072 60.9322 61.1286 61.2022 60.6992C60.9445 60.3066 60.1102 59.9753 59.0918 59.9998C58.5396 60.0121 58.0488 60.1225 57.6684 60.2697C58.1961 59.7789 58.7114 59.2636 59.2022 58.7237L59.2881 58.6256C59.5948 58.9814 60.3801 59.2759 61.3372 59.1777C62.3678 59.055 63.1776 58.4906 63.3862 58.0243C63.0795 57.6562 62.2329 57.4354 61.2145 57.5704C60.6746 57.644 60.1961 57.8035 59.8402 57.9998C60.3433 57.4108 60.8341 56.7973 61.2881 56.1593C61.6316 56.4783 62.4415 56.6992 63.3862 56.4783C64.4046 56.2575 65.1286 55.5949 65.3004 55.1164C64.9568 54.7851 64.0856 54.6501 63.0918 54.8955C62.5519 55.0305 62.0979 55.2391 61.7666 55.4722C62.1715 54.871 62.5642 54.2575 62.9322 53.6317L62.9568 53.5949L63.0059 53.509C63.3862 53.7789 64.2083 53.9139 65.1286 53.5949C66.1102 53.2513 66.7727 52.5151 66.8832 52.0243C66.5028 51.7421 65.6194 51.7053 64.6623 52.0611C64.147 52.2575 63.7175 52.5151 63.4108 52.7851C63.7789 52.098 64.1102 51.3863 64.4292 50.6746C64.8341 50.9078 65.6807 50.9446 66.5519 50.5274C67.4967 50.0734 68.0611 49.2636 68.1102 48.7605C67.693 48.5151 66.8341 48.5888 65.9138 49.0427C65.423 49.3004 65.0304 49.5949 64.7482 49.9016C65.0181 49.2268 65.2513 48.5397 65.4599 47.8403L65.4721 47.8035L65.5089 47.7053C65.9384 47.8894 66.7727 47.828 67.5948 47.3127C68.4783 46.7605 68.9445 45.8771 68.9445 45.374C68.5151 45.1777 67.6439 45.3495 66.7973 45.9139C66.331 46.2207 65.9752 46.5765 65.7421 46.9078C65.9384 46.147 66.1102 45.3863 66.2451 44.6133C66.6255 44.6378 67.4353 44.4783 68.1961 43.8771Z" fill="#D4DFFF"/>
<path d="M36.5032 66.4416H36.356C36.4051 65.9754 36.1106 65.2024 35.5584 64.5153C34.9695 63.7791 34.3314 63.3987 33.9388 63.4355C33.7793 63.8772 33.8652 64.7484 34.4541 65.5337C34.7731 65.9631 35.1658 66.2576 35.5339 66.4171C34.7609 66.3803 33.9879 66.2821 33.2271 66.1472C33.3621 65.6932 33.2026 64.8834 32.7731 64.1103C32.3069 63.276 31.7179 62.8097 31.3253 62.7729C31.1044 63.1778 31.0431 64.0613 31.5093 64.9202C31.7547 65.3987 32.0983 65.7545 32.4296 65.9754C31.7302 65.8159 31.0308 65.6195 30.356 65.3864L30.221 65.3373C30.4173 64.9079 30.3805 64.0858 30.0738 63.2637C29.7302 62.368 29.2026 61.8159 28.81 61.7177C28.5278 62.0858 28.356 62.9447 28.6873 63.8772C28.859 64.3803 29.1412 64.7729 29.4357 65.0429C28.7241 64.7607 28.0124 64.4416 27.3376 64.0981C27.5952 63.7054 27.6689 62.8834 27.4725 62.0122C27.2517 61.0797 26.7854 60.4539 26.4051 60.3067C26.0738 60.638 25.8038 61.46 26.0124 62.4416C26.1228 62.957 26.3437 63.3987 26.6014 63.7054C25.9388 63.3373 25.2885 62.9324 24.6504 62.503C24.9572 62.1472 25.1412 61.3373 25.0431 60.4416C24.9327 59.4723 24.54 58.8097 24.1719 58.6134C23.8161 58.8956 23.4357 59.7054 23.5339 60.687C23.583 61.2269 23.7547 61.6809 23.9756 62.0245C23.3498 61.5705 22.7486 61.0797 22.1719 60.5766C22.5155 60.2576 22.7977 59.4846 22.7977 58.5766C22.7977 57.6073 22.4909 56.8834 22.1351 56.6502C21.7425 56.8956 21.2885 57.6441 21.2639 58.638C21.2517 59.1656 21.3744 59.6441 21.5462 60.0122C20.9817 59.4968 20.4541 58.9447 19.9388 58.3803L19.9265 58.368C20.3069 58.0858 20.675 57.3496 20.7731 56.4539C20.8836 55.4846 20.6504 54.7361 20.3314 54.4662C19.9143 54.6625 19.3744 55.3619 19.2394 56.3435C19.1658 56.8711 19.2271 57.3619 19.3621 57.7422C18.859 57.1533 18.3805 56.5521 17.9265 55.9263C18.3314 55.6932 18.7731 54.9938 18.9817 54.1226C19.1903 53.1778 19.0554 52.4048 18.7609 52.0981C18.3192 52.2576 17.7179 52.8833 17.4725 53.8404C17.3376 54.3557 17.3498 54.8465 17.448 55.2392C17.0308 54.638 16.6504 54.0122 16.2824 53.3864L16.2333 53.3005C16.6627 53.1165 17.1903 52.4662 17.4725 51.6195C17.7916 50.6993 17.7302 49.914 17.4848 49.5827C17.0308 49.6932 16.356 50.2453 16.0124 51.1778C15.8284 51.6809 15.7793 52.1594 15.8284 52.5643C15.4725 51.8772 15.129 51.1901 14.8345 50.4784C15.2885 50.3435 15.8652 49.7545 16.2578 48.9447C16.675 48.0735 16.6995 47.2883 16.5032 46.9324C16.0492 46.9815 15.3008 47.46 14.859 48.3435C14.6136 48.822 14.5155 49.3005 14.5155 49.7054C14.2455 49.0306 14.0001 48.3312 13.7916 47.6318L13.7547 47.5337C14.221 47.4478 14.859 46.9324 15.3498 46.184C15.8652 45.3619 15.9879 44.6011 15.8284 44.2208C15.3621 44.2208 14.5768 44.6011 14.0247 45.4232C13.7302 45.8649 13.5707 46.3312 13.5339 46.7361C13.3376 45.9876 13.1658 45.2392 13.0431 44.4784C13.5093 44.4416 14.221 44.0122 14.7854 43.3251C15.3989 42.5766 15.6075 41.8281 15.4848 41.4355C15.0185 41.3741 14.2087 41.6686 13.5584 42.4171C13.2149 42.822 13.0063 43.2637 12.9204 43.6564C12.81 42.8956 12.7363 42.1472 12.6995 41.3741V41.3619C13.1658 41.3864 13.9265 41.0429 14.5646 40.4171C15.2639 39.7422 15.5707 39.0306 15.4848 38.6257C15.0308 38.5152 14.1842 38.6993 13.448 39.3741C13.0554 39.73 12.7977 40.1472 12.6627 40.5275C12.6504 39.7545 12.6627 38.9815 12.7118 38.2208C13.1781 38.3067 13.9633 38.049 14.675 37.5091C15.448 36.9324 15.8406 36.2453 15.8161 35.8281C15.3744 35.6564 14.5155 35.7545 13.7057 36.3312C13.2639 36.638 12.9572 37.0183 12.7854 37.3864C12.859 36.638 12.9695 35.8895 13.1044 35.141L13.1167 35.1042C13.5707 35.2392 14.3805 35.0797 15.1535 34.6257C15.9879 34.1349 16.4541 33.5091 16.4787 33.0919C16.0615 32.8711 15.1903 32.8711 14.3314 33.3496C13.8652 33.6073 13.5093 33.9508 13.2885 34.2821C13.448 33.5337 13.6566 32.7852 13.8774 32.049C14.3069 32.233 15.129 32.1717 15.9511 31.8036C16.8345 31.411 17.3744 30.822 17.4357 30.4171C17.0431 30.1594 16.1842 30.0613 15.2639 30.4416C14.7731 30.6502 14.3805 30.957 14.1228 31.2637C14.3682 30.5398 14.6504 29.8281 14.9449 29.1287C15.3498 29.3619 16.1842 29.3864 17.0431 29.1042C17.9756 28.8097 18.5523 28.2699 18.675 27.8649C18.3192 27.5705 17.4603 27.3741 16.5155 27.6686C16.0001 27.8281 15.583 28.0858 15.3008 28.368C15.632 27.6686 15.9756 26.9815 16.356 26.3067C16.7363 26.5766 17.5584 26.687 18.4419 26.4907C19.3866 26.2821 20.037 25.8036 20.1965 25.3987C19.8652 25.0674 19.0308 24.7975 18.0615 25.006C17.5339 25.1042 17.0922 25.3251 16.7731 25.5827C17.1658 24.9202 17.5707 24.2699 18.0124 23.6441L17.9879 23.6195C18.4541 23.5827 19.1412 23.1656 19.6934 22.4416C20.2946 21.6686 20.4909 20.822 20.3682 20.3803C19.902 20.3189 19.0799 20.6748 18.4541 21.4968C17.8774 22.2453 17.7057 23.0797 17.8406 23.5214L17.8038 23.4968C17.3621 24.1349 16.9449 24.7852 16.5523 25.4478C16.6259 25.0429 16.6136 24.5521 16.5155 24.0122C16.3069 23.006 15.8038 22.2944 15.3621 22.1226C15.0185 22.4784 14.7363 23.3987 14.9695 24.4171C15.1781 25.3496 15.7057 25.9999 16.1474 26.184C15.767 26.8711 15.4112 27.5582 15.0799 28.2699C15.1044 27.8649 15.0554 27.3741 14.8958 26.8465C14.6014 25.8772 14.0247 25.2024 13.5707 25.0674C13.2394 25.4478 13.0676 26.4048 13.3866 27.3987C13.6934 28.3189 14.2824 28.8956 14.7363 29.0429L14.675 29.1778C14.3928 29.8404 14.1351 30.5275 13.8897 31.2024C13.8774 30.7975 13.767 30.3067 13.5584 29.8036C13.1658 28.8711 12.5277 28.2453 12.0615 28.1717C11.7793 28.5889 11.6934 29.5705 12.1228 30.5153C12.5155 31.3987 13.1781 31.914 13.632 31.9999C13.3989 32.7484 13.2026 33.4968 13.0308 34.2576C12.9695 33.8527 12.81 33.3864 12.5523 32.9079C12.0492 32.0122 11.3498 31.4723 10.8836 31.4478C10.6504 31.9018 10.6627 32.8833 11.2026 33.7913C11.6934 34.6257 12.4051 35.0674 12.8713 35.1042V35.141L12.8468 35.2514C12.7118 35.9631 12.6136 36.687 12.54 37.411C12.4296 37.0183 12.221 36.5643 11.902 36.1103C11.3008 35.276 10.5523 34.822 10.0738 34.8465C9.88971 35.3251 10.0247 36.3067 10.6504 37.141C11.2394 37.914 12.0001 38.2576 12.4664 38.2453C12.4173 39.0183 12.3928 39.8036 12.4173 40.5766C12.2701 40.1962 12.0001 39.7791 11.632 39.3741C10.9449 38.6257 10.1351 38.2453 9.66885 38.3312C9.54615 38.822 9.79155 39.7913 10.5155 40.5398C11.1903 41.2392 11.9879 41.4968 12.4541 41.4232V41.5582C12.5032 42.2821 12.5768 43.006 12.675 43.7177C12.4787 43.3619 12.1719 42.9815 11.7425 42.6134C10.9817 41.9508 10.1228 41.6809 9.66885 41.8159C9.6075 42.3189 9.96333 43.2514 10.7731 43.9018C11.5339 44.5152 12.3437 44.6748 12.7977 44.5398C12.9327 45.3128 13.1044 46.0735 13.3008 46.822C13.0676 46.4907 12.7118 46.1472 12.2455 45.8404C11.3989 45.276 10.5277 45.1042 10.0983 45.3005C10.0983 45.8036 10.5646 46.687 11.448 47.2392C12.2701 47.7545 13.1044 47.8159 13.5339 47.6318L13.5584 47.73L13.5707 47.7668C13.7793 48.4662 14.0124 49.141 14.2824 49.8159C14.0124 49.5214 13.6198 49.2146 13.129 48.9692C12.2087 48.503 11.3376 48.4416 10.9327 48.687C10.9817 49.1901 11.5462 49.9999 12.4909 50.4539C13.3621 50.8711 14.1965 50.8343 14.6014 50.6134C14.9081 51.3251 15.2517 52.0367 15.6198 52.7238C15.313 52.4539 14.8836 52.1962 14.3682 51.9999C13.4112 51.6441 12.5277 51.6809 12.1474 51.9631C12.2578 52.4539 12.9204 53.1901 13.902 53.5337C14.8222 53.8404 15.6443 53.7177 16.0247 53.4478L16.0738 53.5337L16.086 53.5705C16.4541 54.1962 16.8345 54.8097 17.2517 55.411C16.9204 55.1778 16.4664 54.9692 15.9265 54.8343C14.9327 54.5889 14.0615 54.7238 13.7179 55.0429C13.8897 55.5214 14.6136 56.184 15.632 56.4048C16.5768 56.6257 17.3866 56.4048 17.7302 56.0858C18.1597 56.7116 18.6504 57.3128 19.1535 57.914C18.7977 57.7177 18.3314 57.5582 17.7793 57.4846C16.7609 57.3496 15.9143 57.5827 15.6075 57.9386C15.8161 58.4048 16.6259 58.9692 17.6566 59.0919C18.6136 59.2024 19.3866 58.8956 19.7057 58.5398L19.8038 58.6502C20.2946 59.1778 20.81 59.7054 21.3376 60.1962C20.9572 60.0367 20.4787 59.9386 19.9265 59.9263C18.9081 59.9018 18.086 60.233 17.8161 60.6134C18.086 61.0429 18.9449 61.5337 19.9879 61.5337C20.9572 61.5337 21.6934 61.141 21.9633 60.7607C22.5523 61.276 23.1535 61.7668 23.7793 62.2208C23.3866 62.1103 22.8958 62.0613 22.3437 62.1103C21.3253 62.2085 20.5523 62.6134 20.3314 63.0429C20.6382 63.4478 21.5584 63.8281 22.6014 63.7054C23.5707 63.595 24.2455 63.1165 24.4787 62.7116L24.5891 62.7852C25.1903 63.1901 25.8038 63.5705 26.4419 63.9263C26.037 63.8649 25.5462 63.8772 24.994 63.9999C24.0001 64.2085 23.2639 64.7116 23.1044 65.1656C23.4725 65.5214 24.4173 65.8036 25.448 65.5582C26.3928 65.3373 27.0185 64.7729 27.1903 64.3312C27.8897 64.687 28.6014 65.0061 29.3253 65.2883C28.9204 65.2883 28.4296 65.3619 27.902 65.5459C26.9327 65.8895 26.2701 66.4784 26.1719 66.9324C26.5768 67.2514 27.583 67.3987 28.5646 67.0306C29.4848 66.6748 30.0124 66.0367 30.1228 65.5827C30.8468 65.8404 31.5952 66.049 32.3437 66.2208C31.9388 66.2821 31.4725 66.4294 30.9817 66.687C30.0738 67.1656 29.4971 67.8281 29.4603 68.3067C29.9143 68.5643 30.9449 68.5766 31.8652 68.0613C32.7241 67.5705 33.1535 66.8588 33.1903 66.3926C33.9511 66.5275 34.7241 66.6257 35.5093 66.6625C35.129 66.7852 34.6873 67.0183 34.2455 67.3373C33.4235 67.9508 32.9449 68.6993 32.9817 69.1778C33.4725 69.3619 34.5032 69.2146 35.3376 68.5521C36.1106 67.9263 36.4051 67.1533 36.356 66.687H36.5032V66.4416Z" fill="#D4DFFF"/>
<path d="M33.6071 13.816L32.2942 15.1043L32.601 16.9203L30.9691 16.0614L29.3372 16.9203L29.6439 15.1043L28.3311 13.816L30.1593 13.5583L30.9691 11.9019L31.7912 13.5583L33.6071 13.816Z" fill="#D4DFFF"/>
<path d="M50.6135 13.816L49.2884 15.1043L49.6074 16.9203L47.9632 16.0614L46.3313 16.9203L46.6503 15.1043L45.3252 13.816L47.1534 13.5583L47.9632 11.9019L48.7853 13.5583L50.6135 13.816Z" fill="#D4DFFF"/>
<path d="M56.5403 16.7731L55.2151 18.0614L55.5219 19.8774L53.89 19.0185L52.2581 19.8774L52.5771 18.0614L51.252 16.7731L53.0802 16.5031L53.89 14.8467L54.7121 16.5031L56.5403 16.7731Z" fill="#D4DFFF"/>
<path d="M27.6813 16.7731L26.3685 18.0614L26.6752 19.8774L25.0433 19.0185L23.4114 19.8774L23.7182 18.0614L22.4053 16.7731L24.2335 16.5031L25.0433 14.8467L25.8654 16.5031L27.6813 16.7731Z" fill="#D4DFFF"/>
<path d="M43.2635 11.4971L41.3616 13.3376L41.8156 15.9511L39.4721 14.7118L37.1285 15.9511L37.5702 13.3376L35.6807 11.4971L38.2942 11.1167L39.4721 8.73633L40.6377 11.1167L43.2635 11.4971Z" fill="#D4DFFF"/>
<path d="M24.5157 41.4971C24.5157 42.2824 24.6138 42.7732 25.3991 42.7732C26.1476 42.7732 26.5402 42.1965 26.5402 41.3867C26.5402 40.5155 26.0371 39.902 25.0678 39.902C24.5157 39.902 24.5157 39.9143 24.5157 40.3192V41.4971ZM24.5157 39.1658C24.5157 39.4235 24.5279 39.448 25.0433 39.448C25.9144 39.448 26.2334 38.8959 26.2334 38.2946C26.2334 37.4235 25.6936 36.994 24.9942 36.994C24.5157 36.994 24.5157 37.0676 24.5157 37.5216V39.1658ZM23.1292 38.1965C23.1292 37.1781 23.1046 37.0799 22.6874 37.0186L22.4175 36.9818C22.3316 36.9327 22.3071 36.6259 22.4543 36.6259C23.215 36.5768 23.9512 36.54 24.9574 36.54C25.9267 36.54 26.5647 36.6505 27.0065 36.9081C27.4359 37.1658 27.6936 37.5953 27.6936 38.1842C27.6936 39.0308 26.9819 39.3621 26.6752 39.4357C26.577 39.4603 26.4788 39.4971 26.4788 39.5462L26.6138 39.6321C27.4114 39.8038 28.0862 40.3192 28.0862 41.3008C28.0985 42.221 27.5463 42.7732 26.9083 42.994C26.2703 43.2149 25.5218 43.2394 24.9083 43.2394C24.5525 43.2394 24.1598 43.2026 23.8776 43.2026C23.3868 43.2026 22.896 43.2149 22.3193 43.2272V42.8713L22.6138 42.81C23.0678 42.7241 23.1292 42.6505 23.1292 41.7425V38.1965Z" fill="#D4DFFF"/>
<path d="M30.8954 39.4603C30.8954 39.8162 30.92 39.8407 31.5212 39.8407C31.877 39.8407 32.0979 39.7548 32.2819 39.5585C32.4537 39.3867 32.6377 39.0677 32.6377 38.4788C32.6377 37.5708 32.1101 36.9941 31.3249 36.9941C30.9077 36.9941 30.8954 37.0186 30.8954 37.5094V39.4603ZM29.5089 38.1843C29.5089 37.1781 29.4844 37.0677 29.0672 37.0064L28.7973 36.9696C28.6991 36.9205 28.6991 36.6628 28.8218 36.6137C29.5825 36.5646 30.3555 36.5278 31.3126 36.5278C32.1715 36.5278 32.8954 36.6628 33.2881 36.8837C33.8647 37.2272 34.1715 37.7303 34.1715 38.3683C34.1715 39.264 33.5703 39.6444 33.104 39.8775C33.0058 39.9266 33.0058 39.988 33.0549 40.0984C33.7175 41.4481 34.1347 42.1965 34.6132 42.6137C34.8709 42.8223 35.1408 42.8837 35.2881 42.8959L35.3249 43.1536C35.1653 43.2272 34.8463 43.2395 34.5273 43.2395C33.6071 43.2395 33.0181 42.9082 32.5764 42.1843C32.2574 41.6567 32.0242 41.1536 31.7911 40.626C31.6684 40.3561 31.5089 40.2702 31.2512 40.2702C30.8954 40.2702 30.8831 40.2947 30.8831 40.491V41.7303C30.8831 42.6505 30.9445 42.7242 31.3985 42.81L31.6684 42.8591V43.215C31.1408 43.1904 30.6746 43.1904 30.196 43.1904C29.693 43.1904 29.2512 43.2027 28.7236 43.215V42.8591L28.9936 42.81C29.4476 42.7242 29.5089 42.6628 29.5089 41.7303V38.1843Z" fill="#D4DFFF"/>
<path d="M38.2453 40.3803C38.4785 40.3803 38.5275 40.3558 38.4417 40.0858L38.184 39.276C38.0367 38.8466 37.865 38.3067 37.7668 38.0858C37.6932 38.319 37.4846 38.8588 37.3374 39.3251L37.0797 40.0736C36.9938 40.3435 37.0429 40.3803 37.2883 40.3803H38.2453ZM37.1042 40.9202C36.8588 40.9202 36.8343 40.9325 36.7729 41.1165L36.3803 42.2821C36.319 42.4785 36.3067 42.5644 36.3067 42.638C36.3067 42.6993 36.4417 42.7607 36.7239 42.8098L37.0306 42.8588C37.092 42.9325 37.1165 43.1656 37.0061 43.2147C36.6502 43.1901 36.2944 43.1901 35.865 43.1901C35.5214 43.1901 35.2883 43.2147 34.8343 43.2147C34.7239 43.1533 34.7361 42.9447 34.8098 42.8588L35.0797 42.8343C35.3251 42.7975 35.5214 42.7239 35.6932 42.3312C35.865 41.9263 36.049 41.4478 36.3312 40.7239L37.2515 38.2699C37.4846 37.6318 37.6564 37.2883 37.6196 36.9938C38.0981 36.8834 38.4785 36.3926 38.4907 36.3926C38.6257 36.3926 38.6871 36.4417 38.7239 36.5889C38.7975 36.8834 38.9202 37.2515 39.1779 37.9631L40.5398 41.9018C40.7484 42.503 40.8466 42.7361 41.2147 42.7975L41.595 42.8588L41.5828 43.2147C41.1042 43.1901 40.5521 43.1901 40.0367 43.1901C39.5337 43.1901 39.141 43.2024 38.6748 43.2147C38.5644 43.1533 38.5398 42.9447 38.6502 42.8588L38.9693 42.8098C39.2024 42.7729 39.2392 42.6993 39.2392 42.638C39.2392 42.5644 39.1656 42.3312 39.0429 41.9509L38.7729 41.092C38.7239 40.9325 38.638 40.9079 38.2944 40.9079H37.1042V40.9202Z" fill="#D4DFFF"/>
<path d="M47.8646 41.4849C47.8646 42.1352 47.8646 42.7732 47.8892 43.1045C47.8156 43.2272 47.5334 43.3376 47.3002 43.3376C47.288 43.3376 46.9567 42.8223 46.4904 42.2456L44.1714 39.3745C43.5824 38.6628 43.2511 38.2334 43.0794 38.0861C43.0303 38.1843 43.0303 38.3561 43.0303 38.7242V40.6751C43.0303 41.4849 43.0671 42.2456 43.1775 42.5156C43.2634 42.7242 43.4965 42.7978 43.7665 42.8346L44.0487 42.8714V43.2272C43.5088 43.2027 43.1039 43.2027 42.699 43.2027C42.3309 43.2027 41.9505 43.2149 41.5702 43.2272V42.8714L41.7419 42.8469C42.0119 42.7978 42.2205 42.7242 42.2941 42.5156C42.4045 42.2456 42.4291 41.4972 42.4291 40.6751V38.1229C42.4291 37.5708 42.4168 37.4113 42.3554 37.264C42.2696 37.0923 42.1346 36.9695 41.7788 36.9205L41.4965 36.8837C41.4229 36.7978 41.4352 36.5646 41.5334 36.5278C42.0119 36.5524 42.5027 36.5524 42.9199 36.5524C43.2634 36.5524 43.5579 36.5401 43.7665 36.5278C43.8646 36.9818 44.5272 37.7426 45.4229 38.8223L46.2696 39.8162C46.7113 40.3438 47.0057 40.6873 47.2389 40.9205C47.2757 40.8223 47.2757 40.6505 47.2757 40.4665V39.08C47.2757 38.2702 47.2389 37.5094 47.1284 37.2395C47.0426 37.0309 46.8217 36.9573 46.5395 36.9205L46.2696 36.8837V36.5278C46.8094 36.5524 47.2021 36.5524 47.6192 36.5524C47.9873 36.5524 48.3554 36.5401 48.7481 36.5278V36.8837L48.564 36.9082C48.3064 36.945 48.11 37.0309 48.0242 37.2395C47.9137 37.5094 47.8769 38.2702 47.8769 39.08V41.4849H47.8646Z" fill="#D4DFFF"/>
<path d="M51.411 41.374C51.411 41.9262 51.4355 42.2943 51.6073 42.5029C51.7914 42.6992 52.0858 42.7973 52.4417 42.7973C54.184 42.7973 54.773 41.2513 54.773 39.8771C54.773 38.0734 53.8159 36.9937 51.9999 36.9937C51.73 36.9937 51.5337 37.0427 51.4723 37.1286C51.411 37.2145 51.3987 37.3986 51.3987 37.7176V41.374H51.411ZM49.9754 38.1838C49.9754 37.2268 49.9509 37.0427 49.4969 36.9814L49.3006 36.9569C49.2024 36.9078 49.2024 36.6133 49.3251 36.601C50.1717 36.5519 50.957 36.5151 52.0245 36.5151C52.8466 36.5151 53.6687 36.601 54.368 36.8464C55.6809 37.325 56.4049 38.5029 56.4049 39.7667C56.4049 41.1164 55.7668 42.1961 54.6012 42.7728C53.9141 43.1164 53.092 43.2391 52.0613 43.2391C51.595 43.2391 51.092 43.1777 50.7239 43.1777C50.2453 43.1777 49.73 43.19 49.1533 43.2023V42.8464L49.4601 42.7973C49.9141 42.7237 49.9754 42.6501 49.9754 41.7176V38.1838Z" fill="#D4DFFF"/>
<path d="M25.2885 45.0673C24.0492 45.0673 23.3867 46.2207 23.3867 47.9017C23.3867 49.1287 23.8161 51.0919 25.4603 51.0919C26.7732 51.0919 27.2885 49.8035 27.2885 48.1716C27.2885 46.4661 26.54 45.0673 25.2885 45.0673ZM28.8959 48.0489C28.8959 50.2452 27.4235 51.5581 25.264 51.5581C23.2394 51.5581 21.7793 50.233 21.7793 48.1348C21.7793 46.1471 23.264 44.6011 25.3621 44.6011C27.4603 44.6011 28.8959 46.0121 28.8959 48.0489Z" fill="#D4DFFF"/>
<path d="M31.8896 47.4602C31.8896 47.7301 31.9019 47.7669 32.1718 47.7669H32.9448C33.4725 47.7669 33.5829 47.6933 33.6933 47.2025L33.7424 46.9571L34.1228 46.9694C34.0982 47.2884 34.0982 47.6688 34.0982 48.0491C34.0982 48.4172 34.1105 48.7976 34.1228 49.0921L33.7424 49.1044L33.6933 48.859C33.5952 48.3804 33.4847 48.2945 32.9448 48.2945H32.1718C31.9019 48.2945 31.8896 48.3191 31.8896 48.6013V49.9633C31.8896 50.8958 31.951 50.9817 32.405 51.043L32.7731 51.0921V51.4479C32.1473 51.4234 31.6565 51.4234 31.178 51.4234C30.7117 51.4234 30.2086 51.4356 29.6074 51.4479V51.0921L29.9387 51.043C30.3927 50.9694 30.454 50.908 30.454 49.9633V46.2209C30.454 45.2884 30.3927 45.1902 29.9387 45.1289L29.7424 45.1044C29.6565 45.043 29.6565 44.7976 29.7669 44.7485C30.1964 44.7731 30.6994 44.7731 31.1902 44.7731H33.3007C33.9387 44.7731 34.5154 44.7608 34.6626 44.7485C34.6626 44.9203 34.6626 45.6442 34.6872 46.3191C34.6504 46.4295 34.4295 46.4418 34.3068 46.3559C34.1964 45.9387 34.1105 45.7056 34.0123 45.5706C33.8405 45.362 33.5338 45.2393 33.0307 45.2393H32.2455C31.9142 45.2393 31.9142 45.2639 31.9142 45.6565V47.4602H31.8896Z" fill="#D4DFFF"/>
<path d="M39.4234 45.5217C39.4234 45.2763 39.4234 45.2272 39.178 45.2272H38.5522C37.8161 45.2272 37.6075 45.6321 37.3007 46.3683C37.178 46.4297 36.994 46.4051 36.9326 46.2824C37.1412 45.5953 37.1903 44.9695 37.2639 44.5769L37.3989 44.5278L37.5338 44.5646C37.5829 44.7364 37.6197 44.7732 38.3805 44.7732H42.1228C42.7854 44.7732 42.9326 44.761 43.0308 44.5524L43.1657 44.5278L43.313 44.6015C43.2148 44.945 43.1412 45.7548 43.1657 46.3315L42.7976 46.3561C42.6259 45.718 42.4909 45.2395 41.7302 45.2395H41.1289C40.8835 45.2395 40.859 45.2763 40.859 45.534V49.9634C40.859 50.8959 40.9203 50.9818 41.3743 51.0432L41.7792 51.0922V51.4481C41.1289 51.4235 40.6259 51.4235 40.1719 51.4235C39.6934 51.4235 39.1657 51.4358 38.4664 51.4481V51.0922L38.9203 51.0432C39.3743 50.9941 39.4357 50.9082 39.4357 49.9634V45.5217H39.4234Z" fill="#D4DFFF"/>
<path d="M46.3434 48.2087C45.9262 48.2087 45.9262 48.221 45.9262 48.5032V49.9511C45.9262 50.8836 45.9876 50.9695 46.4416 51.0308L46.7606 51.0676V51.4234C46.1839 51.3989 45.6808 51.3989 45.2391 51.3989C44.7606 51.3989 44.2575 51.4112 43.7422 51.4234V51.0676L43.9876 51.0431C44.4538 50.9817 44.5029 50.8836 44.5029 49.9511V46.2087C44.5029 45.2762 44.4538 45.178 43.9876 45.1167L43.7422 45.0922V44.7363C44.233 44.7609 44.7606 44.7609 45.2391 44.7609C45.6931 44.7609 46.1962 44.7486 46.6379 44.7363V45.0922L46.4293 45.1167C45.9999 45.178 45.9385 45.2762 45.9385 46.2087V47.3744C45.9385 47.6688 45.9508 47.6811 46.3557 47.6811H48.4416C48.8588 47.6811 48.8588 47.6688 48.8588 47.3744V46.2087C48.8588 45.2762 48.8097 45.1903 48.3434 45.129L48.0735 45.0922V44.7363C48.6256 44.7609 49.1164 44.7609 49.5949 44.7609C50.0857 44.7609 50.552 44.7486 51.0183 44.7363V45.0922L50.8219 45.1167C50.3557 45.1903 50.2943 45.2762 50.2943 46.2087V49.9511C50.2943 50.8836 50.3557 50.9572 50.8219 51.0308L51.0673 51.0676V51.4234C50.5643 51.3989 50.0735 51.3989 49.6072 51.3989C49.1042 51.3989 48.6134 51.4112 48.1348 51.4234V51.0676L48.3557 51.0431C48.8219 50.9817 48.871 50.8836 48.871 49.9511V48.5032C48.871 48.221 48.871 48.2087 48.4538 48.2087H46.3434Z" fill="#D4DFFF"/>
<path d="M54.0246 47.3741C54.0246 47.6563 54.0369 47.6808 54.3068 47.6808H55.0062C55.5338 47.6808 55.6442 47.6072 55.7547 47.1287L55.8037 46.871L56.1718 46.8833C56.1473 47.2023 56.1473 47.5704 56.1473 47.9508C56.1473 48.3311 56.1596 48.6992 56.1718 49.0182L55.8037 49.0305L55.7547 48.7728C55.6565 48.2943 55.5338 48.2084 55.0062 48.2084H54.3068C54.0369 48.2084 54.0246 48.2207 54.0246 48.5152V49.7054C54.0246 50.1716 54.0614 50.4906 54.1841 50.6624C54.3191 50.8465 54.5031 50.9201 55.2393 50.9201C56.1105 50.9201 56.454 50.8833 57.0062 49.7544C57.0921 49.644 57.3375 49.6808 57.3743 49.8035C57.3375 50.3311 57.0921 51.1409 56.9571 51.4109C56.4295 51.3863 55.4602 51.3863 54.6381 51.3863H53.3375C52.859 51.3863 52.3682 51.3986 51.6074 51.4109V51.055L52.0859 50.9814C52.5399 50.9078 52.6013 50.8465 52.6013 49.9262V46.1716C52.6013 45.2514 52.5399 45.2023 52.0859 45.1041L51.8283 45.055C51.7424 44.9937 51.7547 44.7606 51.8528 44.6992C52.3313 44.7238 52.8221 44.736 53.3007 44.736H55.4356C56.0737 44.736 56.6504 44.7238 56.7853 44.6992C56.7976 44.8587 56.8712 45.5827 56.9203 46.2575C56.8835 46.3679 56.6504 46.3925 56.5522 46.2943C56.4418 45.9385 56.2945 45.644 56.1718 45.4968C55.9755 45.3004 55.681 45.19 55.1902 45.19H54.3559C54.0246 45.19 54.0246 45.2146 54.0246 45.5827V47.3741Z" fill="#D4DFFF"/>
<path d="M30.7366 58.1596C30.7366 59.0921 30.7979 59.178 31.2519 59.2394L31.6568 59.2884V59.6443C31.0065 59.6197 30.5157 59.6197 30.0249 59.6197C29.5464 59.6197 29.0433 59.632 28.4421 59.6443V59.2884L28.7856 59.2394C29.2396 59.1657 29.301 59.1044 29.301 58.1596V57.6565C29.301 57.1535 29.2887 56.994 29.031 56.4541L27.8409 53.9878C27.6445 53.5707 27.5464 53.4111 27.2028 53.3498L26.8593 53.2884C26.7734 53.2026 26.7734 52.9694 26.8961 52.9326C27.3501 52.9572 27.7182 52.9572 28.3194 52.9572C28.9329 52.9572 29.4482 52.9449 29.7918 52.9326L29.8163 53.2884L29.4482 53.3743C29.2642 53.4111 29.2028 53.4602 29.2028 53.4602C29.2028 53.5461 29.2519 53.6934 29.4605 54.1596L29.9267 55.2394C30.074 55.5707 30.3071 56.0369 30.4298 56.2823C30.7243 55.7915 31.031 55.1412 31.2887 54.6259C31.6445 53.9142 31.7672 53.6075 31.7672 53.4848C31.7672 53.4234 31.6077 53.3621 31.3623 53.3253L31.166 53.2884C31.0801 53.2394 31.0801 52.9817 31.1783 52.9326C31.5832 52.9572 31.939 52.9572 32.3071 52.9572C32.6875 52.9572 33.0065 52.9449 33.2887 52.9326C33.4114 52.9694 33.4114 53.2148 33.3255 53.2884L33.0678 53.3375C32.8838 53.3621 32.6507 53.4357 32.5402 53.5829C32.393 53.7792 32.1476 54.1351 31.6691 55.0062L31.031 56.1473C30.7734 56.6259 30.6997 56.8713 30.6997 57.448V58.1596H30.7366Z" fill="#D4DFFF"/>
<path d="M35.4113 55.583C35.4113 55.8653 35.4236 55.8898 35.6935 55.8898H36.3806C36.9083 55.8898 37.0187 55.8162 37.1291 55.3376L37.1782 55.08L37.5463 55.0923C37.5217 55.4113 37.5217 55.7794 37.5217 56.1597C37.5217 56.5401 37.534 56.9082 37.5463 57.2272L37.1782 57.2395L37.1291 56.9818C37.031 56.5033 36.9083 56.4174 36.3806 56.4174H35.6935C35.4236 56.4174 35.4113 56.4297 35.4113 56.7242V57.9143C35.4113 58.3806 35.4481 58.6996 35.5708 58.8714C35.7058 59.0554 35.8898 59.1291 36.626 59.1291C37.4972 59.1291 37.8408 59.0922 38.3929 57.9634C38.4788 57.853 38.7242 57.8898 38.761 58.0125C38.7242 58.5401 38.4788 59.3499 38.3438 59.6199C37.8162 59.5953 36.8469 59.5953 36.0248 59.5953H34.7242C34.2457 59.5953 33.7549 59.6076 32.9941 59.6199V59.264L33.4727 59.1904C33.9267 59.1168 33.988 59.0554 33.988 58.1352V54.3806C33.988 53.4604 33.9267 53.4113 33.4727 53.3131L33.215 53.264C33.1291 53.2027 33.1291 52.9696 33.2395 52.9082C33.7181 52.9327 34.2089 52.945 34.6874 52.945H36.8101C37.4481 52.945 38.0248 52.9327 38.1598 52.9082C38.1721 53.0677 38.2334 53.7916 38.2948 54.4665C38.2579 54.5769 38.0248 54.6015 37.9267 54.5033C37.8162 54.1475 37.669 53.853 37.5463 53.7057C37.35 53.5094 37.0555 53.399 36.5647 53.399H35.7549C35.4236 53.399 35.4236 53.4235 35.4236 53.7916V55.583H35.4113Z" fill="#D4DFFF"/>
<path d="M41.9998 56.7973C42.2329 56.7973 42.282 56.7728 42.1961 56.5028L41.9384 55.693C41.8035 55.2636 41.6194 54.7237 41.5213 54.5028C41.4354 54.736 41.2391 55.2758 41.0918 55.7421L40.8342 56.4906C40.7483 56.7605 40.7973 56.7973 41.0427 56.7973H41.9998ZM40.8464 57.3372C40.601 57.3372 40.5765 57.3494 40.5151 57.5335L40.1225 58.6991C40.0611 58.8955 40.0489 58.9813 40.0489 59.055C40.0489 59.1163 40.1838 59.1777 40.4661 59.2268L40.7728 59.2758C40.8342 59.3494 40.8587 59.5826 40.7483 59.6317C40.3924 59.6071 40.0366 59.6071 39.6072 59.6071C39.2636 59.6071 39.0305 59.6317 38.5765 59.6317C38.4661 59.5703 38.4783 59.3617 38.5519 59.2758L38.8219 59.2513C39.0673 59.2145 39.2636 59.1409 39.4354 58.7482C39.6072 58.3433 39.7912 57.8648 40.0734 57.1409L40.9937 54.6869C41.2268 54.0488 41.3986 53.7053 41.3618 53.4108C41.8403 53.3004 42.2207 52.8096 42.2329 52.8096C42.3679 52.8096 42.417 52.8587 42.4661 53.0059C42.5519 53.3004 42.6624 53.6685 42.92 54.3801L44.282 58.3188C44.4906 58.92 44.5888 59.1531 44.9569 59.2145L45.3372 59.2758L45.3249 59.6317C44.8464 59.6071 44.2943 59.6071 43.7789 59.6071C43.2759 59.6071 42.8832 59.6194 42.417 59.6317C42.3065 59.5703 42.282 59.3617 42.3924 59.2758L42.7115 59.2268C42.9446 59.1899 42.9814 59.1163 42.9814 59.055C42.9814 58.9813 42.9078 58.7482 42.7851 58.3679L42.5151 57.509C42.4661 57.3495 42.3802 57.3249 42.0366 57.3249H40.8464V57.3372Z" fill="#D4DFFF"/>
<path d="M47.5824 55.8773C47.5824 56.2332 47.6069 56.2577 48.2081 56.2577C48.564 56.2577 48.7848 56.1718 48.9689 55.9755C49.1406 55.8037 49.3247 55.4847 49.3247 54.8957C49.3247 53.9878 48.7971 53.4111 48.0118 53.4111C47.5946 53.4111 47.5824 53.4356 47.5824 53.9264V55.8773ZM46.2081 54.6013C46.2081 53.5951 46.1836 53.4847 45.7664 53.4234L45.4965 53.3865C45.3983 53.3375 45.3983 53.0798 45.521 53.0307C46.2695 52.9816 47.0548 52.9448 48.0118 52.9448C48.8707 52.9448 49.5946 53.0798 49.9873 53.3007C50.564 53.6442 50.8707 54.1473 50.8707 54.7853C50.8707 55.681 50.2695 56.0614 49.8032 56.2945C49.7051 56.3436 49.7051 56.4049 49.7541 56.5154C50.4167 57.8651 50.8339 58.6135 51.3124 59.0307C51.5701 59.2393 51.84 59.3007 51.9873 59.3129L52.0241 59.5706C51.8646 59.6442 51.5456 59.6565 51.2265 59.6565C50.3063 59.6565 49.7173 59.3252 49.2756 58.6013C48.9566 58.0737 48.7235 57.5706 48.4903 57.043C48.3676 56.773 48.2081 56.6872 47.9505 56.6872C47.5946 56.6872 47.5824 56.7117 47.5824 56.908V58.1595C47.5824 59.0798 47.6437 59.1534 48.0977 59.2393L48.3676 59.2884V59.6442C47.84 59.6197 47.3738 59.6197 46.8952 59.6197C46.3922 59.6197 45.9505 59.6319 45.4229 59.6442V59.2884L45.6928 59.2393C46.1468 59.1534 46.2081 59.0921 46.2081 58.1595V54.6013Z" fill="#D4DFFF"/>
</svg>
