<svg width="80" height="80" viewBox="0 0 80 80" fill="none" xmlns="http://www.w3.org/2000/svg">
<path d="M8.89554 46.2699C9.63173 46.2699 10.1962 45.6687 10.1962 44.9693V33.8773C10.1962 33.1411 9.63173 32.5767 8.89554 32.5767C8.15934 32.5767 7.59492 33.1779 7.59492 33.8773V44.9693C7.59492 45.6564 8.15934 46.2699 8.89554 46.2699ZM13.7422 44.0981C14.4784 44.0981 15.0428 43.4969 15.0428 42.7975V36C15.0428 35.2638 14.4416 34.6994 13.7422 34.6994C13.006 34.6994 12.4416 35.3006 12.4416 36V42.7975C12.4906 43.4969 13.055 44.0981 13.7422 44.0981ZM3.99983 44.0981C4.73603 44.0981 5.30045 43.4969 5.30045 42.7975V36C5.30045 35.2638 4.69922 34.6994 3.99983 34.6994C3.30045 34.6994 2.69922 35.3006 2.69922 36V42.7975C2.7483 43.4969 3.34953 44.0981 3.99983 44.0981Z" fill="#D4DFFF"/>
<path d="M8.8957 46.3067C9.37422 46.3067 9.76686 46 9.97545 45.6196L14.8712 36.5276C15.0429 36.2208 15.092 35.8773 14.957 35.5337C14.8712 35.1902 14.6503 34.9325 14.3067 34.7484C14.0859 34.6135 13.8773 34.5767 13.6564 34.5767C13.1779 34.5767 12.7853 34.8834 12.5767 35.2638L7.73005 44.3558C7.38649 45.0061 7.64416 45.7791 8.24539 46.1349C8.45398 46.2699 8.67484 46.3558 8.8957 46.3067Z" fill="#D4DFFF"/>
<path d="M4.03687 44.1842C4.5154 44.1842 4.90804 43.8774 5.11663 43.497L10.0491 34.405C10.2209 34.0983 10.27 33.7547 10.135 33.4112C10.0491 33.0676 9.82828 32.8099 9.48472 32.6259C9.26387 32.4909 9.05528 32.4541 8.83442 32.4541C8.35589 32.4541 7.96325 32.7609 7.75466 33.1412L2.85896 42.2332C2.5154 42.8836 2.77307 43.6566 3.3743 44.0124C3.57061 44.1474 3.82828 44.1842 4.03687 44.1842ZM54.4909 35.8283H52.0614V44.7977C52.0614 44.9694 51.9264 45.1044 51.7547 45.1044H49.7669C49.5952 45.1044 49.4602 44.9694 49.4602 44.7977V35.8283H46.9939C46.8221 35.8283 46.6872 35.6934 46.6872 35.5216V33.9633C46.6872 33.7915 46.8221 33.6566 46.9939 33.6566H54.4418C54.6136 33.6566 54.7485 33.7915 54.7485 33.9633V35.5216C54.7976 35.7424 54.6258 35.8283 54.4909 35.8283ZM43.0553 37.3498C43.0553 38.221 42.8344 38.7731 41.2761 38.7731H39.9387V35.7793H41.4111C42.7485 35.7793 43.1044 36.4664 43.1044 37.1167C43.0553 37.1289 43.0553 37.3498 43.0553 37.3498ZM45.9633 44.7486L43.6688 40.4173C44.7485 39.9878 45.6197 38.994 45.6197 37.3375V37.178C45.6197 34.4541 43.6688 33.7179 42.2455 33.7179H37.6565C37.4847 33.7179 37.3498 33.8529 37.3498 34.0247V44.8467C37.3498 45.0185 37.4847 45.1535 37.6565 45.1535H39.6442C39.816 45.1535 39.951 45.0185 39.951 44.8467V40.9449H41.2025L43.2393 44.8467C43.3252 45.0185 43.3743 45.1535 43.5461 45.1535H45.8406C46.0123 45.1535 46.0614 45.0676 46.0614 44.9817C46.0001 44.8836 45.9633 44.8345 45.9633 44.7486ZM35.2639 35.7424C35.4356 35.7424 35.5706 35.6075 35.5706 35.4357V34.0124C35.5706 33.7915 35.4847 33.7547 35.2639 33.7056H31.8406H31.4111H28.9448C28.7731 33.7056 28.6381 33.8406 28.6381 34.0124V44.8345C28.6381 45.0062 28.7731 45.1412 28.9448 45.1412H31.4111H32.1473H35.2639C35.4847 45.0921 35.5706 45.0062 35.5706 44.8345V43.4112C35.5706 43.2394 35.4356 43.1044 35.2639 43.1044H31.5338C31.362 43.1044 31.2271 42.9694 31.2271 42.7977V42.0615V41.2394V40.3682H35.1289C35.3007 40.3682 35.4356 40.2332 35.4356 40.0615V38.5891C35.4356 38.4173 35.3007 38.2823 35.1289 38.2823H31.2271V37.632V36.0247C31.2271 35.8529 31.362 35.7179 31.5338 35.7179C31.5461 35.7424 35.2639 35.7424 35.2639 35.7424ZM62.724 35.7424C62.8958 35.7424 63.0307 35.6075 63.0307 35.4357V34.0124C63.0307 33.7915 62.9448 33.7547 62.724 33.7056H59.3007H58.8712H56.405C56.2332 33.7056 56.0982 33.8406 56.0982 34.0124V44.8345C56.0982 45.0062 56.2332 45.1412 56.405 45.1412H58.8344H59.5706H62.6872C62.908 45.0921 62.9939 45.0062 62.9939 44.8345V43.4112C62.9939 43.2394 62.859 43.1044 62.6872 43.1044H59.0062C58.8344 43.1044 58.6994 42.9694 58.6994 42.7977V42.0615V41.2394V40.3682H62.6013C62.7731 40.3682 62.908 40.2332 62.908 40.0615V38.5891C62.908 38.4173 62.7731 38.2823 62.6013 38.2823H58.6994V37.632V36.0247C58.6994 35.8529 58.8344 35.7179 59.0062 35.7179C58.9939 35.7424 62.724 35.7424 62.724 35.7424ZM27.5093 33.9265C27.5093 33.7547 27.4234 33.6688 27.2516 33.6688H25.1289C24.9939 33.6688 24.8712 33.8038 24.8221 33.9265L22.9203 42.8099C22.8712 42.9817 22.8344 43.0308 22.6994 43.0308C22.5645 43.0308 22.5277 42.9817 22.4786 42.8099L20.6994 33.9756C20.6504 33.8038 20.5645 33.7179 20.3927 33.7179H18.2945C18.1596 33.7179 18.0369 33.8038 18.0369 33.9756C18.0369 34.0247 18.0369 34.0247 18.0369 34.0615C18.0369 34.0615 20.5031 44.4173 20.5031 44.5032C20.5522 44.675 20.724 45.1903 21.4111 45.1903H22.405H23.2271H24.1841C24.8712 45.1903 25.0553 44.7118 25.0921 44.5032C25.5706 42.5523 27.5583 34.0615 27.5583 34.0615C27.5093 33.9633 27.5093 33.9633 27.5093 33.9265ZM73.8037 45.1044H71.4234C71.2025 45.1044 71.1166 45.0553 71.0307 44.8835L69.0798 41.632L67.3007 44.7977C67.2148 44.9694 67.0798 45.1044 66.908 45.1044H64.6504C64.4786 45.1044 64.4295 45.0185 64.4295 44.8835C64.4295 44.8345 64.4295 44.7977 64.4786 44.7977L67.6442 39.2516L64.4418 34.0124C64.4418 33.9633 64.3927 33.9633 64.3927 33.9265C64.3927 33.8406 64.4786 33.7056 64.6136 33.7056H67.043C67.2148 33.7056 67.3498 33.8774 67.4356 34.0124L69.3007 37.0921L70.9939 34.0124C71.0798 33.8774 71.2148 33.7056 71.3866 33.7056H73.6442C73.7792 33.7056 73.8651 33.7915 73.8651 33.9265C73.8651 33.9756 73.8651 33.9756 73.816 34.0124L70.7363 39.3866L73.9878 44.7608C74.0369 44.8099 74.0369 44.8467 74.0369 44.9326C73.9755 45.0553 73.9387 45.1044 73.8037 45.1044ZM75.4111 34.2332H75.1044V34.5768H75.4111C75.5461 34.5768 75.6688 34.4909 75.6688 34.405C75.632 34.3191 75.5338 34.2332 75.4111 34.2332ZM75.497 34.6995L75.8037 35.0921H75.632L75.3252 34.6995H75.0675V35.0921H74.9326V34.0983H75.362C75.5829 34.0983 75.7547 34.2332 75.7547 34.405C75.7547 34.5768 75.6688 34.6627 75.497 34.6995ZM75.3252 33.7056C74.8099 33.7056 74.4172 34.1351 74.4172 34.6136C74.4172 35.1289 74.8099 35.5216 75.3252 35.5216C75.8406 35.5216 76.2332 35.0921 76.2332 34.6136C76.2332 34.1351 75.8406 33.7056 75.3252 33.7056ZM75.3252 35.6197C74.7608 35.6197 74.3313 35.1903 74.3313 34.6259C74.3313 34.0615 74.7608 33.632 75.3252 33.632C75.8896 33.632 76.3191 34.0615 76.3191 34.6259C76.3191 35.178 75.8896 35.6197 75.3252 35.6197Z" fill="#D4DFFF"/>
</svg>
