<svg width="116" height="80" viewBox="0 0 116 80" fill="none" xmlns="http://www.w3.org/2000/svg">
<path fill-rule="evenodd" clip-rule="evenodd" d="M12.1653 40.8836H6.70517V42.4787H12.2757L12.5579 42.3192C12.7297 42.0861 12.7297 41.7671 12.7297 41.6812C12.7297 41.6076 12.7543 41.3253 12.5947 41.0799C12.423 40.8591 12.1653 40.8836 12.1653 40.8836ZM11.2941 36.2333H6.70517V37.8652H11.3923L11.7113 37.6812C11.8708 37.4726 11.8831 37.1781 11.8831 37.0677C11.8831 36.9572 11.8708 36.6628 11.7113 36.4296C11.5395 36.2088 11.2941 36.2333 11.2941 36.2333ZM0.876953 46.2211V32.7241H15.1346C15.1346 32.7241 16.4475 32.7241 17.0119 33.3622C17.5763 34.0002 17.7358 34.6628 17.7727 35.5339C17.8095 36.4051 17.4659 37.2885 16.9751 37.7916C16.9751 37.7916 16.5579 38.2088 15.9199 38.4419C15.9199 38.4419 16.9383 38.8345 17.4046 39.3867C17.6868 39.718 18.2512 40.1597 18.3125 42.0984C18.3862 44.037 17.3678 45.0922 17.1837 45.3008C16.9997 45.5094 16.1285 46.2333 14.6316 46.2333H0.876953V46.2211Z" fill="#D4DFFF"/>
<path fill-rule="evenodd" clip-rule="evenodd" d="M26.9757 37.8403H31.6628L32.0064 37.6439C32.1168 37.4844 32.1536 37.239 32.1536 37.055C32.1536 36.8709 32.1414 36.6869 32.0064 36.466C31.8714 36.2329 31.6138 36.2452 31.6138 36.2452H26.9757M21.2334 46.2206V32.7114H34.2273C35.896 32.785 36.6076 33.239 37.1721 33.7544C37.7365 34.2574 38.2641 35.4354 38.215 36.6133C38.1659 37.7912 37.8837 38.8219 37.0862 39.6317C36.2886 40.4415 35.0494 40.5887 35.0494 40.5887L38.4849 46.2329H32.1536L29.0616 41.1041H26.9757V46.2329H21.2334V46.2206Z" fill="#D4DFFF"/>
<path d="M40.8408 32.7115H46.6445V40.9323C46.6445 40.9323 46.6445 41.6808 47.0494 41.9876C47.442 42.2943 47.847 42.5765 49.0739 42.5765C50.2887 42.5765 50.8408 42.1103 50.9144 41.9998C50.9881 41.8894 51.2703 41.7544 51.3071 41.0796C51.3439 40.417 51.3071 32.6992 51.3071 32.6992H56.7672V41.3495C56.7672 41.3495 56.7672 43.3127 55.5402 44.4416C55.5402 44.4416 54.6322 45.3863 53.0371 45.8281C53.0371 45.8281 51.0494 46.4416 48.9513 46.4047C47.1966 46.3802 45.9697 46.2698 44.1292 45.6317C42.669 45.1287 42.0433 44.4538 41.9451 44.3557C41.847 44.2575 40.8286 43.3986 40.8531 41.0919" fill="#D4DFFF"/>
<path d="M60.374 46.2452H65.8096V42.3311L67.6501 40.8709L71.1838 46.2452H78.0182L72.055 37.5212L77.4538 32.7114H70.1409L65.8096 37.0918V32.7114H60.374" fill="#D4DFFF"/>
<path d="M79.7119 46.2084V32.7114H95.442V36.2452H85.4788V37.7053H93.0984V41.0182H85.4788V42.4906H95.442V46.2084" fill="#D4DFFF"/>
<path fill-rule="evenodd" clip-rule="evenodd" d="M104.35 37.8403H109.037L109.38 37.6439C109.491 37.4844 109.528 37.2513 109.528 37.0673C109.528 36.8832 109.515 36.7114 109.38 36.4906C109.245 36.2697 108.988 36.2697 108.988 36.2697H104.35M98.6074 46.2206V32.7114H111.601C113.27 32.785 113.982 33.239 114.546 33.7544C115.11 34.2574 115.638 35.4354 115.589 36.6133C115.54 37.7912 115.258 38.8219 114.46 39.6317C113.675 40.4415 112.423 40.5887 112.423 40.5887L115.859 46.2329H109.528L106.436 41.1041H104.325V46.2329H98.6074V46.2206Z" fill="#D4DFFF"/>
<path d="M36.5342 12.3191C36.5342 10.3927 38.0925 8.84668 40.0066 8.84668C41.933 8.84668 43.4912 10.405 43.4912 12.3191C43.4912 14.2455 41.933 15.7915 40.0066 15.7915C38.0925 15.8037 36.5342 14.2455 36.5342 12.3191Z" fill="#D4DFFF"/>
<path d="M25.1474 31.7668C25.1474 31.7668 14.9388 18.0122 20.6811 12.2453C25.2578 7.74221 37.9327 9.49681 49.8713 15.2391C65.2824 22.8465 71.0983 28.822 75.6014 31.7668H72.767C57.086 18.9569 30.448 5.48454 22.0431 13.7177C17.3805 18.4539 28.2517 30.5643 28.7057 31.7668" fill="#D4DFFF"/>
<path d="M42.6074 31.7666C65.1964 13.0673 78.6197 10.3311 89.0246 10.3311C98.8406 10.3311 99.1596 16.9446 99.1964 18.012C99.3682 22.785 95.9694 28.0488 93.5277 31.7666H91.27C93.1718 29.3249 100.472 19.7421 96.2761 14.9691C92.7056 10.8955 80.4847 12.9936 71.405 16.9446C62.632 20.1225 51.4172 28.0857 47.6258 31.7666" fill="#D4DFFF"/>
<path d="M36.5342 66.7116C36.5342 64.7853 38.0925 63.2393 40.0066 63.2393C41.933 63.2393 43.4912 64.7975 43.4912 66.7116C43.4912 68.638 41.933 70.184 40.0066 70.184C38.0925 70.1963 36.5342 68.638 36.5342 66.7116Z" fill="#D4DFFF"/>
<path d="M25.1474 47.2637C25.1474 47.2637 14.9388 61.0183 20.6811 66.7851C25.2578 71.2882 37.9327 69.5336 49.8713 63.8035C65.2824 56.1962 71.0983 50.2207 75.6014 47.2759H72.767C57.086 60.0735 30.448 73.5581 22.0431 65.3127C17.3805 60.5766 28.2517 48.4661 28.7057 47.2637" fill="#D4DFFF"/>
<path d="M42.6074 47.2637C65.1964 65.9753 78.6197 68.7115 89.0246 68.7115C98.8406 68.7115 99.1596 62.098 99.1964 61.0305C99.3682 56.2575 95.9694 50.9937 93.5277 47.2759H91.27C93.1718 49.7177 100.472 59.3005 96.2761 64.0858C92.7056 68.1594 80.4847 66.0612 71.405 62.1103C62.632 58.9324 51.4172 50.9692 47.6258 47.2882" fill="#D4DFFF"/>
</svg>
