<svg width="80" height="80" viewBox="0 0 80 80" fill="none" xmlns="http://www.w3.org/2000/svg">
<path d="M10.2451 31.9385V39.3741C11.3985 39.9017 12.4537 39.779 13.4967 39.3004C15.3617 38.4538 17.1286 39.7053 17.4108 40.9692C17.4353 41.1164 17.4967 41.1777 17.6071 41.1655C17.6316 41.0305 17.7175 40.6747 17.7421 40.3434C17.7666 40.0612 17.7911 39.779 17.7911 39.4968C17.7911 35.3373 14.4169 31.9507 10.2451 31.9385Z" fill="#D4DFFF"/>
<path d="M10.2209 31.9385C10.1841 31.9385 10.1596 31.9385 10.1228 31.9385C5.98781 31.9876 2.65039 35.3618 2.65039 39.509C2.65039 43.6931 6.03689 47.0796 10.2209 47.0796H10.2332C10.2332 46.9692 10.2332 46.8465 10.2332 46.736V38.9814V31.9507H10.2209V31.9385Z" fill="#D4DFFF"/>
<path d="M10.2454 41.4602C9.91412 41.4112 9.58283 41.3375 9.25154 41.2148C7.12884 40.4296 6.03682 38.0737 6.8221 35.951C7.49694 34.1351 9.50921 33.2026 11.3374 33.8651C12.8957 34.4418 13.6933 36.1719 13.1166 37.7302C12.6749 38.9204 11.4601 39.5952 10.2454 39.3743V41.4602Z" fill="#D4DFFF"/>
<path d="M9.01855 36.1352C9.01855 36.9695 9.6934 37.6444 10.5278 37.6444C11.3621 37.6444 12.037 36.9695 12.037 36.1352C12.037 35.3008 11.3621 34.626 10.5278 34.626C9.6934 34.626 9.01855 35.3008 9.01855 36.1352Z" fill="#D4DFFF"/>
<path d="M10.4785 35.8406C10.4785 36.086 10.6748 36.2824 10.9202 36.2824C11.1656 36.2824 11.362 36.086 11.362 35.8406C11.362 35.5952 11.1656 35.3989 10.9202 35.3989C10.6748 35.4112 10.4785 35.6075 10.4785 35.8406Z" fill="#D4DFFF"/>
<path d="M14.1347 39.7789C12.3924 40.5397 10.6991 40.0611 10.2451 39.374V41.4599C11.8647 41.6808 13.4721 41.0673 14.5151 39.8526C14.5151 39.8526 14.4414 39.644 14.1347 39.7789Z" fill="#D4DFFF"/>
<path d="M29.1661 46.319C29.0925 46.368 29.0189 46.4049 28.933 46.4294C28.8471 46.4539 28.7612 46.4662 28.663 46.4662C28.5403 46.4662 28.4176 46.4417 28.3195 46.4049C28.209 46.3558 28.1232 46.2944 28.0495 46.2208C27.9759 46.1472 27.9146 46.0613 27.8778 45.9509C27.8409 45.8527 27.8164 45.7423 27.8164 45.6318C27.8164 45.5214 27.8409 45.411 27.8778 45.3128C27.9146 45.2147 27.9759 45.1165 28.0618 45.0429C28.1354 44.9693 28.2213 44.9079 28.3317 44.8588C28.4299 44.8098 28.5526 44.7975 28.6753 44.7975C28.798 44.7975 28.9207 44.822 29.0189 44.8588C29.117 44.9079 29.2152 44.957 29.2888 45.0429C29.3624 45.1165 29.4238 45.2024 29.4606 45.3128C29.4974 45.411 29.5219 45.5214 29.5219 45.6318C29.5219 45.73 29.5097 45.8159 29.4851 45.9018C29.4606 45.9877 29.4115 46.0613 29.3624 46.1349L29.5465 46.2944L29.3624 46.503L29.1661 46.319ZM28.6753 46.2085C28.7367 46.2085 28.7857 46.1963 28.8225 46.184C28.8716 46.1717 28.9084 46.1472 28.9452 46.1226L28.663 45.8895L28.8471 45.6809L29.1293 45.9386C29.1784 45.8527 29.2152 45.7545 29.2152 45.6318C29.2152 45.546 29.2029 45.4723 29.1784 45.411C29.1538 45.3374 29.117 45.276 29.0679 45.2269C29.0189 45.1779 28.9575 45.1288 28.8962 45.1042C28.8225 45.0674 28.7489 45.0552 28.6753 45.0552C28.5894 45.0552 28.5158 45.0674 28.4544 45.1042C28.3808 45.1288 28.3317 45.1779 28.2827 45.2269C28.2336 45.276 28.1968 45.3374 28.1722 45.411C28.1477 45.4846 28.1354 45.5582 28.1354 45.6318C28.1354 45.7055 28.1477 45.7914 28.1722 45.8527C28.1968 45.9263 28.2336 45.9877 28.2827 46.0368C28.3317 46.0858 28.3931 46.1349 28.4544 46.1595C28.5281 46.1963 28.5894 46.2085 28.6753 46.2085ZM31.0066 46.4785C31.117 46.4785 31.2152 46.4662 31.3011 46.4294C31.387 46.4049 31.4606 46.3558 31.5219 46.2944C31.5833 46.2331 31.6324 46.1595 31.6569 46.0613C31.6937 45.9754 31.706 45.865 31.706 45.7423V44.822H31.4238V45.7668C31.4238 45.9141 31.387 46.0245 31.3133 46.1104C31.2397 46.184 31.1416 46.2208 31.0066 46.2208C30.8716 46.2208 30.7735 46.184 30.6998 46.0981C30.6262 46.0245 30.5894 45.9018 30.5894 45.7545V44.822H30.3072V45.7668C30.3072 45.8895 30.3195 45.9877 30.3563 46.0736C30.3931 46.1595 30.4299 46.2331 30.4913 46.2944C30.5526 46.3558 30.6262 46.4049 30.7121 46.4294C30.8103 46.4539 30.8962 46.4785 31.0066 46.4785ZM33.1416 44.8098H33.4115L34.1232 46.4539H33.8164L33.6569 46.0613H32.8839L32.7121 46.4539H32.4176L33.1416 44.8098ZM33.5465 45.8036L33.2643 45.1533L32.982 45.8036H33.5465ZM34.8716 46.4539H36.0127V46.1963H35.1538V44.822H34.8716V46.4539ZM36.7857 46.4539H37.0679V44.822H36.7857V46.4539ZM38.3808 46.4539H38.6753V45.092H39.1906V44.822H37.8655V45.092H38.3808V46.4539ZM40.4299 46.4539H40.7244V45.8036L41.3747 44.822H41.0434L40.5771 45.546L40.1232 44.822H39.7796L40.4299 45.8036V46.4539ZM43.8164 46.4662C43.9023 46.4662 43.9759 46.4539 44.0495 46.4294C44.1232 46.4049 44.1845 46.3803 44.2336 46.3312C44.2827 46.2944 44.3195 46.2331 44.3563 46.1717C44.3808 46.1104 44.4054 46.049 44.4054 45.9631C44.4054 45.9018 44.3931 45.8404 44.3686 45.7914C44.344 45.7423 44.3072 45.6932 44.2704 45.6564C44.2213 45.6196 44.1722 45.5828 44.1109 45.5582C44.0495 45.5337 43.9636 45.5091 43.89 45.4846C43.8164 45.4601 43.7428 45.4478 43.6937 45.4355C43.6446 45.4233 43.6078 45.3987 43.571 45.3864C43.5465 45.3619 43.5219 45.3496 43.5097 45.3251C43.4974 45.3006 43.4974 45.276 43.4974 45.2392C43.4974 45.1901 43.5219 45.141 43.571 45.1042C43.6201 45.0674 43.6814 45.0429 43.7673 45.0429C43.8409 45.0429 43.9146 45.0552 43.9882 45.0797C44.0618 45.1042 44.1354 45.1533 44.209 45.2024L44.3686 44.9815C44.2827 44.9079 44.1968 44.8588 44.0986 44.8343C44.0005 44.7975 43.9023 44.7852 43.7796 44.7852C43.6937 44.7852 43.6201 44.7975 43.5587 44.822C43.4851 44.8466 43.4238 44.8834 43.387 44.9202C43.3379 44.957 43.3011 45.0061 43.2765 45.0674C43.252 45.1288 43.2397 45.1901 43.2397 45.2637C43.2397 45.3374 43.252 45.3987 43.2765 45.4601C43.3011 45.5091 43.3379 45.5582 43.387 45.595C43.436 45.6318 43.4851 45.6687 43.5587 45.6932C43.6201 45.7177 43.706 45.7423 43.7919 45.7668C43.8655 45.7791 43.9268 45.8036 43.9759 45.8159C44.025 45.8282 44.0618 45.8527 44.0863 45.8772C44.1109 45.9018 44.1354 45.9141 44.1354 45.9386C44.1477 45.9631 44.1477 45.9877 44.1477 46.0122C44.1477 46.0736 44.1232 46.1226 44.0741 46.1595C44.025 46.1963 43.9514 46.2085 43.8655 46.2085C43.7673 46.2085 43.6692 46.184 43.5955 46.1595C43.5097 46.1226 43.436 46.0736 43.3624 45.9999L43.1906 46.2085C43.2888 46.2944 43.3992 46.368 43.5097 46.4049C43.571 46.4539 43.6937 46.4662 43.8164 46.4662ZM45.9514 46.4785C46.025 46.4785 46.0986 46.4662 46.16 46.4539C46.2213 46.4417 46.2827 46.4171 46.3317 46.3926C46.3808 46.368 46.4299 46.3312 46.479 46.3067C46.5281 46.2699 46.5771 46.2331 46.614 46.184L46.4299 45.9999C46.3563 46.0613 46.2949 46.1226 46.2213 46.1595C46.1477 46.1963 46.0618 46.2208 45.9636 46.2208C45.89 46.2208 45.8164 46.2085 45.7428 46.1717C45.6814 46.1349 45.6201 46.0981 45.571 46.049C45.5219 45.9999 45.4851 45.9386 45.4606 45.865C45.436 45.7914 45.4238 45.7177 45.4238 45.6441C45.4238 45.5582 45.436 45.4846 45.4606 45.4233C45.4851 45.3496 45.5219 45.3006 45.571 45.2392C45.6201 45.1901 45.6692 45.141 45.7428 45.1165C45.8041 45.0797 45.8778 45.0674 45.9636 45.0674C46.0618 45.0674 46.1354 45.0797 46.209 45.1165C46.2827 45.1533 46.3563 45.2024 46.4176 45.2637L46.6017 45.0552C46.5649 45.0184 46.5158 44.9815 46.479 44.957C46.4299 44.9202 46.3931 44.8957 46.344 44.8711C46.2949 44.8466 46.2336 44.8343 46.1722 44.822C46.1109 44.8098 46.0495 44.8098 45.9636 44.8098C45.8409 44.8098 45.7305 44.8343 45.6201 44.8711C45.5219 44.9202 45.4238 44.9693 45.3501 45.0552C45.2765 45.1288 45.2152 45.2269 45.1784 45.3251C45.1416 45.4233 45.117 45.5337 45.117 45.6564C45.117 45.7668 45.1416 45.8772 45.1784 45.9877C45.2275 46.0858 45.2765 46.184 45.3501 46.2576C45.4238 46.3312 45.5097 46.3926 45.6078 46.4417C45.7305 46.4539 45.8409 46.4785 45.9514 46.4785ZM48.16 46.4785C48.0373 46.4785 47.9146 46.4539 47.8164 46.4171C47.7182 46.368 47.6201 46.3067 47.5465 46.2331C47.4728 46.1595 47.4115 46.0736 47.3747 45.9631C47.3379 45.865 47.3133 45.7545 47.3133 45.6441C47.3133 45.5337 47.3379 45.4233 47.3747 45.3251C47.4115 45.2269 47.4728 45.1288 47.5587 45.0552C47.6324 44.9815 47.7305 44.9202 47.8287 44.8711C47.9268 44.822 48.0495 44.8098 48.1722 44.8098C48.2949 44.8098 48.4176 44.8343 48.5158 44.8711C48.6262 44.9202 48.7121 44.9693 48.7857 45.0552C48.8594 45.1288 48.9207 45.2147 48.9575 45.3251C48.9943 45.4233 49.0189 45.5337 49.0189 45.6441C49.0189 45.7545 48.9943 45.865 48.9575 45.9631C48.9207 46.0613 48.8594 46.1595 48.7857 46.2331C48.7121 46.3067 48.6262 46.368 48.5158 46.4171C48.3931 46.4539 48.2827 46.4785 48.16 46.4785ZM48.16 46.2085C48.2336 46.2085 48.3072 46.1963 48.3808 46.1595C48.4422 46.1226 48.5035 46.0858 48.5526 46.0368C48.6017 45.9877 48.6385 45.9263 48.663 45.8527C48.6876 45.7791 48.6998 45.7055 48.6998 45.6318C48.6998 45.546 48.6876 45.4723 48.663 45.411C48.6385 45.3374 48.6017 45.276 48.5526 45.2269C48.5035 45.1779 48.4422 45.1288 48.3808 45.1042C48.3195 45.0674 48.2336 45.0552 48.16 45.0552C48.0741 45.0552 48.0005 45.0674 47.9391 45.1042C47.8778 45.1288 47.8164 45.1779 47.7673 45.2269C47.7182 45.276 47.6814 45.3374 47.6569 45.411C47.6324 45.4846 47.6201 45.5582 47.6201 45.6318C47.6201 45.7055 47.6324 45.7914 47.6569 45.8527C47.6814 45.9263 47.7182 45.9877 47.7673 46.0368C47.8164 46.0858 47.8778 46.1349 47.9391 46.1595C48.0127 46.1963 48.0863 46.2085 48.16 46.2085ZM49.8287 44.822H50.5526C50.6508 44.822 50.7489 44.8343 50.8225 44.8711C50.8962 44.8957 50.9698 44.9447 51.0189 44.9938C51.0557 45.0429 51.0925 45.092 51.117 45.1533C51.1416 45.2147 51.1538 45.276 51.1538 45.3496C51.1538 45.411 51.1416 45.4723 51.117 45.5337C51.1048 45.5828 51.0679 45.6318 51.0434 45.6809C51.0066 45.7177 50.9698 45.7545 50.9207 45.7914C50.8716 45.8159 50.8225 45.8404 50.7612 45.8527L51.2029 46.4662H50.8716L50.4667 45.9018H50.4544H50.0986V46.4662H49.8164V44.822H49.8287ZM50.5281 45.6318C50.6262 45.6318 50.7121 45.6073 50.7735 45.5582C50.8348 45.5091 50.8594 45.4478 50.8594 45.3619C50.8594 45.276 50.8348 45.2024 50.7735 45.1533C50.7121 45.1042 50.6262 45.0797 50.5281 45.0797H50.1109V45.6318H50.5281ZM51.9882 46.4539H52.2704V44.822H51.9882V46.4539ZM53.1784 46.4539H53.4606V45.2883L54.3563 46.4539H54.6017V44.822H54.3195V45.9509L53.4483 44.822H53.1784V46.4539ZM56.2581 46.4785C56.3317 46.4785 56.4054 46.4662 56.4667 46.4539C56.5281 46.4417 56.5894 46.4171 56.6508 46.4049C56.7121 46.3803 56.7612 46.3558 56.8103 46.319C56.8594 46.2944 56.9084 46.2576 56.9452 46.2208V45.5337H56.2581V45.7791H56.6753V46.0858C56.6262 46.1226 56.5649 46.1595 56.5035 46.1717C56.4299 46.1963 56.3563 46.2085 56.2827 46.2085C56.1968 46.2085 56.1232 46.1963 56.0618 46.1595C55.9882 46.1349 55.9391 46.0858 55.89 46.0368C55.8409 45.9877 55.8041 45.9263 55.7796 45.8527C55.7551 45.7791 55.7428 45.7055 55.7428 45.6196C55.7428 45.546 55.7551 45.4723 55.7796 45.3987C55.8041 45.3251 55.8409 45.2637 55.89 45.2147C55.9391 45.1656 55.9882 45.1165 56.0495 45.092C56.1109 45.0552 56.1845 45.0429 56.2581 45.0429C56.3072 45.0429 56.3563 45.0429 56.3931 45.0552C56.4299 45.0674 56.4667 45.0797 56.5158 45.092C56.5526 45.1042 56.5894 45.1288 56.614 45.141C56.6508 45.1656 56.6753 45.1901 56.7121 45.2147L56.8962 44.9938C56.8594 44.957 56.8103 44.9325 56.7735 44.8956C56.7244 44.8711 56.6753 44.8466 56.6262 44.822C56.5771 44.8098 56.5281 44.7852 56.4667 44.7852C56.4054 44.7729 56.344 44.7729 56.2704 44.7729C56.1477 44.7729 56.0373 44.7975 55.9391 44.8343C55.8287 44.8834 55.7428 44.9447 55.6692 45.0183C55.5955 45.092 55.5342 45.1901 55.4974 45.2883C55.4606 45.3864 55.436 45.4969 55.436 45.6073C55.436 45.73 55.4606 45.8404 55.4974 45.9386C55.5342 46.0368 55.5955 46.1226 55.6692 46.1963C55.7428 46.2699 55.8287 46.3312 55.9391 46.3803C56.0127 46.4539 56.1232 46.4785 56.2581 46.4785ZM59.5097 46.4662C59.5955 46.4662 59.6814 46.4539 59.7428 46.4294C59.8164 46.4049 59.8778 46.3803 59.9268 46.3312C59.9759 46.2944 60.0127 46.2331 60.0495 46.1717C60.0741 46.1104 60.0863 46.049 60.0863 45.9631C60.0863 45.9018 60.0741 45.8404 60.0495 45.7914C60.025 45.7423 59.9882 45.6932 59.9514 45.6564C59.9023 45.6196 59.8532 45.5828 59.7919 45.5582C59.7305 45.5337 59.6446 45.5091 59.5587 45.4846C59.4851 45.4601 59.4238 45.4478 59.3624 45.4355C59.3133 45.4233 59.2643 45.3987 59.2397 45.3864C59.2152 45.3619 59.1906 45.3496 59.1784 45.3251C59.1661 45.3006 59.1661 45.276 59.1661 45.2392C59.1661 45.1901 59.1906 45.141 59.2397 45.1042C59.2888 45.0674 59.3502 45.0429 59.436 45.0429C59.5097 45.0429 59.5833 45.0552 59.6569 45.0797C59.7305 45.1042 59.8041 45.1533 59.8778 45.2024L60.0373 44.9815C59.9514 44.9079 59.8655 44.8588 59.7673 44.8343C59.6692 44.7975 59.5587 44.7852 59.4483 44.7852C59.3624 44.7852 59.2888 44.7975 59.2274 44.822C59.1538 44.8466 59.1047 44.8834 59.0557 44.9202C59.0066 44.957 58.9698 45.0061 58.9452 45.0674C58.9207 45.1288 58.8962 45.1901 58.8962 45.2637C58.8962 45.3374 58.9084 45.3987 58.933 45.4601C58.9575 45.5091 58.9943 45.5582 59.0434 45.595C59.0925 45.6318 59.1416 45.6687 59.2152 45.6932C59.2888 45.7177 59.3624 45.7423 59.4483 45.7668C59.5219 45.7791 59.5833 45.8036 59.6324 45.8159C59.6814 45.8282 59.7182 45.8527 59.7428 45.8772C59.7673 45.9018 59.7919 45.9141 59.8041 45.9386C59.8164 45.9631 59.8164 45.9877 59.8164 46.0122C59.8164 46.0736 59.7919 46.1226 59.7428 46.1595C59.6937 46.1963 59.6201 46.2085 59.5342 46.2085C59.4238 46.2085 59.3379 46.184 59.252 46.1595C59.1661 46.1226 59.0925 46.0736 59.0189 45.9999L58.8471 46.2085C58.9452 46.2944 59.0557 46.368 59.1661 46.4049C59.2643 46.4539 59.3747 46.4662 59.5097 46.4662ZM61.3624 46.4539H61.6569V45.8036L62.3072 44.822H61.9759L61.5097 45.546L61.0557 44.822H60.7121L61.3624 45.8036V46.4539ZM63.5955 46.4662C63.6814 46.4662 63.7551 46.4539 63.8287 46.4294C63.9023 46.4049 63.9636 46.3803 64.0127 46.3312C64.0618 46.2944 64.0986 46.2331 64.1354 46.1717C64.16 46.1104 64.1845 46.049 64.1845 45.9631C64.1845 45.9018 64.1722 45.8404 64.1477 45.7914C64.1232 45.7423 64.0863 45.6932 64.0495 45.6564C64.0005 45.6196 63.9514 45.5828 63.89 45.5582C63.8287 45.5337 63.7428 45.5091 63.6692 45.4846C63.5956 45.4601 63.5219 45.4478 63.4728 45.4355C63.4238 45.4233 63.3747 45.3987 63.3501 45.3864C63.3256 45.3619 63.3011 45.3496 63.2888 45.3251C63.2765 45.3006 63.2765 45.276 63.2765 45.2392C63.2765 45.1901 63.3011 45.141 63.3501 45.1042C63.3992 45.0674 63.4606 45.0429 63.5465 45.0429C63.6201 45.0429 63.6937 45.0552 63.7673 45.0797C63.8409 45.1042 63.9146 45.1533 63.9882 45.2024L64.1354 44.9815C64.0495 44.9079 63.9636 44.8588 63.8655 44.8343C63.7673 44.7975 63.6692 44.7852 63.5465 44.7852C63.4606 44.7852 63.387 44.7975 63.3256 44.822C63.252 44.8466 63.2029 44.8834 63.1538 44.9202C63.1048 44.957 63.0679 45.0061 63.0434 45.0674C63.0189 45.1288 63.0066 45.1901 63.0066 45.2637C63.0066 45.3374 63.0189 45.3987 63.0434 45.4601C63.0679 45.5091 63.1048 45.5582 63.1538 45.595C63.2029 45.6318 63.252 45.6687 63.3256 45.6932C63.3992 45.7177 63.4728 45.7423 63.5587 45.7668C63.6324 45.7791 63.6937 45.8036 63.7428 45.8159C63.7919 45.8282 63.8287 45.8527 63.8532 45.8772C63.8778 45.9018 63.9023 45.9141 63.9146 45.9386C63.9268 45.9631 63.9268 45.9877 63.9268 46.0122C63.9268 46.0736 63.9023 46.1226 63.8532 46.1595C63.8041 46.1963 63.7305 46.2085 63.6446 46.2085C63.5465 46.2085 63.4483 46.184 63.3747 46.1595C63.2888 46.1226 63.2152 46.0736 63.1293 45.9999L62.9575 46.2085C63.0557 46.2944 63.1661 46.368 63.2765 46.4049C63.3501 46.4539 63.4728 46.4662 63.5955 46.4662ZM65.3747 46.4539H65.6569V45.092H66.1722V44.822H64.8471V45.092H65.3624V46.4539H65.3747ZM66.9452 46.4539H68.16V46.1963H67.2397V45.7668H68.0495V45.5091H67.2397V45.092H68.16V44.8343H66.9575V46.4539H66.9452ZM68.9698 46.4539H69.252V45.2883L69.7551 46.049H69.7673L70.2827 45.276V46.4417H70.5649V44.8098H70.2581L69.7673 45.5828L69.2765 44.8098H68.9698V46.4539Z" fill="#D4DFFF"/>
<path d="M76.2704 37.0674V40.4785V42.2085V42.822C76.2704 43.1288 76.2213 43.411 76.1354 43.6564C76.0495 43.914 75.9145 44.1226 75.7428 44.3067C75.571 44.4907 75.3624 44.6257 75.1293 44.7239C74.8839 44.822 74.6139 44.8711 74.2949 44.8711H74.2581C73.9514 44.8711 73.6692 44.822 73.4238 44.7239C73.1784 44.6257 72.982 44.4785 72.8103 44.3067L73.2029 43.7545C73.436 44.0122 73.755 44.1472 74.16 44.1717C74.5771 44.1594 74.8961 44.0122 75.117 43.7545C75.3624 43.4723 75.4851 43.1042 75.4851 42.6257V41.3251C75.3133 41.595 75.0925 41.8281 74.8225 42.0245C74.5403 42.2208 74.1845 42.3189 73.7428 42.3189C73.436 42.3189 73.1538 42.2699 72.9084 42.1717C72.663 42.0735 72.4667 41.9263 72.2949 41.7545C72.1231 41.5705 72.0004 41.3496 71.9023 41.1042C71.8164 40.8588 71.7673 40.5766 71.7673 40.2699V37.0797H72.528V40.0735C72.528 40.5521 72.6507 40.9324 72.8961 41.2024C73.1415 41.4846 73.4851 41.6196 73.9514 41.6196C74.1722 41.6196 74.3808 41.5827 74.5649 41.5091C74.7489 41.4355 74.9084 41.3251 75.0557 41.1778C75.1906 41.0306 75.3011 40.8711 75.3869 40.6748C75.4606 40.4785 75.5096 40.2576 75.5096 40.0245V37.0919H76.2704V37.0674ZM24.3685 42.1962C24.7121 42.1962 25.0311 42.1472 25.3133 42.0613C25.6078 41.9754 25.8532 41.8404 26.0618 41.6686C26.2704 41.4969 26.4299 41.2883 26.5403 41.0551C26.663 40.8097 26.7244 40.5398 26.7244 40.2453V40.2208C26.7244 39.6932 26.5403 39.276 26.1722 38.9693C25.8041 38.6625 25.2397 38.4294 24.4667 38.2576C24.0863 38.184 23.7673 38.0981 23.5219 38.0122C23.2765 37.9263 23.0925 37.8281 22.9452 37.7177C22.8103 37.6073 22.7121 37.4846 22.6507 37.3619C22.6017 37.2269 22.5771 37.092 22.5771 36.9202V36.8956C22.5771 36.5766 22.7121 36.3189 22.9698 36.0981C23.2274 35.8895 23.5955 35.7791 24.0495 35.7791C24.4053 35.7791 24.7489 35.8404 25.0679 35.9508C25.3992 36.0735 25.7182 36.2576 26.0372 36.5275L26.4912 35.9263C26.1354 35.6441 25.7673 35.4355 25.3869 35.2883C25.0066 35.141 24.5649 35.0797 24.0618 35.0797C23.7305 35.0797 23.4237 35.1288 23.1538 35.2269C22.8716 35.3251 22.6385 35.46 22.4299 35.6196C22.2213 35.7913 22.0618 35.9877 21.9514 36.2208C21.8409 36.4539 21.7796 36.6993 21.7796 36.9693V36.9938C21.7796 37.276 21.8287 37.5214 21.9145 37.73C22.0127 37.9386 22.1477 38.1226 22.344 38.2821C22.5403 38.4416 22.7734 38.5766 23.0679 38.687C23.3624 38.7975 23.706 38.8956 24.1109 38.9815C24.4667 39.0674 24.7734 39.141 25.0066 39.2269C25.2397 39.3128 25.4238 39.411 25.5587 39.5091C25.6937 39.6196 25.7796 39.73 25.8409 39.8527C25.89 39.9877 25.9268 40.1226 25.9268 40.2821V40.3067C25.9268 40.6502 25.7796 40.9324 25.5096 41.1533C25.2274 41.3742 24.8593 41.4846 24.3931 41.4846C23.9145 41.4846 23.4851 41.3987 23.117 41.2392C22.7489 41.0797 22.3808 40.8343 22.025 40.503L21.5342 41.0797C21.9514 41.46 22.3808 41.73 22.8471 41.914C23.3011 42.1104 23.8164 42.1962 24.3685 42.1962ZM30.025 42.2208C30.5035 42.2208 30.9084 42.1349 31.2397 41.9386C31.5587 41.7545 31.8532 41.5091 32.1109 41.2269L31.6201 40.7729C31.4115 40.9938 31.1906 41.1778 30.933 41.3128C30.6753 41.4601 30.3931 41.5337 30.0618 41.5337C29.7918 41.5337 29.5464 41.4846 29.3133 41.3742C29.0925 41.276 28.8839 41.1288 28.7244 40.9447C28.5526 40.7607 28.4299 40.5521 28.3317 40.3067C28.2336 40.0613 28.1845 39.8036 28.1845 39.5337V39.5091C28.1845 39.2269 28.2336 38.9693 28.3195 38.7361C28.4176 38.503 28.5403 38.2944 28.7121 38.1104C28.8716 37.9386 29.0679 37.7913 29.3011 37.6932C29.5219 37.595 29.7673 37.5337 30.025 37.5337C30.3808 37.5337 30.6753 37.6073 30.9084 37.7668C31.1538 37.914 31.3747 38.0981 31.571 38.3067L32.0741 37.7668C31.9514 37.6441 31.8287 37.5214 31.6937 37.411C31.5464 37.3005 31.3992 37.2024 31.2397 37.1165C31.0679 37.0306 30.8961 36.9693 30.6998 36.9202C30.5035 36.8711 30.2826 36.8466 30.0372 36.8466C29.6569 36.8466 29.3133 36.9202 28.9943 37.0551C28.6753 37.2024 28.3931 37.3864 28.1599 37.6318C27.9268 37.8772 27.7428 38.1594 27.6078 38.4785C27.4728 38.7975 27.4115 39.141 27.4115 39.5091V39.5337C27.4115 39.8895 27.4728 40.2331 27.6078 40.5521C27.7428 40.8711 27.9268 41.1533 28.1599 41.3987C28.3931 41.6441 28.6753 41.8281 28.9943 41.9754C29.3011 42.1472 29.6446 42.2208 30.025 42.2208ZM35.2397 42.2085C35.6201 42.2085 35.9759 42.1349 36.3072 41.9999C36.6385 41.8527 36.9207 41.6686 37.1538 41.4232C37.3869 41.1778 37.571 40.8956 37.7182 40.5766C37.8532 40.2576 37.9268 39.914 37.9268 39.5459V39.5214C37.9268 39.1533 37.8532 38.822 37.7305 38.503C37.5955 38.184 37.4115 37.9018 37.1784 37.6564C36.9452 37.411 36.663 37.2269 36.3317 37.0797C36.0004 36.9324 35.6446 36.8711 35.2642 36.8711C34.8716 36.8711 34.5158 36.9447 34.1845 37.0797C33.8532 37.2269 33.571 37.411 33.3379 37.6564C33.1047 37.9018 32.9207 38.184 32.7857 38.503C32.6507 38.822 32.5894 39.1656 32.5894 39.5337V39.5582C32.5894 39.9263 32.6507 40.2576 32.7857 40.5766C32.9207 40.8956 33.1047 41.1778 33.3379 41.4232C33.571 41.6686 33.8532 41.8527 34.1845 41.9999C34.5035 42.1472 34.8593 42.2085 35.2397 42.2085ZM35.2642 41.5337C34.9943 41.5337 34.7489 41.4846 34.5158 41.3742C34.2826 41.2637 34.0863 41.1288 33.9145 40.9447C33.7428 40.7729 33.6078 40.5643 33.5219 40.3189C33.4238 40.0735 33.3747 39.8159 33.3747 39.5459V39.5214C33.3747 39.2515 33.4238 38.9938 33.5096 38.7607C33.6078 38.5153 33.7305 38.3067 33.89 38.1349C34.0495 37.9631 34.2458 37.8159 34.479 37.7054C34.7121 37.595 34.9575 37.5459 35.2397 37.5459C35.5096 37.5459 35.755 37.595 35.9882 37.7054C36.2213 37.8159 36.4176 37.9508 36.5894 38.1349C36.7612 38.3189 36.8961 38.5275 36.9943 38.7729C37.0925 39.0183 37.1415 39.276 37.1415 39.5459V39.5705C37.1415 39.8404 37.0925 40.0981 37.0066 40.3312C36.9084 40.5643 36.7857 40.7729 36.6139 40.957C36.4544 41.141 36.2581 41.276 36.025 41.3864C35.7918 41.4846 35.5342 41.5337 35.2642 41.5337ZM38.8348 42.0981H39.5955V40.0613C39.5955 39.6809 39.6446 39.3374 39.755 39.0429C39.8655 38.7484 40.0004 38.503 40.1845 38.3067C40.3685 38.1104 40.5894 37.9631 40.8348 37.865C41.0802 37.7668 41.3501 37.7177 41.6201 37.7177H41.6814V36.8956C41.436 36.8834 41.2152 36.9202 40.9943 36.9815C40.7857 37.0429 40.5894 37.141 40.4176 37.276C40.2458 37.3987 40.0741 37.5582 39.9391 37.7423C39.8041 37.9263 39.6814 38.1104 39.5955 38.3312V36.9938H38.8348V42.0981ZM46.8839 39.8527C46.8839 39.7913 46.8961 39.7423 46.8961 39.6932V39.5827C46.8961 39.2024 46.8471 38.8588 46.7366 38.5275C46.6262 38.1962 46.479 37.914 46.2704 37.6686C46.0618 37.4232 45.8164 37.2269 45.5219 37.0919C45.2274 36.9447 44.8839 36.8834 44.5158 36.8834C44.1599 36.8834 43.8287 36.957 43.5342 37.0919C43.2397 37.2269 42.9698 37.4232 42.7612 37.6564C42.5403 37.9018 42.3685 38.184 42.2458 38.503C42.1231 38.8343 42.0618 39.1778 42.0618 39.5459C42.0618 39.9386 42.1354 40.3067 42.2704 40.638C42.4053 40.9693 42.5894 41.2515 42.8225 41.4846C43.0557 41.7177 43.3256 41.9018 43.6323 42.0245C43.9391 42.1594 44.2704 42.2208 44.6262 42.2208C45.117 42.2208 45.5219 42.1349 45.8532 41.9631C46.1845 41.7913 46.479 41.5582 46.7366 41.2637L46.2581 40.8343C46.0495 41.0551 45.8164 41.2269 45.5587 41.3619C45.3011 41.4969 44.9943 41.5582 44.6385 41.5582C44.4176 41.5582 44.1968 41.5214 43.9882 41.4478C43.7796 41.3742 43.5955 41.2637 43.436 41.1165C43.2765 40.9693 43.1293 40.7975 43.0311 40.5766C42.9207 40.368 42.8593 40.1226 42.8348 39.8527H46.8839ZM42.8348 39.2269C42.8593 38.9815 42.9207 38.7607 43.0188 38.5521C43.117 38.3435 43.2397 38.1594 43.3747 37.9999C43.5219 37.8404 43.6814 37.73 43.8777 37.6441C44.0741 37.5582 44.2704 37.5214 44.4912 37.5214C44.7366 37.5214 44.9698 37.5705 45.1538 37.6564C45.3501 37.7423 45.5096 37.865 45.6446 38.0245C45.7796 38.184 45.89 38.368 45.9636 38.5643C46.0372 38.7729 46.0863 38.9938 46.1109 39.2147H42.8348V39.2269ZM50.4912 42.2085C50.798 42.2085 51.1047 42.1472 51.3992 42.0245C51.6937 41.9018 51.9514 41.73 52.1845 41.4969C52.4176 41.2637 52.5894 40.9938 52.7366 40.6625C52.8839 40.3312 52.9452 39.9631 52.9452 39.5459V39.5214C52.9452 39.1042 52.8716 38.7239 52.7366 38.3926C52.6017 38.0613 52.4176 37.7913 52.1845 37.5582C51.9514 37.3251 51.6937 37.1533 51.3992 37.0429C51.1047 36.9202 50.8103 36.8711 50.5035 36.8711C50.2704 36.8711 50.0495 36.8956 49.8532 36.9693C49.6569 37.0306 49.4851 37.1165 49.3256 37.2146C49.1661 37.3128 49.0188 37.4355 48.8961 37.5827C48.7612 37.7177 48.6507 37.865 48.5403 38.0122V34.8711H47.7796V42.0981H48.5403V41.1165C48.6385 41.2637 48.7489 41.3987 48.8839 41.5337C49.0188 41.6686 49.1538 41.7791 49.3133 41.8772C49.4728 41.9754 49.6446 42.0613 49.8532 42.1226C50.0372 42.1717 50.2581 42.2085 50.4912 42.2085ZM50.344 41.5214C50.1109 41.5214 49.8777 41.4723 49.6569 41.3742C49.436 41.276 49.2397 41.141 49.0557 40.9693C48.8839 40.7975 48.7366 40.5889 48.6385 40.3435C48.5403 40.0981 48.4912 39.8281 48.4912 39.5337V39.5091C48.4912 39.2147 48.5403 38.957 48.6385 38.7116C48.7366 38.4662 48.8839 38.2699 49.0557 38.0858C49.2274 37.914 49.4238 37.7791 49.6569 37.6809C49.8777 37.5827 50.0986 37.5337 50.344 37.5337C50.5894 37.5337 50.8225 37.5827 51.0434 37.6686C51.2642 37.7668 51.4606 37.8895 51.6201 38.0613C51.7919 38.2331 51.9145 38.4416 52.0127 38.687C52.1109 38.9324 52.1599 39.2024 52.1599 39.5091V39.5337C52.1599 39.8404 52.1109 40.1226 52.0127 40.368C51.9145 40.6134 51.7919 40.822 51.6201 40.9815C51.4606 41.1533 51.2642 41.276 51.0434 41.3619C50.8348 41.4723 50.5894 41.5214 50.344 41.5214ZM55.755 42.2085C56.1968 42.2085 56.5526 42.1104 56.8348 41.914C57.117 41.7177 57.3379 41.4846 57.5096 41.2024V42.0981H58.2581V36.9815H57.5096V39.9018C57.5096 40.1349 57.4728 40.3558 57.3869 40.5521C57.3011 40.7484 57.2029 40.9202 57.0679 41.0551C56.933 41.2024 56.7734 41.3005 56.5771 41.3864C56.3931 41.46 56.1845 41.4969 55.9759 41.4969C55.5219 41.4969 55.1661 41.3619 54.933 41.0797C54.6876 40.7975 54.5649 40.4294 54.5649 39.9508V36.9693H53.8041V40.1472C53.8041 40.4539 53.8532 40.7239 53.9391 40.9815C54.025 41.2392 54.1599 41.4478 54.3195 41.6318C54.4912 41.8159 54.6876 41.9508 54.933 42.049C55.1661 42.1594 55.4483 42.2085 55.755 42.2085ZM61.6446 42.2085C61.8777 42.2085 62.0986 42.184 62.2949 42.1226C62.4912 42.0613 62.663 41.9754 62.8225 41.8772C62.982 41.7668 63.1293 41.6441 63.252 41.5091C63.3747 41.3742 63.4974 41.2269 63.6078 41.0674V42.0981H64.3685V34.8711H63.6078V37.9631C63.5096 37.8159 63.3992 37.6809 63.2642 37.5459C63.1415 37.411 62.9943 37.3005 62.8348 37.2024C62.6753 37.1042 62.5035 37.0183 62.3072 36.9693C62.1109 36.9079 61.89 36.8834 61.6569 36.8834C61.3501 36.8834 61.0434 36.9447 60.7612 37.0674C60.4667 37.1901 60.209 37.3619 59.9759 37.595C59.7428 37.8281 59.5587 38.0981 59.4237 38.4294C59.2888 38.7607 59.2152 39.1288 59.2152 39.5459V39.5705C59.2152 39.9877 59.2888 40.368 59.4237 40.687C59.571 41.0183 59.755 41.2883 59.9759 41.5214C60.209 41.7545 60.4667 41.9263 60.7612 42.0367C61.0434 42.1472 61.3379 42.2085 61.6446 42.2085ZM61.7919 41.5214C61.5465 41.5214 61.3133 41.4723 61.1047 41.3864C60.8839 41.2883 60.6998 41.1656 60.528 40.9938C60.3685 40.822 60.2336 40.6134 60.1354 40.368C60.0372 40.1226 59.9882 39.8527 59.9882 39.5459V39.5214C59.9882 39.2147 60.0372 38.9324 60.1354 38.687C60.2336 38.4416 60.3563 38.2331 60.5158 38.0735C60.6753 37.9018 60.8716 37.7791 61.0802 37.6932C61.301 37.6073 61.5342 37.5582 61.7796 37.5582C62.0127 37.5582 62.2458 37.6073 62.4667 37.7054C62.6876 37.8036 62.8839 37.9386 63.0557 38.1104C63.2274 38.2821 63.3624 38.4907 63.4728 38.7239C63.571 38.9693 63.6201 39.2392 63.6201 39.5337V39.5582C63.6201 39.8527 63.571 40.1226 63.4728 40.368C63.3624 40.6134 63.2274 40.822 63.0557 40.9938C62.8839 41.1656 62.6876 41.3005 62.4667 41.3987C62.2581 41.4723 62.025 41.5214 61.7919 41.5214ZM67.755 42.2085C67.9882 42.2085 68.209 42.184 68.4053 42.1226C68.6017 42.0613 68.7734 41.9754 68.933 41.8772C69.0925 41.7668 69.2397 41.6441 69.3624 41.5091C69.4851 41.3742 69.6078 41.2269 69.7182 41.0674V42.0981H70.479V34.8711H69.7182V37.9631C69.6201 37.8159 69.5096 37.6809 69.3747 37.5459C69.2397 37.411 69.1047 37.3005 68.9452 37.2024C68.7857 37.1042 68.6139 37.0183 68.4053 36.9693C68.209 36.9079 67.9882 36.8834 67.755 36.8834C67.4483 36.8834 67.1415 36.9447 66.8593 37.0674C66.5649 37.1901 66.3072 37.3619 66.0741 37.595C65.8409 37.8281 65.6569 38.0981 65.5219 38.4294C65.3869 38.7607 65.3133 39.1288 65.3133 39.5459V39.5705C65.3133 39.9877 65.3869 40.368 65.5219 40.687C65.6569 41.0183 65.8409 41.2883 66.0741 41.5214C66.3072 41.7545 66.5649 41.9263 66.8593 42.0367C67.1415 42.1472 67.4483 42.2085 67.755 42.2085ZM67.89 41.5214C67.6446 41.5214 67.4115 41.4723 67.2029 41.3864C66.982 41.2883 66.798 41.1656 66.6262 40.9938C66.4667 40.822 66.3317 40.6134 66.2336 40.368C66.1354 40.1226 66.0863 39.8527 66.0863 39.5459V39.5214C66.0863 39.2147 66.1354 38.9324 66.2336 38.687C66.3317 38.4416 66.4544 38.2331 66.6139 38.0735C66.7734 37.9018 66.9698 37.7791 67.1784 37.6932C67.3992 37.6073 67.6323 37.5582 67.8777 37.5582C68.1109 37.5582 68.344 37.6073 68.5649 37.7054C68.7857 37.8036 68.982 37.9386 69.1538 38.1104C69.3256 38.2821 69.4606 38.4907 69.571 38.7239C69.6691 38.9693 69.7182 39.2392 69.7182 39.5337V39.5582C69.7182 39.8527 69.6691 40.1226 69.571 40.368C69.4606 40.6134 69.3256 40.822 69.1538 40.9938C68.982 41.1656 68.7857 41.3005 68.5649 41.3987C68.3563 41.4723 68.1354 41.5214 67.89 41.5214Z" fill="#D4DFFF"/>
</svg>
